%TF.GenerationSoftware,KiCad,Pcbnew,10.0.0*%
%TF.CreationDate,2026-05-11T14:44:41-04:00*%
%TF.ProjectId,dds,6464732e-6b69-4636-9164-5f7063625858,rev?*%
%TF.SameCoordinates,Original*%
%TF.FileFunction,Soldermask,Top*%
%TF.FilePolarity,Negative*%
%FSLAX46Y46*%
G04 Gerber Fmt 4.6, Leading zero omitted, Abs format (unit mm)*
G04 Created by KiCad (PCBNEW 10.0.0) date 2026-05-11 14:44:41*
%MOMM*%
%LPD*%
G01*
G04 APERTURE LIST*
G04 Aperture macros list*
%AMRoundRect*
0 Rectangle with rounded corners*
0 $1 Rounding radius*
0 $2 $3 $4 $5 $6 $7 $8 $9 X,Y pos of 4 corners*
0 Add a 4 corners polygon primitive as box body*
4,1,4,$2,$3,$4,$5,$6,$7,$8,$9,$2,$3,0*
0 Add four circle primitives for the rounded corners*
1,1,$1+$1,$2,$3*
1,1,$1+$1,$4,$5*
1,1,$1+$1,$6,$7*
1,1,$1+$1,$8,$9*
0 Add four rect primitives between the rounded corners*
20,1,$1+$1,$2,$3,$4,$5,0*
20,1,$1+$1,$4,$5,$6,$7,0*
20,1,$1+$1,$6,$7,$8,$9,0*
20,1,$1+$1,$8,$9,$2,$3,0*%
G04 Aperture macros list end*
%ADD10RoundRect,0.250000X-0.412500X-0.650000X0.412500X-0.650000X0.412500X0.650000X-0.412500X0.650000X0*%
%ADD11RoundRect,0.250000X0.625000X-0.400000X0.625000X0.400000X-0.625000X0.400000X-0.625000X-0.400000X0*%
%ADD12RoundRect,0.250000X0.412500X0.650000X-0.412500X0.650000X-0.412500X-0.650000X0.412500X-0.650000X0*%
%ADD13C,3.200000*%
%ADD14RoundRect,0.250000X-0.700000X0.362500X-0.700000X-0.362500X0.700000X-0.362500X0.700000X0.362500X0*%
%ADD15RoundRect,0.250000X0.400000X0.625000X-0.400000X0.625000X-0.400000X-0.625000X0.400000X-0.625000X0*%
%ADD16C,2.400000*%
%ADD17RoundRect,0.100000X-0.637500X-0.100000X0.637500X-0.100000X0.637500X0.100000X-0.637500X0.100000X0*%
%ADD18RoundRect,0.250000X-0.650000X0.412500X-0.650000X-0.412500X0.650000X-0.412500X0.650000X0.412500X0*%
%ADD19RoundRect,0.250000X0.650000X-0.412500X0.650000X0.412500X-0.650000X0.412500X-0.650000X-0.412500X0*%
%ADD20RoundRect,0.250000X-0.400000X-0.625000X0.400000X-0.625000X0.400000X0.625000X-0.400000X0.625000X0*%
%ADD21C,2.000000*%
%ADD22RoundRect,0.250000X-0.625000X0.400000X-0.625000X-0.400000X0.625000X-0.400000X0.625000X0.400000X0*%
%ADD23R,0.650000X1.525000*%
%ADD24RoundRect,0.250000X-0.640000X1.595000X-0.640000X-1.595000X0.640000X-1.595000X0.640000X1.595000X0*%
%ADD25RoundRect,0.250000X-1.082500X1.595000X-1.082500X-1.595000X1.082500X-1.595000X1.082500X1.595000X0*%
%ADD26RoundRect,0.250000X0.362500X0.700000X-0.362500X0.700000X-0.362500X-0.700000X0.362500X-0.700000X0*%
%ADD27C,5.200000*%
%ADD28C,1.700000*%
%ADD29R,1.525000X0.650000*%
%ADD30C,4.155000*%
%ADD31R,1.650000X1.650000*%
%ADD32C,1.650000*%
%ADD33R,0.950000X1.200000*%
%ADD34R,1.150000X0.600000*%
%ADD35RoundRect,0.100000X0.637500X0.100000X-0.637500X0.100000X-0.637500X-0.100000X0.637500X-0.100000X0*%
G04 APERTURE END LIST*
D10*
%TO.C,C20*%
X104000000Y-82700000D03*
X100875000Y-82700000D03*
%TD*%
D11*
%TO.C,R30*%
X93872000Y-81550000D03*
X93872000Y-84650000D03*
%TD*%
D12*
%TO.C,C23*%
X100875000Y-77100000D03*
X104000000Y-77100000D03*
%TD*%
D13*
%TO.C,REF\u002A\u002A*%
X34800000Y-24900000D03*
%TD*%
%TO.C,REF\u002A\u002A*%
X154860000Y-24900000D03*
%TD*%
%TO.C,REF\u002A\u002A*%
X34800000Y-94710000D03*
%TD*%
D14*
%TO.C,L6*%
X134700000Y-100637500D03*
X134700000Y-103962500D03*
%TD*%
D15*
%TO.C,R25*%
X140362500Y-79400000D03*
X137262500Y-79400000D03*
%TD*%
%TO.C,R20*%
X104000000Y-97795000D03*
X100900000Y-97795000D03*
%TD*%
D16*
%TO.C,REF5*%
X66640000Y-61640000D03*
%TD*%
D17*
%TO.C,U4*%
X107637500Y-82700000D03*
X107637500Y-83350000D03*
X107637500Y-84000000D03*
X107637500Y-84650000D03*
X107637500Y-85300000D03*
X107637500Y-85950000D03*
X107637500Y-86600000D03*
X107637500Y-87250000D03*
X107637500Y-87900000D03*
X107637500Y-88550000D03*
X113362500Y-88550000D03*
X113362500Y-87900000D03*
X113362500Y-87250000D03*
X113362500Y-86600000D03*
X113362500Y-85950000D03*
X113362500Y-85300000D03*
X113362500Y-84650000D03*
X113362500Y-84000000D03*
X113362500Y-83350000D03*
X113362500Y-82700000D03*
%TD*%
D18*
%TO.C,C5*%
X80600000Y-94375000D03*
X80600000Y-97500000D03*
%TD*%
D19*
%TO.C,C31*%
X137500000Y-87812500D03*
X137500000Y-84687500D03*
%TD*%
D20*
%TO.C,R13*%
X64700000Y-94588000D03*
X67800000Y-94588000D03*
%TD*%
D16*
%TO.C,REF4*%
X73500000Y-129400000D03*
%TD*%
%TO.C,AMPIOUT1*%
X73440000Y-124142000D03*
%TD*%
%TO.C,SCLK1*%
X82090000Y-61750000D03*
%TD*%
D10*
%TO.C,C13*%
X52313214Y-120217000D03*
X55438214Y-120217000D03*
%TD*%
D16*
%TO.C,REF2*%
X142000000Y-63200000D03*
%TD*%
D10*
%TO.C,C22*%
X100875000Y-85500000D03*
X104000000Y-85500000D03*
%TD*%
D18*
%TO.C,C38*%
X123500000Y-87750000D03*
X123500000Y-90875000D03*
%TD*%
D20*
%TO.C,R15*%
X100900000Y-100500000D03*
X104000000Y-100500000D03*
%TD*%
D12*
%TO.C,C41*%
X112750000Y-108775000D03*
X109625000Y-108775000D03*
%TD*%
D21*
%TO.C,DDSOUT2*%
X123550000Y-85100000D03*
%TD*%
D10*
%TO.C,C28*%
X127725000Y-84000000D03*
X130850000Y-84000000D03*
%TD*%
D16*
%TO.C,FSYNC1*%
X76050000Y-61750000D03*
%TD*%
D22*
%TO.C,R17*%
X123750000Y-71950000D03*
X123750000Y-75050000D03*
%TD*%
D20*
%TO.C,R18*%
X127550000Y-72550000D03*
X130650000Y-72550000D03*
%TD*%
D22*
%TO.C,R7*%
X66840000Y-110120000D03*
X66840000Y-113220000D03*
%TD*%
%TO.C,R22*%
X134750000Y-77750000D03*
X134750000Y-80850000D03*
%TD*%
D23*
%TO.C,IC1*%
X73045000Y-109008000D03*
X71775000Y-109008000D03*
X70505000Y-109008000D03*
X69235000Y-109008000D03*
X69235000Y-114432000D03*
X70505000Y-114432000D03*
X71775000Y-114432000D03*
X73045000Y-114432000D03*
%TD*%
D16*
%TO.C,AMPIOUT2*%
X142000000Y-74750000D03*
%TD*%
D12*
%TO.C,C11*%
X73075000Y-97300000D03*
X69950000Y-97300000D03*
%TD*%
D10*
%TO.C,C4*%
X84125000Y-97566667D03*
X87250000Y-97566667D03*
%TD*%
D11*
%TO.C,R16*%
X112750000Y-80600000D03*
X112750000Y-77500000D03*
%TD*%
D16*
%TO.C,RESET1*%
X94170000Y-61750000D03*
%TD*%
%TO.C,FSYNC2*%
X106250000Y-61750000D03*
%TD*%
D24*
%TO.C,J1*%
X61492500Y-137600000D03*
D25*
X64985000Y-137600000D03*
X58000000Y-137600000D03*
%TD*%
D19*
%TO.C,C25*%
X121000000Y-75062500D03*
X121000000Y-71937500D03*
%TD*%
D18*
%TO.C,C10*%
X64090000Y-110142000D03*
X64090000Y-113267000D03*
%TD*%
D12*
%TO.C,C1*%
X87250000Y-91666667D03*
X84125000Y-91666667D03*
%TD*%
%TO.C,C35*%
X140375000Y-90250000D03*
X137250000Y-90250000D03*
%TD*%
D20*
%TO.C,R26*%
X131950000Y-106250000D03*
X135050000Y-106250000D03*
%TD*%
D22*
%TO.C,R31*%
X112500000Y-111375000D03*
X112500000Y-114475000D03*
%TD*%
D16*
%TO.C,REF3*%
X85200000Y-102900000D03*
%TD*%
D11*
%TO.C,R24*%
X123750000Y-80550000D03*
X123750000Y-77450000D03*
%TD*%
D19*
%TO.C,C33*%
X137500000Y-103812500D03*
X137500000Y-100687500D03*
%TD*%
D18*
%TO.C,C7*%
X76090000Y-117017000D03*
X76090000Y-120142000D03*
%TD*%
D11*
%TO.C,R11*%
X69240000Y-122892000D03*
X69240000Y-119792000D03*
%TD*%
D10*
%TO.C,C26*%
X134687500Y-72250000D03*
X137812500Y-72250000D03*
%TD*%
D20*
%TO.C,R21*%
X127700000Y-81250000D03*
X130800000Y-81250000D03*
%TD*%
D10*
%TO.C,C29*%
X134687500Y-75150000D03*
X137812500Y-75150000D03*
%TD*%
D21*
%TO.C,DDSIOUT1*%
X74775000Y-101450000D03*
%TD*%
D10*
%TO.C,C14*%
X43956071Y-120142000D03*
X47081071Y-120142000D03*
%TD*%
D12*
%TO.C,C36*%
X140375000Y-98250000D03*
X137250000Y-98250000D03*
%TD*%
D22*
%TO.C,R29*%
X112500000Y-116775000D03*
X112500000Y-119875000D03*
%TD*%
D19*
%TO.C,C18*%
X41340000Y-123067000D03*
X41340000Y-119942000D03*
%TD*%
D12*
%TO.C,C6*%
X80482500Y-106392000D03*
X77357500Y-106392000D03*
%TD*%
D15*
%TO.C,R3*%
X75190000Y-106432000D03*
X72090000Y-106432000D03*
%TD*%
%TO.C,R23*%
X120350000Y-80550000D03*
X117250000Y-80550000D03*
%TD*%
D26*
%TO.C,L1*%
X63862500Y-117150000D03*
X60537500Y-117150000D03*
%TD*%
D14*
%TO.C,L4*%
X134650000Y-84687500D03*
X134650000Y-88012500D03*
%TD*%
D27*
%TO.C,U2*%
X34000000Y-31270000D03*
X34000000Y-49050000D03*
X79720000Y-31270000D03*
X79720000Y-49050000D03*
D28*
X37810000Y-50320000D03*
X40350000Y-50320000D03*
X42890000Y-50320000D03*
X45430000Y-50320000D03*
X47970000Y-50320000D03*
X50510000Y-50320000D03*
X53050000Y-50320000D03*
X55590000Y-50320000D03*
X58130000Y-50320000D03*
X60670000Y-50320000D03*
X63210000Y-50320000D03*
X65750000Y-50320000D03*
X68290000Y-50320000D03*
X70830000Y-50320000D03*
X73370000Y-50320000D03*
X75910000Y-50320000D03*
X75910000Y-30000000D03*
X73370000Y-30000000D03*
X70830000Y-30000000D03*
X68290000Y-30000000D03*
X65750000Y-30000000D03*
X63210000Y-30000000D03*
X60670000Y-30000000D03*
X58130000Y-30000000D03*
X55590000Y-30000000D03*
X53050000Y-30000000D03*
X50510000Y-30000000D03*
X47970000Y-30000000D03*
%TD*%
D12*
%TO.C,C37*%
X140312500Y-106250000D03*
X137187500Y-106250000D03*
%TD*%
D24*
%TO.C,J4*%
X100000000Y-137600000D03*
D25*
X103492500Y-137600000D03*
X96507500Y-137600000D03*
%TD*%
D22*
%TO.C,R4*%
X75350000Y-110300000D03*
X75350000Y-113400000D03*
%TD*%
D19*
%TO.C,C24*%
X107250000Y-80625000D03*
X107250000Y-77500000D03*
%TD*%
D16*
%TO.C,SDATA1*%
X88130000Y-61750000D03*
%TD*%
D12*
%TO.C,C39*%
X93860000Y-73250000D03*
X90735000Y-73250000D03*
%TD*%
D15*
%TO.C,R19*%
X104000000Y-95090000D03*
X100900000Y-95090000D03*
%TD*%
D29*
%TO.C,IC2*%
X126538000Y-74845000D03*
X126538000Y-76115000D03*
X126538000Y-77385000D03*
X126538000Y-78655000D03*
X131962000Y-78655000D03*
X131962000Y-77385000D03*
X131962000Y-76115000D03*
X131962000Y-74845000D03*
%TD*%
D20*
%TO.C,R10*%
X67010000Y-106430000D03*
X70110000Y-106430000D03*
%TD*%
D19*
%TO.C,C27*%
X110000000Y-80625000D03*
X110000000Y-77500000D03*
%TD*%
D10*
%TO.C,C2*%
X84125000Y-94900000D03*
X87250000Y-94900000D03*
%TD*%
D19*
%TO.C,C16*%
X58054286Y-123142000D03*
X58054286Y-120017000D03*
%TD*%
D11*
%TO.C,R14*%
X64230000Y-106660000D03*
X64230000Y-103560000D03*
%TD*%
D15*
%TO.C,R1*%
X79000000Y-74500000D03*
X75900000Y-74500000D03*
%TD*%
D20*
%TO.C,R5*%
X75900000Y-80000000D03*
X79000000Y-80000000D03*
%TD*%
%TO.C,R9*%
X69950000Y-94588000D03*
X73050000Y-94588000D03*
%TD*%
D24*
%TO.C,J3*%
X120000000Y-137600000D03*
D25*
X123492500Y-137600000D03*
X116507500Y-137600000D03*
%TD*%
D15*
%TO.C,R8*%
X70740000Y-117142000D03*
X67640000Y-117142000D03*
%TD*%
D16*
%TO.C,TP1*%
X100300000Y-61750000D03*
%TD*%
D30*
%TO.C,U1*%
X139150000Y-135350000D03*
X150850000Y-135350000D03*
D31*
X142500000Y-136600000D03*
D32*
X147500000Y-136600000D03*
X145000000Y-136600000D03*
X142500000Y-134100000D03*
X147500000Y-134100000D03*
%TD*%
D33*
%TO.C,Y1*%
X92110000Y-76340000D03*
X92110000Y-78540000D03*
X93860000Y-78540000D03*
X93860000Y-76340000D03*
%TD*%
D24*
%TO.C,J2*%
X42500000Y-137600000D03*
D25*
X45992500Y-137600000D03*
X39007500Y-137600000D03*
%TD*%
D21*
%TO.C,DDSIOUT2*%
X114400000Y-74850000D03*
%TD*%
D18*
%TO.C,C40*%
X104750000Y-110450000D03*
X104750000Y-113575000D03*
%TD*%
D20*
%TO.C,R6*%
X75900000Y-77250000D03*
X79000000Y-77250000D03*
%TD*%
D18*
%TO.C,C8*%
X73340000Y-117017000D03*
X73340000Y-120142000D03*
%TD*%
D19*
%TO.C,C32*%
X137500000Y-95812500D03*
X137500000Y-92687500D03*
%TD*%
D34*
%TO.C,IC3*%
X107554500Y-111235000D03*
X107554500Y-112185000D03*
X107554500Y-113135000D03*
X110054500Y-113135000D03*
X110054500Y-111235000D03*
%TD*%
D26*
%TO.C,L2*%
X55512500Y-117250000D03*
X52187500Y-117250000D03*
%TD*%
D35*
%TO.C,U3*%
X80107500Y-91800000D03*
X80107500Y-91150000D03*
X80107500Y-90500000D03*
X80107500Y-89850000D03*
X80107500Y-89200000D03*
X80107500Y-88550000D03*
X80107500Y-87900000D03*
X80107500Y-87250000D03*
X80107500Y-86600000D03*
X80107500Y-85950000D03*
X74382500Y-85950000D03*
X74382500Y-86600000D03*
X74382500Y-87250000D03*
X74382500Y-87900000D03*
X74382500Y-88550000D03*
X74382500Y-89200000D03*
X74382500Y-89850000D03*
X74382500Y-90500000D03*
X74382500Y-91150000D03*
X74382500Y-91800000D03*
%TD*%
D12*
%TO.C,C34*%
X140375000Y-82250000D03*
X137250000Y-82250000D03*
%TD*%
D22*
%TO.C,R2*%
X75400000Y-94400000D03*
X75400000Y-97500000D03*
%TD*%
D11*
%TO.C,R27*%
X120850000Y-90850000D03*
X120850000Y-87750000D03*
%TD*%
D16*
%TO.C,REF1*%
X113400000Y-69000000D03*
%TD*%
D12*
%TO.C,C3*%
X87250000Y-89000000D03*
X84125000Y-89000000D03*
%TD*%
D15*
%TO.C,R28*%
X126250000Y-93250000D03*
X123150000Y-93250000D03*
%TD*%
D21*
%TO.C,DDSOUT1*%
X67750000Y-101450000D03*
%TD*%
D12*
%TO.C,C19*%
X67800000Y-97300000D03*
X64675000Y-97300000D03*
%TD*%
D19*
%TO.C,C17*%
X49697143Y-123142000D03*
X49697143Y-120017000D03*
%TD*%
D22*
%TO.C,R12*%
X41350000Y-114000000D03*
X41350000Y-117100000D03*
%TD*%
D12*
%TO.C,C21*%
X104000000Y-79900000D03*
X100875000Y-79900000D03*
%TD*%
D14*
%TO.C,L5*%
X134700000Y-92587500D03*
X134700000Y-95912500D03*
%TD*%
D10*
%TO.C,C12*%
X60670357Y-120142000D03*
X63795357Y-120142000D03*
%TD*%
D19*
%TO.C,C15*%
X66411429Y-122904500D03*
X66411429Y-119779500D03*
%TD*%
D18*
%TO.C,C42*%
X115250000Y-111375000D03*
X115250000Y-114500000D03*
%TD*%
%TO.C,C9*%
X78000000Y-94375000D03*
X78000000Y-97500000D03*
%TD*%
D26*
%TO.C,L3*%
X47262500Y-117200000D03*
X43937500Y-117200000D03*
%TD*%
D10*
%TO.C,C30*%
X117225000Y-77450000D03*
X120350000Y-77450000D03*
%TD*%
M02*
