M48
; DRILL file KiCad 10.0.0 date 2026-05-11T18:02:41
; FORMAT={-:-/ absolute / metric / decimal}
; #@! TF.CreationDate,2026-05-11T18:02:41-04:00
; #@! TF.GenerationSoftware,Kicad,Pcbnew,10.0.0
; #@! TF.FileFunction,Plated,1,4,PTH
FMAT,2
METRIC
; #@! TA.AperFunction,Plated,PTH,ViaDrill
T1C0.300
; #@! TA.AperFunction,Plated,PTH,ViaDrill
T2C0.400
; #@! TA.AperFunction,Plated,PTH,ComponentDrill
T3C1.000
; #@! TA.AperFunction,Plated,PTH,ComponentDrill
T4C1.100
; #@! TA.AperFunction,Plated,PTH,ComponentDrill
T5C1.600
; #@! TA.AperFunction,Plated,PTH,ComponentDrill
T6C2.770
%
G90
G05
T1
X32.71Y-138.66
X33.0Y-60.4
X33.0Y-68.2
X33.0Y-76.0
X33.0Y-82.9
X33.0Y-90.7
X33.0Y-98.5
X36.7Y-137.05
X36.7Y-138.15
X38.3Y-134.8
X39.3Y-48.0
X39.5Y-33.089
X39.65Y-134.8
X39.852Y-122.65
X39.852Y-123.5
X39.912Y-113.58
X39.912Y-114.43
X40.6Y-112.2
X40.6Y-124.6
X42.0Y-112.2
X42.1Y-124.7
X43.4Y-48.0
X43.4Y-113.3
X43.4Y-114.4
X43.6Y-33.077
X44.06Y-52.44
X44.8Y-48.0
X45.25Y-134.8
X45.46Y-52.44
X46.2Y-48.0
X46.75Y-134.8
X46.86Y-52.44
X47.5Y-48.0
X47.7Y-33.1
X47.8Y-122.5
X47.8Y-123.7
X48.0Y-112.5
X48.25Y-137.0
X48.25Y-138.15
X49.25Y-124.448
X49.77Y-33.06
X50.1Y-124.448
X50.5Y-107.5
X51.5Y-122.5
X51.5Y-123.75
X51.6Y-48.0
X52.04Y-138.88
X55.0Y-112.5
X55.55Y-137.15
X55.55Y-138.25
X55.7Y-48.0
X56.25Y-122.5
X56.25Y-123.75
X57.15Y-134.9
X57.47Y-33.066
X57.5Y-107.5
X57.6Y-124.448
X58.45Y-124.448
X58.5Y-134.9
X59.8Y-48.0
X60.0Y-33.083
X60.0Y-93.0
X60.0Y-98.5
X60.0Y-122.5
X60.0Y-123.75
X60.525Y-110.15
X62.1Y-109.9
X62.25Y-105.75
X62.25Y-107.25
X62.5Y-89.5
X63.2Y-31.6
X63.462Y-94.15
X63.462Y-95.0
X63.65Y-108.862
X63.8Y-107.838
X63.9Y-48.0
X64.1Y-33.071
X64.1Y-134.9
X64.2Y-92.7
X64.5Y-108.862
X64.5Y-123.6
X64.6Y-122.2
X64.65Y-107.838
X64.8Y-59.8
X65.0Y-92.7
X65.1Y-124.6
X65.6Y-134.9
X65.95Y-124.198
X66.1Y-104.2
X66.6Y-104.912
X66.8Y-124.198
X67.15Y-137.0
X67.15Y-138.2
X67.3Y-104.2
X67.45Y-104.912
X67.8Y-124.5
X68.0Y-48.0
X68.05Y-108.2
X68.05Y-108.85
X68.2Y-33.094
X68.5Y-63.5
X68.8Y-124.148
X69.4Y-92.2
X69.55Y-93.2
X69.65Y-124.148
X70.4Y-93.2
X70.6Y-92.2
X71.1Y-87.6
X71.4Y-126.1
X71.4Y-127.5
X72.4Y-87.2
X72.4Y-88.6
X72.85Y-121.35
X72.9Y-90.5
X73.7Y-121.35
X73.9Y-138.5
X74.4Y-84.8
X74.65Y-77.3
X74.65Y-80.0
X75.0Y-98.688
X75.5Y-131.5
X75.65Y-121.35
X75.8Y-82.2
X75.85Y-98.688
X76.0Y-89.7
X76.0Y-90.5
X76.4Y-86.8
X76.4Y-88.5
X76.5Y-121.35
X77.6Y-98.738
X78.0Y-63.8
X78.1Y-86.8
X78.1Y-88.5
X78.1Y-90.5
X78.45Y-98.738
X78.71Y-87.9
X78.85Y-119.2
X78.85Y-120.1
X78.85Y-120.95
X79.8Y-72.7
X80.0Y-63.8
X80.0Y-104.5
X80.0Y-108.25
X80.2Y-98.688
X80.25Y-74.5
X80.45Y-77.15
X81.0Y-104.5
X81.0Y-108.25
X81.05Y-98.688
X81.6Y-87.9
X81.7Y-86.6
X81.7Y-138.5
X81.798Y-106.0
X81.798Y-106.85
X83.2Y-101.0
X84.12Y-93.2
X85.5Y-113.0
X85.5Y-124.0
X86.1Y-63.8
X87.2Y-104.8
X88.6Y-94.9
X88.6Y-96.8
X88.6Y-98.1
X88.7Y-89.0
X88.7Y-91.6
X89.15Y-74.01
X89.2Y-73.2
X89.2Y-88.3
X89.2Y-90.6
X89.2Y-93.5
X89.5Y-138.5
X90.8Y-79.6
X90.9Y-78.5
X92.0Y-80.2
X92.1Y-63.8
X94.238Y-137.122
X94.238Y-138.222
X95.838Y-134.872
X97.0Y-108.5
X97.0Y-124.0
X97.188Y-134.872
X98.3Y-63.8
X99.0Y-79.1
X99.0Y-81.4
X99.0Y-84.1
X99.0Y-95.0
X99.5Y-76.4
X99.51Y-77.45
X99.6Y-79.9
X99.6Y-82.7
X99.6Y-85.5
X99.65Y-100.5
X102.788Y-134.872
X102.89Y-113.4
X102.91Y-114.19
X104.0Y-81.3
X104.288Y-134.872
X104.3Y-114.8
X104.4Y-63.8
X105.15Y-114.8
X105.25Y-95.05
X105.25Y-97.8
X105.788Y-137.072
X105.788Y-138.222
X106.16Y-86.6
X107.25Y-76.1
X108.27Y-139.17
X108.35Y-108.4
X108.35Y-109.25
X108.8Y-112.15
X109.05Y-86.6
X109.5Y-84.7
X109.5Y-87.6
X109.75Y-76.15
X110.3Y-83.2
X110.3Y-86.0
X110.93Y-139.14
X111.5Y-67.1
X111.5Y-83.2
X111.75Y-84.0
X111.75Y-84.8
X111.85Y-85.95
X112.05Y-121.05
X112.45Y-76.15
X112.9Y-121.05
X113.35Y-89.65
X114.238Y-137.122
X114.238Y-138.222
X114.85Y-84.0
X114.9Y-86.55
X115.4Y-71.0
X115.6Y-85.75
X115.838Y-134.872
X116.75Y-114.25
X116.75Y-115.1
X117.188Y-134.872
X119.45Y-74.65
X119.45Y-75.5
X119.7Y-82.5
X120.4Y-92.1
X121.1Y-82.5
X121.25Y-92.1
X121.55Y-80.15
X121.55Y-81.0
X122.5Y-67.0
X122.6Y-82.5
X122.788Y-134.872
X123.3Y-81.75
X124.15Y-81.75
X124.288Y-134.872
X125.4Y-83.3
X125.5Y-80.8
X125.7Y-91.3
X125.742Y-79.885
X125.788Y-137.072
X125.788Y-138.222
X126.2Y-95.2
X126.392Y-79.885
X127.0Y-91.3
X127.3Y-85.5
X127.5Y-104.5
X127.55Y-92.8
X127.55Y-93.65
X128.15Y-85.5
X129.18Y-138.92
X129.5Y-67.0
X130.0Y-90.5
X130.0Y-98.0
X130.1Y-77.7
X130.6Y-105.8
X130.6Y-106.65
X131.4Y-108.3
X131.5Y-104.4
X132.2Y-108.3
X132.5Y-104.4
X132.69Y-138.94
X135.5Y-58.0
X136.5Y-28.0
X136.5Y-37.0
X137.5Y-131.0
X139.1Y-71.825
X139.1Y-72.675
X139.1Y-74.725
X139.1Y-75.575
X139.6Y-84.1
X139.6Y-100.3
X139.7Y-96.2
X139.8Y-92.1
X139.9Y-88.3
X139.9Y-104.2
X140.1Y-108.2
X140.2Y-61.3
X140.9Y-104.3
X141.0Y-88.3
X141.0Y-108.2
X141.1Y-84.1
X141.1Y-92.1
X141.3Y-96.2
X141.3Y-100.3
X141.6Y-79.0
X141.6Y-79.85
X141.6Y-89.8
X141.6Y-90.65
X141.6Y-105.85
X141.6Y-106.7
X141.65Y-81.85
X141.65Y-82.7
X141.65Y-97.9
X141.65Y-98.75
X143.0Y-131.0
X144.0Y-65.2
X148.5Y-43.5
X149.5Y-131.0
X155.0Y-114.5
X155.0Y-125.0
T2
X38.94Y-52.46
X40.34Y-52.8
X41.79Y-52.36
X52.25Y-31.4
X53.8Y-31.45
X63.1Y-114.65
X64.2Y-114.65
X74.6Y-115.7
X76.6Y-115.71
X95.25Y-73.23
X103.95Y-109.05
X105.45Y-109.05
X114.6Y-110.0
X115.95Y-110.0
X117.11Y-111.39
X131.05Y-85.6
X132.15Y-83.99
X133.343Y-72.4
X133.433Y-73.79
T3
X37.81Y-50.32
X40.35Y-50.32
X42.89Y-50.32
X45.43Y-50.32
X47.97Y-30.0
X47.97Y-50.32
X50.51Y-30.0
X50.51Y-50.32
X53.05Y-30.0
X53.05Y-50.32
X55.59Y-30.0
X55.59Y-50.32
X58.13Y-30.0
X58.13Y-50.32
X60.67Y-30.0
X60.67Y-50.32
X63.21Y-30.0
X63.21Y-50.32
X65.75Y-30.0
X65.75Y-50.32
X67.75Y-101.45
X68.29Y-30.0
X68.29Y-50.32
X70.83Y-30.0
X70.83Y-50.32
X73.37Y-30.0
X73.37Y-50.32
X74.775Y-101.45
X75.91Y-30.0
X75.91Y-50.32
X114.4Y-74.85
X123.55Y-85.1
T4
X142.5Y-134.1
X142.5Y-136.6
X145.0Y-136.6
X147.5Y-134.1
X147.5Y-136.6
T5
X66.64Y-61.64
X73.44Y-124.142
X73.5Y-129.4
X76.05Y-61.75
X82.09Y-61.75
X85.2Y-102.9
X88.13Y-61.75
X94.17Y-61.75
X100.3Y-61.75
X106.25Y-61.75
X113.4Y-69.0
X142.0Y-63.2
X142.0Y-74.75
T6
X139.15Y-135.35
X150.85Y-135.35
M30
