%TF.GenerationSoftware,KiCad,Pcbnew,10.0.0*%
%TF.CreationDate,2026-05-11T18:02:44-04:00*%
%TF.ProjectId,dds,6464732e-6b69-4636-9164-5f7063625858,rev?*%
%TF.SameCoordinates,Original*%
%TF.FileFunction,Copper,L2,Inr*%
%TF.FilePolarity,Positive*%
%FSLAX46Y46*%
G04 Gerber Fmt 4.6, Leading zero omitted, Abs format (unit mm)*
G04 Created by KiCad (PCBNEW 10.0.0) date 2026-05-11 18:02:44*
%MOMM*%
%LPD*%
G01*
G04 APERTURE LIST*
%TA.AperFunction,ComponentPad*%
%ADD10C,1.700000*%
%TD*%
%TA.AperFunction,ComponentPad*%
%ADD11C,2.400000*%
%TD*%
%TA.AperFunction,ComponentPad*%
%ADD12C,2.000000*%
%TD*%
%TA.AperFunction,ComponentPad*%
%ADD13C,4.155000*%
%TD*%
%TA.AperFunction,ComponentPad*%
%ADD14R,1.650000X1.650000*%
%TD*%
%TA.AperFunction,ComponentPad*%
%ADD15C,1.650000*%
%TD*%
%TA.AperFunction,ViaPad*%
%ADD16C,0.600000*%
%TD*%
%TA.AperFunction,ViaPad*%
%ADD17C,0.800000*%
%TD*%
G04 APERTURE END LIST*
D10*
%TO.N,unconnected-(U2-RESET-Pad1)*%
%TO.C,U2*%
X37810000Y-50320000D03*
%TO.N,/3.3V*%
X40350000Y-50320000D03*
%TO.N,unconnected-(U2-3.3V-Pad3)*%
X42890000Y-50320000D03*
%TO.N,GND*%
X45430000Y-50320000D03*
%TO.N,unconnected-(U2-A0{slash}GPIO26-Pad5)*%
X47970000Y-50320000D03*
%TO.N,unconnected-(U2-A1{slash}GPIO27-Pad6)*%
X50510000Y-50320000D03*
%TO.N,unconnected-(U2-A2{slash}GPIO28-Pad7)*%
X53050000Y-50320000D03*
%TO.N,unconnected-(U2-A3{slash}GPIO29-Pad8)*%
X55590000Y-50320000D03*
%TO.N,unconnected-(U2-D24{slash}GPIO24-Pad9)*%
X58130000Y-50320000D03*
%TO.N,unconnected-(U2-D25{slash}GPIO25-Pad10)*%
X60670000Y-50320000D03*
%TO.N,/SCLK*%
X63210000Y-50320000D03*
%TO.N,/SDATA*%
X65750000Y-50320000D03*
%TO.N,unconnected-(U2-MISO{slash}GPIO20-Pad13)*%
X68290000Y-50320000D03*
%TO.N,unconnected-(U2-RX{slash}CS{slash}GPIO1-Pad14)*%
X70830000Y-50320000D03*
%TO.N,unconnected-(U2-TX{slash}GPIO0-Pad15)*%
X73370000Y-50320000D03*
%TO.N,/RESET*%
X75910000Y-50320000D03*
%TO.N,unconnected-(U2-SDA{slash}GPIO2-Pad17)*%
X75910000Y-30000000D03*
%TO.N,unconnected-(U2-SCL{slash}GPIO3-Pad18)*%
X73370000Y-30000000D03*
%TO.N,/FSYNC2*%
X70830000Y-30000000D03*
%TO.N,/PSEL*%
X68290000Y-30000000D03*
%TO.N,unconnected-(U2-D9{slash}GPIO9-Pad21)*%
X65750000Y-30000000D03*
%TO.N,/FSYNC1*%
X63210000Y-30000000D03*
%TO.N,/EN_B1*%
X60670000Y-30000000D03*
%TO.N,/EN_A1*%
X58130000Y-30000000D03*
%TO.N,/EN_E1*%
X55590000Y-30000000D03*
%TO.N,/Vbus_5V*%
X53050000Y-30000000D03*
%TO.N,unconnected-(U2-ENABLE-Pad27)*%
X50510000Y-30000000D03*
%TO.N,unconnected-(U2-VBat-Pad28)*%
X47970000Y-30000000D03*
%TD*%
D11*
%TO.N,GND*%
%TO.C,REF5*%
X66640000Y-61640000D03*
%TD*%
%TO.N,GND*%
%TO.C,REF4*%
X73500000Y-129400000D03*
%TD*%
%TO.N,Net-(AMPIOUT1-Pad1)*%
%TO.C,AMPIOUT1*%
X73440000Y-124142000D03*
%TD*%
%TO.N,/SCLK*%
%TO.C,SCLK1*%
X82090000Y-61750000D03*
%TD*%
%TO.N,GND*%
%TO.C,REF2*%
X142000000Y-63200000D03*
%TD*%
D12*
%TO.N,/DDS2_IOUT*%
%TO.C,DDSOUT2*%
X123550000Y-85100000D03*
%TD*%
D11*
%TO.N,/FSYNC1*%
%TO.C,FSYNC1*%
X76050000Y-61750000D03*
%TD*%
%TO.N,Net-(AMPIOUT2-Pad1)*%
%TO.C,AMPIOUT2*%
X142000000Y-74750000D03*
%TD*%
%TO.N,/RESET*%
%TO.C,RESET1*%
X94170000Y-61750000D03*
%TD*%
%TO.N,/FSYNC2*%
%TO.C,FSYNC2*%
X106250000Y-61750000D03*
%TD*%
%TO.N,GND*%
%TO.C,REF3*%
X85200000Y-102900000D03*
%TD*%
D12*
%TO.N,/DDS1_IOUTB*%
%TO.C,DDSIOUT1*%
X74775000Y-101450000D03*
%TD*%
D11*
%TO.N,/SDATA*%
%TO.C,SDATA1*%
X88130000Y-61750000D03*
%TD*%
%TO.N,/PSEL*%
%TO.C,TP1*%
X100300000Y-61750000D03*
%TD*%
D13*
%TO.N,unconnected-(U1-MH1-Pad6)*%
%TO.C,U1*%
X139150000Y-135350000D03*
%TO.N,unconnected-(U1-MH2-Pad7)*%
X150850000Y-135350000D03*
D14*
%TO.N,/EN_A1*%
X142500000Y-136600000D03*
D15*
%TO.N,/EN_B1*%
X147500000Y-136600000D03*
%TO.N,GND*%
X145000000Y-136600000D03*
X142500000Y-134100000D03*
%TO.N,/EN_E1*%
X147500000Y-134100000D03*
%TD*%
D12*
%TO.N,/DDS2_IOUTB*%
%TO.C,DDSIOUT2*%
X114400000Y-74850000D03*
%TD*%
D11*
%TO.N,GND*%
%TO.C,REF1*%
X113400000Y-69000000D03*
%TD*%
D12*
%TO.N,/DDS1_IOUT*%
%TO.C,DDSOUT1*%
X67750000Y-101450000D03*
%TD*%
D16*
%TO.N,GND*%
X78850000Y-120100000D03*
X139800000Y-92100000D03*
X81700000Y-138500000D03*
X148500000Y-43500000D03*
X125700000Y-91300000D03*
X80000000Y-63800000D03*
X66800000Y-124198000D03*
X119700000Y-82500000D03*
X69550000Y-93200000D03*
X50100000Y-124448000D03*
X125742000Y-79885000D03*
X47700000Y-33100000D03*
X64100000Y-134900000D03*
X98300000Y-63800000D03*
X60000000Y-93000000D03*
X141650000Y-97900000D03*
X75000000Y-98688000D03*
X137500000Y-131000000D03*
X45460000Y-52440000D03*
X105787549Y-137072080D03*
X62250000Y-105750000D03*
X124287549Y-134872080D03*
X72900000Y-90500000D03*
X38300000Y-134800000D03*
X110930000Y-139140000D03*
X132690000Y-138940000D03*
X88600000Y-94900000D03*
X67150000Y-137000000D03*
X90900000Y-78500000D03*
X36700000Y-138150000D03*
X111500000Y-67100000D03*
X122600000Y-82500000D03*
X59800000Y-48000000D03*
X64100000Y-33071429D03*
X76000000Y-89700000D03*
X40600000Y-112200000D03*
X108350000Y-108400000D03*
X149500000Y-131000000D03*
X57600000Y-124448000D03*
X121100000Y-82500000D03*
X112450000Y-76150000D03*
X55550000Y-137150000D03*
X60000000Y-33082857D03*
X139600000Y-100300000D03*
X92100000Y-63800000D03*
X105150000Y-114800000D03*
X76000000Y-90500000D03*
X43600000Y-33077143D03*
X102910000Y-114190000D03*
X89500000Y-138500000D03*
X99000000Y-84100000D03*
X55550000Y-138250000D03*
X45250000Y-134800000D03*
X111750000Y-84000000D03*
X116750000Y-114250000D03*
X141600000Y-79000000D03*
X105787549Y-138222080D03*
X120400000Y-92100000D03*
X106160000Y-86600000D03*
X112050000Y-121050000D03*
X99000000Y-79100000D03*
X65950000Y-124198000D03*
X71400000Y-127500000D03*
X55000000Y-112500000D03*
X140100000Y-108200000D03*
X47800000Y-122500000D03*
X57150000Y-134900000D03*
X115400000Y-71000000D03*
X33000000Y-68200000D03*
X51500000Y-123750000D03*
X99600000Y-85500000D03*
X102787549Y-134872080D03*
X80250000Y-74500000D03*
X141600000Y-90650000D03*
X99000000Y-81400000D03*
X139600000Y-84100000D03*
X48250000Y-137000000D03*
X58450000Y-124448000D03*
X125787549Y-137072080D03*
X130000000Y-90500000D03*
X75850000Y-98688000D03*
X139900000Y-104200000D03*
X144000000Y-65200000D03*
X141650000Y-98750000D03*
X104400000Y-63800000D03*
X39852000Y-122650000D03*
X127500000Y-104500000D03*
X155000000Y-114500000D03*
X99650000Y-100500000D03*
X68000000Y-48000000D03*
X43400000Y-114400000D03*
X89200000Y-93500000D03*
X141300000Y-100300000D03*
X119450000Y-75500000D03*
X129180000Y-138920000D03*
X32710000Y-138660000D03*
X81050000Y-98688000D03*
X69650000Y-124148000D03*
X89200000Y-88300000D03*
X143000000Y-131000000D03*
X62100000Y-109900000D03*
X51500000Y-122500000D03*
X85500000Y-113000000D03*
X127550000Y-92800000D03*
X80200000Y-98688000D03*
X92000000Y-80200000D03*
X51600000Y-48000000D03*
X64650000Y-107838000D03*
X141000000Y-88300000D03*
X75500000Y-131500000D03*
X122787549Y-134872080D03*
X141600000Y-105850000D03*
X63900000Y-48000000D03*
X44060000Y-52440000D03*
X97000000Y-108500000D03*
X40600000Y-124600000D03*
X130100000Y-77700000D03*
X67800000Y-124500000D03*
X141300000Y-96200000D03*
X141000000Y-108200000D03*
X56250000Y-123750000D03*
X39650000Y-134800000D03*
X111750000Y-84800000D03*
X114237549Y-137122080D03*
X49770000Y-33060000D03*
X97187549Y-134872080D03*
X102890000Y-113400000D03*
X131400000Y-108300000D03*
X43400000Y-113300000D03*
X66600000Y-104912000D03*
X83200000Y-101000000D03*
X121250000Y-92100000D03*
X58500000Y-134900000D03*
X110300000Y-83200000D03*
X80000000Y-108250000D03*
X114237549Y-138222080D03*
X108270000Y-139170000D03*
X89200000Y-90600000D03*
X75650000Y-121350000D03*
X127550000Y-93650000D03*
X63800000Y-107838000D03*
X78000000Y-63800000D03*
X46860000Y-52440000D03*
X88700000Y-91600000D03*
X115837549Y-134872080D03*
X121550000Y-80150000D03*
X94237549Y-138222080D03*
X36700000Y-137050000D03*
X124150000Y-81750000D03*
X67450000Y-104912000D03*
X109500000Y-87600000D03*
X140200000Y-61300000D03*
X117187549Y-134872080D03*
X57500000Y-107500000D03*
X123300000Y-81750000D03*
X78450000Y-98738000D03*
X66100000Y-104200000D03*
X64500000Y-123600000D03*
X60000000Y-122500000D03*
X105250000Y-95050000D03*
X46750000Y-134800000D03*
X68500000Y-63500000D03*
X88700000Y-89000000D03*
X89150000Y-74010000D03*
X47800000Y-123700000D03*
X75800000Y-82200000D03*
X112900000Y-121050000D03*
X78710000Y-87900000D03*
X107250000Y-76100000D03*
X78100000Y-88500000D03*
X130600000Y-106650000D03*
X69400000Y-92200000D03*
X109500000Y-84700000D03*
X141650000Y-82700000D03*
X73900000Y-138500000D03*
X85500000Y-124000000D03*
X139900000Y-88300000D03*
X94237549Y-137122080D03*
X140900000Y-104300000D03*
X136500000Y-37000000D03*
X67150000Y-138200000D03*
X52040000Y-138880000D03*
X131500000Y-104400000D03*
X77600000Y-98738000D03*
X64500000Y-108862000D03*
X64200000Y-92700000D03*
X47500000Y-48000000D03*
X132500000Y-104400000D03*
X141600000Y-106700000D03*
X33000000Y-90700000D03*
X141100000Y-84100000D03*
X60000000Y-123750000D03*
X81798000Y-106000000D03*
X62250000Y-107250000D03*
X81000000Y-104500000D03*
X49250000Y-124448000D03*
X155000000Y-125000000D03*
X68200000Y-33094286D03*
X130000000Y-98000000D03*
X141650000Y-81850000D03*
X139100000Y-71825000D03*
X71400000Y-126100000D03*
X81798000Y-106850000D03*
X80000000Y-104500000D03*
X78100000Y-86800000D03*
X126200000Y-95200000D03*
X86100000Y-63800000D03*
X64600000Y-122200000D03*
X141100000Y-92100000D03*
X139700000Y-96200000D03*
X119450000Y-74650000D03*
X109750000Y-76150000D03*
X68050000Y-108200000D03*
X70400000Y-93200000D03*
X70600000Y-92200000D03*
X78100000Y-90500000D03*
X48250000Y-138150000D03*
X39912000Y-114430000D03*
X50500000Y-107500000D03*
X60525000Y-110150000D03*
X57470000Y-33065714D03*
X68050000Y-108850000D03*
X76400000Y-86800000D03*
X141600000Y-89800000D03*
X65100000Y-124600000D03*
X104287549Y-134872080D03*
X42100000Y-124700000D03*
X129500000Y-67000000D03*
X65000000Y-92700000D03*
X97000000Y-124000000D03*
X62500000Y-89500000D03*
X63462000Y-95000000D03*
X39912000Y-113580000D03*
X81000000Y-108250000D03*
X76500000Y-121350000D03*
X48000000Y-112500000D03*
X39500000Y-33088571D03*
X95837549Y-134872080D03*
X121550000Y-81000000D03*
X46200000Y-48000000D03*
X76400000Y-88500000D03*
X81600000Y-87900000D03*
X87200000Y-104800000D03*
X39300000Y-48000000D03*
X130600000Y-105800000D03*
X116750000Y-115100000D03*
X136500000Y-28000000D03*
X33000000Y-98500000D03*
X73700000Y-121350000D03*
X33000000Y-76000000D03*
X64800000Y-59800000D03*
X72850000Y-121350000D03*
X33000000Y-60400000D03*
X135500000Y-58000000D03*
X99600000Y-79900000D03*
X111500000Y-83200000D03*
X139100000Y-72675000D03*
X63462000Y-94150000D03*
X126392000Y-79885000D03*
X56250000Y-122500000D03*
X127300000Y-85500000D03*
X108800000Y-112150000D03*
X63650000Y-108862000D03*
X39852000Y-123500000D03*
X114850000Y-84000000D03*
X55700000Y-48000000D03*
X139100000Y-75575000D03*
X108350000Y-109250000D03*
X128150000Y-85500000D03*
X127000000Y-91300000D03*
X125400000Y-83300000D03*
X74650000Y-77300000D03*
X90800000Y-79600000D03*
X65600000Y-134900000D03*
X122500000Y-67000000D03*
X68800000Y-124148000D03*
X43400000Y-48000000D03*
X99600000Y-82700000D03*
X104300000Y-114800000D03*
X109050000Y-86600000D03*
X139100000Y-74725000D03*
X78850000Y-120950000D03*
X44800000Y-48000000D03*
X110300000Y-86000000D03*
X141600000Y-79850000D03*
X125787549Y-138222080D03*
X60000000Y-98500000D03*
X78850000Y-119200000D03*
X89200000Y-73200000D03*
X33000000Y-82900000D03*
X105250000Y-97800000D03*
X42000000Y-112200000D03*
X74650000Y-80000000D03*
X67300000Y-104200000D03*
X79800000Y-72700000D03*
X132200000Y-108300000D03*
X125500000Y-80800000D03*
D17*
%TO.N,/3.3V*%
X40340000Y-52800000D03*
X41790000Y-52360000D03*
X95250000Y-73230000D03*
D16*
X99500000Y-76400000D03*
X88600000Y-96800000D03*
X84120000Y-93200000D03*
D17*
X38940000Y-52460000D03*
D16*
X99510000Y-77450000D03*
X88600000Y-98100000D03*
%TO.N,/PSEL*%
X99000000Y-95000000D03*
%TO.N,/RESET*%
X74400000Y-84800000D03*
X113350000Y-89650000D03*
%TO.N,/SDATA*%
X115600000Y-85750000D03*
X72400000Y-87200000D03*
%TO.N,/SCLK*%
X114900000Y-86550000D03*
X71100000Y-87600000D03*
%TO.N,/FSYNC2*%
X111850000Y-85950000D03*
D17*
%TO.N,/4.5V*%
X115950000Y-110000000D03*
X74600000Y-115700000D03*
X63100000Y-114650000D03*
X76600000Y-115710000D03*
X133343000Y-72400000D03*
X117110000Y-111390000D03*
X133433000Y-73790000D03*
X64200000Y-114650000D03*
X114600000Y-110000000D03*
X132150000Y-83990000D03*
X131050000Y-85600000D03*
D16*
%TO.N,/FSYNC1*%
X72400000Y-88600000D03*
X63200000Y-31600000D03*
D17*
%TO.N,/Vbus_5V*%
X52250000Y-31400000D03*
X103950000Y-109050000D03*
X53800000Y-31450000D03*
X105450000Y-109050000D03*
D16*
%TO.N,Net-(U3-FSELECT)*%
X81700000Y-86600000D03*
X80450000Y-77150000D03*
%TO.N,/3.3V*%
X104000000Y-81300000D03*
%TD*%
%TA.AperFunction,Conductor*%
%TO.N,GND*%
G36*
X159442539Y-20520185D02*
G01*
X159488294Y-20572989D01*
X159499500Y-20624500D01*
X159499500Y-139375500D01*
X159479815Y-139442539D01*
X159427011Y-139488294D01*
X159375500Y-139499500D01*
X30624500Y-139499500D01*
X30557461Y-139479815D01*
X30511706Y-139427011D01*
X30500500Y-139375500D01*
X30500500Y-135205218D01*
X136572000Y-135205218D01*
X136572000Y-135494781D01*
X136604418Y-135782498D01*
X136604419Y-135782507D01*
X136604420Y-135782511D01*
X136620528Y-135853084D01*
X136668852Y-136064809D01*
X136668855Y-136064817D01*
X136764487Y-136338115D01*
X136890117Y-136598989D01*
X136890119Y-136598992D01*
X137044171Y-136844165D01*
X137224706Y-137070548D01*
X137429452Y-137275294D01*
X137655835Y-137455829D01*
X137901008Y-137609881D01*
X138161888Y-137735514D01*
X138367146Y-137807337D01*
X138435182Y-137831144D01*
X138435190Y-137831147D01*
X138435193Y-137831147D01*
X138435194Y-137831148D01*
X138717489Y-137895580D01*
X139005219Y-137927999D01*
X139005220Y-137928000D01*
X139005223Y-137928000D01*
X139294780Y-137928000D01*
X139294780Y-137927999D01*
X139582511Y-137895580D01*
X139864806Y-137831148D01*
X140138112Y-137735514D01*
X140398992Y-137609881D01*
X140644165Y-137455829D01*
X140870548Y-137275294D01*
X140962822Y-137183019D01*
X141024141Y-137149537D01*
X141093833Y-137154521D01*
X141149767Y-137196392D01*
X141174184Y-137261856D01*
X141174500Y-137270702D01*
X141174500Y-137472869D01*
X141174501Y-137472876D01*
X141180908Y-137532483D01*
X141231202Y-137667328D01*
X141231206Y-137667335D01*
X141317452Y-137782544D01*
X141317455Y-137782547D01*
X141432664Y-137868793D01*
X141432671Y-137868797D01*
X141567517Y-137919091D01*
X141567516Y-137919091D01*
X141574444Y-137919835D01*
X141627127Y-137925500D01*
X143372872Y-137925499D01*
X143432483Y-137919091D01*
X143567331Y-137868796D01*
X143682546Y-137782546D01*
X143768796Y-137667331D01*
X143819091Y-137532483D01*
X143825500Y-137472873D01*
X143825499Y-137457496D01*
X143828796Y-137443489D01*
X143839224Y-137425134D01*
X143845168Y-137404876D01*
X143856139Y-137395364D01*
X143862367Y-137384402D01*
X143862206Y-137384241D01*
X143862793Y-137383653D01*
X143863312Y-137382741D01*
X143864140Y-137382306D01*
X144476212Y-136770234D01*
X144487482Y-136812292D01*
X144559890Y-136937708D01*
X144662292Y-137040110D01*
X144787708Y-137112518D01*
X144829765Y-137123787D01*
X144256179Y-137697371D01*
X144256180Y-137697372D01*
X144305543Y-137733236D01*
X144305556Y-137733244D01*
X144491372Y-137827924D01*
X144689727Y-137892373D01*
X144895721Y-137925000D01*
X145104279Y-137925000D01*
X145310272Y-137892373D01*
X145508627Y-137827924D01*
X145694451Y-137733240D01*
X145743818Y-137697372D01*
X145743818Y-137697371D01*
X145170234Y-137123787D01*
X145212292Y-137112518D01*
X145337708Y-137040110D01*
X145440110Y-136937708D01*
X145512518Y-136812292D01*
X145523787Y-136770234D01*
X146097371Y-137343818D01*
X146097372Y-137343818D01*
X146133241Y-137294449D01*
X146139231Y-137282694D01*
X146187203Y-137231896D01*
X146255023Y-137215098D01*
X146321159Y-137237632D01*
X146360203Y-137282689D01*
X146366330Y-137294714D01*
X146488965Y-137463505D01*
X146636495Y-137611035D01*
X146805286Y-137733670D01*
X146893116Y-137778421D01*
X146991179Y-137828387D01*
X146991181Y-137828387D01*
X146991184Y-137828389D01*
X147097545Y-137862948D01*
X147189610Y-137892862D01*
X147395676Y-137925500D01*
X147395681Y-137925500D01*
X147604324Y-137925500D01*
X147810389Y-137892862D01*
X147811894Y-137892373D01*
X148008816Y-137828389D01*
X148194714Y-137733670D01*
X148363505Y-137611035D01*
X148511035Y-137463505D01*
X148633670Y-137294714D01*
X148728389Y-137108816D01*
X148728390Y-137108812D01*
X148730087Y-137105482D01*
X148778061Y-137054686D01*
X148845882Y-137037890D01*
X148912017Y-137060427D01*
X148928253Y-137074095D01*
X149129452Y-137275294D01*
X149355835Y-137455829D01*
X149601008Y-137609881D01*
X149861888Y-137735514D01*
X150067146Y-137807337D01*
X150135182Y-137831144D01*
X150135190Y-137831147D01*
X150135193Y-137831147D01*
X150135194Y-137831148D01*
X150417489Y-137895580D01*
X150705219Y-137927999D01*
X150705220Y-137928000D01*
X150705223Y-137928000D01*
X150994780Y-137928000D01*
X150994780Y-137927999D01*
X151282511Y-137895580D01*
X151564806Y-137831148D01*
X151838112Y-137735514D01*
X152098992Y-137609881D01*
X152344165Y-137455829D01*
X152570548Y-137275294D01*
X152775294Y-137070548D01*
X152955829Y-136844165D01*
X153109881Y-136598992D01*
X153235514Y-136338112D01*
X153331148Y-136064806D01*
X153395580Y-135782511D01*
X153428000Y-135494777D01*
X153428000Y-135205223D01*
X153395580Y-134917489D01*
X153331148Y-134635194D01*
X153235514Y-134361888D01*
X153109881Y-134101008D01*
X152955829Y-133855835D01*
X152775294Y-133629452D01*
X152570548Y-133424706D01*
X152546533Y-133405555D01*
X152484618Y-133356179D01*
X152344165Y-133244171D01*
X152098992Y-133090119D01*
X152098989Y-133090117D01*
X151838115Y-132964487D01*
X151564817Y-132868855D01*
X151564809Y-132868852D01*
X151294419Y-132807138D01*
X151282511Y-132804420D01*
X151282507Y-132804419D01*
X151282498Y-132804418D01*
X150994781Y-132772000D01*
X150994777Y-132772000D01*
X150705223Y-132772000D01*
X150705218Y-132772000D01*
X150417501Y-132804418D01*
X150417489Y-132804420D01*
X150135190Y-132868852D01*
X150135182Y-132868855D01*
X149861884Y-132964487D01*
X149601010Y-133090117D01*
X149355836Y-133244170D01*
X149129452Y-133424705D01*
X148928253Y-133625904D01*
X148866930Y-133659389D01*
X148797238Y-133654405D01*
X148741305Y-133612533D01*
X148730087Y-133594517D01*
X148633671Y-133405287D01*
X148592791Y-133349022D01*
X148511035Y-133236495D01*
X148363505Y-133088965D01*
X148194714Y-132966330D01*
X148191095Y-132964486D01*
X148008820Y-132871612D01*
X147810389Y-132807137D01*
X147604324Y-132774500D01*
X147604319Y-132774500D01*
X147395681Y-132774500D01*
X147395676Y-132774500D01*
X147189610Y-132807137D01*
X146991179Y-132871612D01*
X146805285Y-132966330D01*
X146636493Y-133088966D01*
X146488966Y-133236493D01*
X146366330Y-133405285D01*
X146271612Y-133591179D01*
X146207137Y-133789610D01*
X146174500Y-133995675D01*
X146174500Y-134204324D01*
X146207137Y-134410389D01*
X146271612Y-134608820D01*
X146366196Y-134794451D01*
X146366330Y-134794714D01*
X146488965Y-134963505D01*
X146636495Y-135111035D01*
X146805286Y-135233670D01*
X146813378Y-135237793D01*
X146816759Y-135239516D01*
X146867554Y-135287492D01*
X146884348Y-135355313D01*
X146861809Y-135421447D01*
X146816759Y-135460484D01*
X146805286Y-135466330D01*
X146636493Y-135588966D01*
X146488966Y-135736493D01*
X146366328Y-135905288D01*
X146360201Y-135917313D01*
X146312225Y-135968108D01*
X146244404Y-135984901D01*
X146178270Y-135962362D01*
X146139232Y-135917308D01*
X146133244Y-135905555D01*
X146133236Y-135905543D01*
X146097372Y-135856180D01*
X146097371Y-135856179D01*
X145523787Y-136429764D01*
X145512518Y-136387708D01*
X145440110Y-136262292D01*
X145337708Y-136159890D01*
X145212292Y-136087482D01*
X145170233Y-136076212D01*
X145743819Y-135502627D01*
X145694451Y-135466759D01*
X145508627Y-135372075D01*
X145310272Y-135307626D01*
X145104279Y-135275000D01*
X144895721Y-135275000D01*
X144689727Y-135307626D01*
X144491372Y-135372075D01*
X144305552Y-135466757D01*
X144256180Y-135502627D01*
X144829766Y-136076212D01*
X144787708Y-136087482D01*
X144662292Y-136159890D01*
X144559890Y-136262292D01*
X144487482Y-136387708D01*
X144476212Y-136429765D01*
X143862205Y-135815758D01*
X143865547Y-135812415D01*
X143841023Y-135788182D01*
X143828796Y-135756510D01*
X143825499Y-135742498D01*
X143825499Y-135727128D01*
X143819091Y-135667517D01*
X143768796Y-135532669D01*
X143768795Y-135532668D01*
X143768793Y-135532664D01*
X143682547Y-135417455D01*
X143682544Y-135417452D01*
X143567335Y-135331206D01*
X143567328Y-135331202D01*
X143432482Y-135280908D01*
X143432483Y-135280908D01*
X143372883Y-135274501D01*
X143372881Y-135274500D01*
X143372873Y-135274500D01*
X143372865Y-135274500D01*
X143371890Y-135274500D01*
X143371672Y-135274435D01*
X143369548Y-135274322D01*
X143369574Y-135273820D01*
X143304851Y-135254815D01*
X143287380Y-135234652D01*
X143284240Y-135237793D01*
X142670233Y-134623787D01*
X142712292Y-134612518D01*
X142837708Y-134540110D01*
X142940110Y-134437708D01*
X143012518Y-134312292D01*
X143023787Y-134270234D01*
X143597371Y-134843818D01*
X143597372Y-134843818D01*
X143633240Y-134794451D01*
X143727924Y-134608627D01*
X143792373Y-134410272D01*
X143825000Y-134204279D01*
X143825000Y-133995720D01*
X143792373Y-133789727D01*
X143727924Y-133591372D01*
X143633244Y-133405556D01*
X143633236Y-133405543D01*
X143597372Y-133356180D01*
X143597371Y-133356179D01*
X143023787Y-133929764D01*
X143012518Y-133887708D01*
X142940110Y-133762292D01*
X142837708Y-133659890D01*
X142712292Y-133587482D01*
X142670233Y-133576212D01*
X143243819Y-133002627D01*
X143194451Y-132966759D01*
X143008627Y-132872075D01*
X142810272Y-132807626D01*
X142604279Y-132775000D01*
X142395721Y-132775000D01*
X142189727Y-132807626D01*
X141991372Y-132872075D01*
X141805552Y-132966757D01*
X141756180Y-133002627D01*
X142329766Y-133576212D01*
X142287708Y-133587482D01*
X142162292Y-133659890D01*
X142059890Y-133762292D01*
X141987482Y-133887708D01*
X141976212Y-133929766D01*
X141402627Y-133356180D01*
X141366755Y-133405555D01*
X141270282Y-133594890D01*
X141222307Y-133645685D01*
X141154486Y-133662480D01*
X141088351Y-133639942D01*
X141072117Y-133626275D01*
X140870547Y-133424705D01*
X140784618Y-133356179D01*
X140644165Y-133244171D01*
X140398992Y-133090119D01*
X140398989Y-133090117D01*
X140138115Y-132964487D01*
X139864817Y-132868855D01*
X139864809Y-132868852D01*
X139594419Y-132807138D01*
X139582511Y-132804420D01*
X139582507Y-132804419D01*
X139582498Y-132804418D01*
X139294781Y-132772000D01*
X139294777Y-132772000D01*
X139005223Y-132772000D01*
X139005218Y-132772000D01*
X138717501Y-132804418D01*
X138717489Y-132804420D01*
X138435190Y-132868852D01*
X138435182Y-132868855D01*
X138161884Y-132964487D01*
X137901010Y-133090117D01*
X137655836Y-133244170D01*
X137429452Y-133424705D01*
X137224705Y-133629452D01*
X137044170Y-133855836D01*
X136890117Y-134101010D01*
X136764487Y-134361884D01*
X136668855Y-134635182D01*
X136668852Y-134635190D01*
X136604420Y-134917489D01*
X136604418Y-134917501D01*
X136572000Y-135205218D01*
X30500500Y-135205218D01*
X30500500Y-129288575D01*
X71800000Y-129288575D01*
X71800000Y-129511424D01*
X71829085Y-129732354D01*
X71829088Y-129732367D01*
X71886763Y-129947618D01*
X71972045Y-130153502D01*
X71972054Y-130153520D01*
X72083464Y-130346491D01*
X72083473Y-130346504D01*
X72134040Y-130412403D01*
X72134043Y-130412403D01*
X72784152Y-129762293D01*
X72791049Y-129778942D01*
X72878599Y-129909970D01*
X72990030Y-130021401D01*
X73121058Y-130108951D01*
X73137705Y-130115846D01*
X72487595Y-130765955D01*
X72487595Y-130765956D01*
X72553507Y-130816533D01*
X72746485Y-130927949D01*
X72746497Y-130927954D01*
X72952381Y-131013236D01*
X73167632Y-131070911D01*
X73167645Y-131070914D01*
X73388575Y-131100000D01*
X73611425Y-131100000D01*
X73832354Y-131070914D01*
X73832367Y-131070911D01*
X74047618Y-131013236D01*
X74253502Y-130927954D01*
X74253514Y-130927949D01*
X74446498Y-130816530D01*
X74512403Y-130765957D01*
X74512404Y-130765956D01*
X73862294Y-130115846D01*
X73878942Y-130108951D01*
X74009970Y-130021401D01*
X74121401Y-129909970D01*
X74208951Y-129778942D01*
X74215846Y-129762294D01*
X74865956Y-130412404D01*
X74865957Y-130412403D01*
X74916530Y-130346498D01*
X75027949Y-130153514D01*
X75027954Y-130153502D01*
X75113236Y-129947618D01*
X75170911Y-129732367D01*
X75170914Y-129732354D01*
X75200000Y-129511424D01*
X75200000Y-129288575D01*
X75170914Y-129067645D01*
X75170911Y-129067632D01*
X75113236Y-128852381D01*
X75027954Y-128646497D01*
X75027949Y-128646485D01*
X74916533Y-128453507D01*
X74865956Y-128387595D01*
X74865955Y-128387595D01*
X74215846Y-129037704D01*
X74208951Y-129021058D01*
X74121401Y-128890030D01*
X74009970Y-128778599D01*
X73878942Y-128691049D01*
X73862293Y-128684152D01*
X74512403Y-128034043D01*
X74512403Y-128034040D01*
X74446504Y-127983473D01*
X74446491Y-127983464D01*
X74253520Y-127872054D01*
X74253502Y-127872045D01*
X74047618Y-127786763D01*
X73832367Y-127729088D01*
X73832354Y-127729085D01*
X73611425Y-127700000D01*
X73388575Y-127700000D01*
X73167645Y-127729085D01*
X73167632Y-127729088D01*
X72952381Y-127786763D01*
X72746497Y-127872045D01*
X72746479Y-127872054D01*
X72553511Y-127983462D01*
X72487595Y-128034042D01*
X73137706Y-128684152D01*
X73121058Y-128691049D01*
X72990030Y-128778599D01*
X72878599Y-128890030D01*
X72791049Y-129021058D01*
X72784153Y-129037706D01*
X72134042Y-128387595D01*
X72083462Y-128453511D01*
X71972054Y-128646479D01*
X71972045Y-128646497D01*
X71886763Y-128852381D01*
X71829088Y-129067632D01*
X71829085Y-129067645D01*
X71800000Y-129288575D01*
X30500500Y-129288575D01*
X30500500Y-124030549D01*
X71739500Y-124030549D01*
X71739500Y-124253450D01*
X71739501Y-124253466D01*
X71768594Y-124474452D01*
X71768595Y-124474457D01*
X71768596Y-124474463D01*
X71768597Y-124474465D01*
X71826290Y-124689780D01*
X71826293Y-124689790D01*
X71911593Y-124895722D01*
X71911595Y-124895726D01*
X72023052Y-125088774D01*
X72023057Y-125088780D01*
X72023058Y-125088782D01*
X72158751Y-125265622D01*
X72158757Y-125265629D01*
X72316370Y-125423242D01*
X72316376Y-125423247D01*
X72493226Y-125558948D01*
X72686274Y-125670405D01*
X72892219Y-125755710D01*
X73107537Y-125813404D01*
X73328543Y-125842500D01*
X73328550Y-125842500D01*
X73551450Y-125842500D01*
X73551457Y-125842500D01*
X73772463Y-125813404D01*
X73987781Y-125755710D01*
X74193726Y-125670405D01*
X74386774Y-125558948D01*
X74563624Y-125423247D01*
X74721247Y-125265624D01*
X74856948Y-125088774D01*
X74968405Y-124895726D01*
X75053710Y-124689781D01*
X75111404Y-124474463D01*
X75140500Y-124253457D01*
X75140500Y-124030543D01*
X75111404Y-123809537D01*
X75053710Y-123594219D01*
X74968405Y-123388274D01*
X74856948Y-123195226D01*
X74721247Y-123018376D01*
X74721242Y-123018370D01*
X74563629Y-122860757D01*
X74563622Y-122860751D01*
X74386782Y-122725058D01*
X74386780Y-122725057D01*
X74386774Y-122725052D01*
X74193726Y-122613595D01*
X74193722Y-122613593D01*
X73987790Y-122528293D01*
X73987783Y-122528291D01*
X73987781Y-122528290D01*
X73772463Y-122470596D01*
X73772457Y-122470595D01*
X73772452Y-122470594D01*
X73551466Y-122441501D01*
X73551463Y-122441500D01*
X73551457Y-122441500D01*
X73328543Y-122441500D01*
X73328537Y-122441500D01*
X73328533Y-122441501D01*
X73107547Y-122470594D01*
X73107540Y-122470595D01*
X73107537Y-122470596D01*
X72892219Y-122528290D01*
X72892209Y-122528293D01*
X72686277Y-122613593D01*
X72686273Y-122613595D01*
X72493226Y-122725052D01*
X72493217Y-122725058D01*
X72316377Y-122860751D01*
X72316370Y-122860757D01*
X72158757Y-123018370D01*
X72158751Y-123018377D01*
X72023058Y-123195217D01*
X72023052Y-123195226D01*
X71911595Y-123388273D01*
X71911593Y-123388277D01*
X71826293Y-123594209D01*
X71826290Y-123594219D01*
X71768597Y-123809534D01*
X71768594Y-123809547D01*
X71739501Y-124030533D01*
X71739500Y-124030549D01*
X30500500Y-124030549D01*
X30500500Y-115611304D01*
X73699500Y-115611304D01*
X73699500Y-115788695D01*
X73734103Y-115962658D01*
X73734106Y-115962667D01*
X73801983Y-116126540D01*
X73801990Y-116126553D01*
X73900535Y-116274034D01*
X73900538Y-116274038D01*
X74025961Y-116399461D01*
X74025965Y-116399464D01*
X74173446Y-116498009D01*
X74173459Y-116498016D01*
X74296363Y-116548923D01*
X74337334Y-116565894D01*
X74337336Y-116565894D01*
X74337341Y-116565896D01*
X74511304Y-116600499D01*
X74511307Y-116600500D01*
X74511309Y-116600500D01*
X74688693Y-116600500D01*
X74688694Y-116600499D01*
X74746682Y-116588964D01*
X74862658Y-116565896D01*
X74862661Y-116565894D01*
X74862666Y-116565894D01*
X75026547Y-116498013D01*
X75174035Y-116399464D01*
X75299464Y-116274035D01*
X75398013Y-116126547D01*
X75465894Y-115962666D01*
X75477388Y-115904880D01*
X75509772Y-115842971D01*
X75570488Y-115808397D01*
X75640257Y-115812136D01*
X75696929Y-115853002D01*
X75720622Y-115904881D01*
X75734104Y-115972659D01*
X75734106Y-115972667D01*
X75801983Y-116136540D01*
X75801990Y-116136553D01*
X75900535Y-116284034D01*
X75900538Y-116284038D01*
X76025961Y-116409461D01*
X76025965Y-116409464D01*
X76173446Y-116508009D01*
X76173459Y-116508016D01*
X76296363Y-116558923D01*
X76337334Y-116575894D01*
X76337336Y-116575894D01*
X76337341Y-116575896D01*
X76511304Y-116610499D01*
X76511307Y-116610500D01*
X76511309Y-116610500D01*
X76688693Y-116610500D01*
X76688694Y-116610499D01*
X76746682Y-116598964D01*
X76862658Y-116575896D01*
X76862661Y-116575894D01*
X76862666Y-116575894D01*
X77026547Y-116508013D01*
X77174035Y-116409464D01*
X77299464Y-116284035D01*
X77398013Y-116136547D01*
X77465894Y-115972666D01*
X77465894Y-115972661D01*
X77465896Y-115972658D01*
X77491692Y-115842971D01*
X77500500Y-115798691D01*
X77500500Y-115621309D01*
X77500500Y-115621306D01*
X77500499Y-115621304D01*
X77465896Y-115447341D01*
X77465893Y-115447332D01*
X77398016Y-115283459D01*
X77398009Y-115283446D01*
X77299464Y-115135965D01*
X77299461Y-115135961D01*
X77174038Y-115010538D01*
X77174034Y-115010535D01*
X77026553Y-114911990D01*
X77026540Y-114911983D01*
X76862667Y-114844106D01*
X76862658Y-114844103D01*
X76688694Y-114809500D01*
X76688691Y-114809500D01*
X76511309Y-114809500D01*
X76511306Y-114809500D01*
X76337341Y-114844103D01*
X76337332Y-114844106D01*
X76173459Y-114911983D01*
X76173446Y-114911990D01*
X76025965Y-115010535D01*
X76025961Y-115010538D01*
X75900538Y-115135961D01*
X75900535Y-115135965D01*
X75801990Y-115283446D01*
X75801983Y-115283459D01*
X75734106Y-115447332D01*
X75734104Y-115447338D01*
X75722611Y-115505119D01*
X75690225Y-115567029D01*
X75629509Y-115601603D01*
X75559740Y-115597862D01*
X75503068Y-115556995D01*
X75479377Y-115505117D01*
X75476500Y-115490656D01*
X75465894Y-115437334D01*
X75436149Y-115365523D01*
X75398016Y-115273459D01*
X75398009Y-115273446D01*
X75299464Y-115125965D01*
X75299461Y-115125961D01*
X75174038Y-115000538D01*
X75174034Y-115000535D01*
X75026553Y-114901990D01*
X75026540Y-114901983D01*
X74862667Y-114834106D01*
X74862658Y-114834103D01*
X74688694Y-114799500D01*
X74688691Y-114799500D01*
X74511309Y-114799500D01*
X74511306Y-114799500D01*
X74337341Y-114834103D01*
X74337332Y-114834106D01*
X74173459Y-114901983D01*
X74173446Y-114901990D01*
X74025965Y-115000535D01*
X74025961Y-115000538D01*
X73900538Y-115125961D01*
X73900535Y-115125965D01*
X73801990Y-115273446D01*
X73801983Y-115273459D01*
X73734106Y-115437332D01*
X73734103Y-115437341D01*
X73699500Y-115611304D01*
X30500500Y-115611304D01*
X30500500Y-114561304D01*
X62199500Y-114561304D01*
X62199500Y-114738695D01*
X62234103Y-114912658D01*
X62234106Y-114912667D01*
X62301983Y-115076540D01*
X62301990Y-115076553D01*
X62400535Y-115224034D01*
X62400538Y-115224038D01*
X62525961Y-115349461D01*
X62525965Y-115349464D01*
X62673446Y-115448009D01*
X62673459Y-115448016D01*
X62776403Y-115490656D01*
X62837334Y-115515894D01*
X62837336Y-115515894D01*
X62837341Y-115515896D01*
X63011304Y-115550499D01*
X63011307Y-115550500D01*
X63011309Y-115550500D01*
X63188693Y-115550500D01*
X63188694Y-115550499D01*
X63246682Y-115538964D01*
X63362658Y-115515896D01*
X63362661Y-115515894D01*
X63362666Y-115515894D01*
X63526547Y-115448013D01*
X63581109Y-115411554D01*
X63647786Y-115390677D01*
X63715166Y-115409161D01*
X63718881Y-115411548D01*
X63773453Y-115448013D01*
X63773456Y-115448014D01*
X63773457Y-115448015D01*
X63876403Y-115490656D01*
X63937334Y-115515894D01*
X63937336Y-115515894D01*
X63937341Y-115515896D01*
X64111304Y-115550499D01*
X64111307Y-115550500D01*
X64111309Y-115550500D01*
X64288693Y-115550500D01*
X64288694Y-115550499D01*
X64346682Y-115538964D01*
X64462658Y-115515896D01*
X64462661Y-115515894D01*
X64462666Y-115515894D01*
X64626547Y-115448013D01*
X64774035Y-115349464D01*
X64899464Y-115224035D01*
X64998013Y-115076547D01*
X65065894Y-114912666D01*
X65066029Y-114911990D01*
X65100499Y-114738695D01*
X65100500Y-114738693D01*
X65100500Y-114561306D01*
X65100499Y-114561304D01*
X65065896Y-114387341D01*
X65065893Y-114387332D01*
X64998016Y-114223459D01*
X64998009Y-114223446D01*
X64899464Y-114075965D01*
X64899461Y-114075961D01*
X64774038Y-113950538D01*
X64774034Y-113950535D01*
X64626553Y-113851990D01*
X64626540Y-113851983D01*
X64462667Y-113784106D01*
X64462658Y-113784103D01*
X64288694Y-113749500D01*
X64288691Y-113749500D01*
X64111309Y-113749500D01*
X64111306Y-113749500D01*
X63937341Y-113784103D01*
X63937332Y-113784106D01*
X63773459Y-113851983D01*
X63773448Y-113851989D01*
X63718890Y-113888444D01*
X63652213Y-113909321D01*
X63584833Y-113890836D01*
X63581110Y-113888444D01*
X63526551Y-113851989D01*
X63526540Y-113851983D01*
X63362667Y-113784106D01*
X63362658Y-113784103D01*
X63188694Y-113749500D01*
X63188691Y-113749500D01*
X63011309Y-113749500D01*
X63011306Y-113749500D01*
X62837341Y-113784103D01*
X62837332Y-113784106D01*
X62673459Y-113851983D01*
X62673446Y-113851990D01*
X62525965Y-113950535D01*
X62525961Y-113950538D01*
X62400538Y-114075961D01*
X62400535Y-114075965D01*
X62301990Y-114223446D01*
X62301983Y-114223459D01*
X62234106Y-114387332D01*
X62234103Y-114387341D01*
X62199500Y-114561304D01*
X30500500Y-114561304D01*
X30500500Y-108961304D01*
X103049500Y-108961304D01*
X103049500Y-109138695D01*
X103084103Y-109312658D01*
X103084106Y-109312667D01*
X103151983Y-109476540D01*
X103151990Y-109476553D01*
X103250535Y-109624034D01*
X103250538Y-109624038D01*
X103375961Y-109749461D01*
X103375965Y-109749464D01*
X103523446Y-109848009D01*
X103523459Y-109848016D01*
X103646363Y-109898923D01*
X103687334Y-109915894D01*
X103687336Y-109915894D01*
X103687341Y-109915896D01*
X103861304Y-109950499D01*
X103861307Y-109950500D01*
X103861309Y-109950500D01*
X104038693Y-109950500D01*
X104038694Y-109950499D01*
X104096682Y-109938964D01*
X104212658Y-109915896D01*
X104212661Y-109915894D01*
X104212666Y-109915894D01*
X104376547Y-109848013D01*
X104524035Y-109749464D01*
X104536167Y-109737332D01*
X104612319Y-109661181D01*
X104673642Y-109627696D01*
X104743334Y-109632680D01*
X104787681Y-109661181D01*
X104875961Y-109749461D01*
X104875965Y-109749464D01*
X105023446Y-109848009D01*
X105023459Y-109848016D01*
X105146363Y-109898923D01*
X105187334Y-109915894D01*
X105187336Y-109915894D01*
X105187341Y-109915896D01*
X105361304Y-109950499D01*
X105361307Y-109950500D01*
X105361309Y-109950500D01*
X105538693Y-109950500D01*
X105538694Y-109950499D01*
X105596682Y-109938964D01*
X105712658Y-109915896D01*
X105712661Y-109915894D01*
X105712666Y-109915894D01*
X105723747Y-109911304D01*
X113699500Y-109911304D01*
X113699500Y-110088695D01*
X113734103Y-110262658D01*
X113734106Y-110262667D01*
X113801983Y-110426540D01*
X113801990Y-110426553D01*
X113900535Y-110574034D01*
X113900538Y-110574038D01*
X114025961Y-110699461D01*
X114025965Y-110699464D01*
X114173446Y-110798009D01*
X114173459Y-110798016D01*
X114216793Y-110815965D01*
X114337334Y-110865894D01*
X114337336Y-110865894D01*
X114337341Y-110865896D01*
X114511304Y-110900499D01*
X114511307Y-110900500D01*
X114511309Y-110900500D01*
X114688693Y-110900500D01*
X114688694Y-110900499D01*
X114756107Y-110887090D01*
X114862658Y-110865896D01*
X114862661Y-110865894D01*
X114862666Y-110865894D01*
X115026547Y-110798013D01*
X115174035Y-110699464D01*
X115187318Y-110686180D01*
X115248638Y-110652696D01*
X115318330Y-110657678D01*
X115362681Y-110686180D01*
X115375962Y-110699461D01*
X115375966Y-110699465D01*
X115523446Y-110798009D01*
X115523459Y-110798016D01*
X115566793Y-110815965D01*
X115687334Y-110865894D01*
X115687336Y-110865894D01*
X115687341Y-110865896D01*
X115861304Y-110900499D01*
X115861307Y-110900500D01*
X115861309Y-110900500D01*
X116038693Y-110900500D01*
X116137413Y-110880863D01*
X116207005Y-110887090D01*
X116262182Y-110929953D01*
X116285427Y-110995842D01*
X116276167Y-111049931D01*
X116244105Y-111127337D01*
X116244103Y-111127341D01*
X116209500Y-111301304D01*
X116209500Y-111478695D01*
X116244103Y-111652658D01*
X116244106Y-111652667D01*
X116311983Y-111816540D01*
X116311990Y-111816553D01*
X116410535Y-111964034D01*
X116410538Y-111964038D01*
X116535961Y-112089461D01*
X116535965Y-112089464D01*
X116683446Y-112188009D01*
X116683459Y-112188016D01*
X116806363Y-112238923D01*
X116847334Y-112255894D01*
X116847336Y-112255894D01*
X116847341Y-112255896D01*
X117021304Y-112290499D01*
X117021307Y-112290500D01*
X117021309Y-112290500D01*
X117198693Y-112290500D01*
X117198694Y-112290499D01*
X117256682Y-112278964D01*
X117372658Y-112255896D01*
X117372661Y-112255894D01*
X117372666Y-112255894D01*
X117536547Y-112188013D01*
X117684035Y-112089464D01*
X117809464Y-111964035D01*
X117908013Y-111816547D01*
X117975894Y-111652666D01*
X118010500Y-111478691D01*
X118010500Y-111301309D01*
X118010500Y-111301306D01*
X118010499Y-111301304D01*
X117975896Y-111127341D01*
X117975893Y-111127332D01*
X117908016Y-110963459D01*
X117908009Y-110963446D01*
X117809464Y-110815965D01*
X117809461Y-110815961D01*
X117684038Y-110690538D01*
X117684034Y-110690535D01*
X117536553Y-110591990D01*
X117536540Y-110591983D01*
X117372667Y-110524106D01*
X117372658Y-110524103D01*
X117198694Y-110489500D01*
X117198691Y-110489500D01*
X117021309Y-110489500D01*
X116922584Y-110509137D01*
X116852993Y-110502908D01*
X116797816Y-110460045D01*
X116774572Y-110394155D01*
X116783832Y-110340071D01*
X116815894Y-110262666D01*
X116850500Y-110088691D01*
X116850500Y-109911309D01*
X116850500Y-109911306D01*
X116850499Y-109911304D01*
X116815896Y-109737341D01*
X116815893Y-109737332D01*
X116748016Y-109573459D01*
X116748009Y-109573446D01*
X116649464Y-109425965D01*
X116649461Y-109425961D01*
X116524038Y-109300538D01*
X116524034Y-109300535D01*
X116376553Y-109201990D01*
X116376540Y-109201983D01*
X116212667Y-109134106D01*
X116212658Y-109134103D01*
X116038694Y-109099500D01*
X116038691Y-109099500D01*
X115861309Y-109099500D01*
X115861306Y-109099500D01*
X115687341Y-109134103D01*
X115687332Y-109134106D01*
X115523459Y-109201983D01*
X115523446Y-109201990D01*
X115375965Y-109300535D01*
X115375961Y-109300538D01*
X115362681Y-109313819D01*
X115301358Y-109347304D01*
X115231666Y-109342320D01*
X115187319Y-109313819D01*
X115174038Y-109300538D01*
X115174034Y-109300535D01*
X115026553Y-109201990D01*
X115026540Y-109201983D01*
X114862667Y-109134106D01*
X114862658Y-109134103D01*
X114688694Y-109099500D01*
X114688691Y-109099500D01*
X114511309Y-109099500D01*
X114511306Y-109099500D01*
X114337341Y-109134103D01*
X114337332Y-109134106D01*
X114173459Y-109201983D01*
X114173446Y-109201990D01*
X114025965Y-109300535D01*
X114025961Y-109300538D01*
X113900538Y-109425961D01*
X113900535Y-109425965D01*
X113801990Y-109573446D01*
X113801983Y-109573459D01*
X113734106Y-109737332D01*
X113734103Y-109737341D01*
X113699500Y-109911304D01*
X105723747Y-109911304D01*
X105876547Y-109848013D01*
X105876553Y-109848009D01*
X105945239Y-109802115D01*
X105989092Y-109772812D01*
X106024035Y-109749464D01*
X106149464Y-109624035D01*
X106248013Y-109476547D01*
X106315894Y-109312666D01*
X106318307Y-109300538D01*
X106350499Y-109138695D01*
X106350500Y-109138693D01*
X106350500Y-108961306D01*
X106350499Y-108961304D01*
X106315896Y-108787341D01*
X106315893Y-108787332D01*
X106248016Y-108623459D01*
X106248009Y-108623446D01*
X106149464Y-108475965D01*
X106149461Y-108475961D01*
X106024038Y-108350538D01*
X106024034Y-108350535D01*
X105876553Y-108251990D01*
X105876540Y-108251983D01*
X105712667Y-108184106D01*
X105712658Y-108184103D01*
X105538694Y-108149500D01*
X105538691Y-108149500D01*
X105361309Y-108149500D01*
X105361306Y-108149500D01*
X105187341Y-108184103D01*
X105187332Y-108184106D01*
X105023459Y-108251983D01*
X105023446Y-108251990D01*
X104875965Y-108350535D01*
X104875961Y-108350538D01*
X104787681Y-108438819D01*
X104726358Y-108472304D01*
X104656666Y-108467320D01*
X104612319Y-108438819D01*
X104524038Y-108350538D01*
X104524034Y-108350535D01*
X104376553Y-108251990D01*
X104376540Y-108251983D01*
X104212667Y-108184106D01*
X104212658Y-108184103D01*
X104038694Y-108149500D01*
X104038691Y-108149500D01*
X103861309Y-108149500D01*
X103861306Y-108149500D01*
X103687341Y-108184103D01*
X103687332Y-108184106D01*
X103523459Y-108251983D01*
X103523446Y-108251990D01*
X103375965Y-108350535D01*
X103375961Y-108350538D01*
X103250538Y-108475961D01*
X103250535Y-108475965D01*
X103151990Y-108623446D01*
X103151983Y-108623459D01*
X103084106Y-108787332D01*
X103084103Y-108787341D01*
X103049500Y-108961304D01*
X30500500Y-108961304D01*
X30500500Y-101331902D01*
X66249500Y-101331902D01*
X66249500Y-101568097D01*
X66286446Y-101801368D01*
X66359433Y-102025996D01*
X66466657Y-102236433D01*
X66605483Y-102427510D01*
X66772490Y-102594517D01*
X66963567Y-102733343D01*
X67062991Y-102784002D01*
X67174003Y-102840566D01*
X67174005Y-102840566D01*
X67174008Y-102840568D01*
X67294412Y-102879689D01*
X67398631Y-102913553D01*
X67631903Y-102950500D01*
X67631908Y-102950500D01*
X67868097Y-102950500D01*
X68101368Y-102913553D01*
X68325992Y-102840568D01*
X68536433Y-102733343D01*
X68727510Y-102594517D01*
X68894517Y-102427510D01*
X69033343Y-102236433D01*
X69140568Y-102025992D01*
X69213553Y-101801368D01*
X69250500Y-101568097D01*
X69250500Y-101331902D01*
X73274500Y-101331902D01*
X73274500Y-101568097D01*
X73311446Y-101801368D01*
X73384433Y-102025996D01*
X73491657Y-102236433D01*
X73630483Y-102427510D01*
X73797490Y-102594517D01*
X73988567Y-102733343D01*
X74087991Y-102784002D01*
X74199003Y-102840566D01*
X74199005Y-102840566D01*
X74199008Y-102840568D01*
X74319412Y-102879689D01*
X74423631Y-102913553D01*
X74656903Y-102950500D01*
X74656908Y-102950500D01*
X74893097Y-102950500D01*
X75126368Y-102913553D01*
X75350992Y-102840568D01*
X75453034Y-102788575D01*
X83500000Y-102788575D01*
X83500000Y-103011424D01*
X83529085Y-103232354D01*
X83529088Y-103232367D01*
X83586763Y-103447618D01*
X83672045Y-103653502D01*
X83672054Y-103653520D01*
X83783464Y-103846491D01*
X83783473Y-103846504D01*
X83834040Y-103912403D01*
X83834043Y-103912403D01*
X84484152Y-103262293D01*
X84491049Y-103278942D01*
X84578599Y-103409970D01*
X84690030Y-103521401D01*
X84821058Y-103608951D01*
X84837705Y-103615846D01*
X84187595Y-104265955D01*
X84187595Y-104265956D01*
X84253507Y-104316533D01*
X84446485Y-104427949D01*
X84446497Y-104427954D01*
X84652381Y-104513236D01*
X84867632Y-104570911D01*
X84867645Y-104570914D01*
X85088575Y-104600000D01*
X85311425Y-104600000D01*
X85532354Y-104570914D01*
X85532367Y-104570911D01*
X85747618Y-104513236D01*
X85953502Y-104427954D01*
X85953514Y-104427949D01*
X86146498Y-104316530D01*
X86212403Y-104265957D01*
X86212404Y-104265956D01*
X85562294Y-103615846D01*
X85578942Y-103608951D01*
X85709970Y-103521401D01*
X85821401Y-103409970D01*
X85908951Y-103278942D01*
X85915846Y-103262294D01*
X86565956Y-103912404D01*
X86565957Y-103912403D01*
X86616530Y-103846498D01*
X86727949Y-103653514D01*
X86727954Y-103653502D01*
X86813236Y-103447618D01*
X86870911Y-103232367D01*
X86870914Y-103232354D01*
X86900000Y-103011424D01*
X86900000Y-102788575D01*
X86870914Y-102567645D01*
X86870911Y-102567632D01*
X86813236Y-102352381D01*
X86727954Y-102146497D01*
X86727949Y-102146485D01*
X86616533Y-101953507D01*
X86565956Y-101887595D01*
X86565955Y-101887595D01*
X85915846Y-102537704D01*
X85908951Y-102521058D01*
X85821401Y-102390030D01*
X85709970Y-102278599D01*
X85578942Y-102191049D01*
X85562293Y-102184152D01*
X86212403Y-101534043D01*
X86212403Y-101534040D01*
X86146504Y-101483473D01*
X86146491Y-101483464D01*
X85953520Y-101372054D01*
X85953502Y-101372045D01*
X85747618Y-101286763D01*
X85532367Y-101229088D01*
X85532354Y-101229085D01*
X85311425Y-101200000D01*
X85088575Y-101200000D01*
X84867645Y-101229085D01*
X84867632Y-101229088D01*
X84652381Y-101286763D01*
X84446497Y-101372045D01*
X84446479Y-101372054D01*
X84253511Y-101483462D01*
X84187595Y-101534042D01*
X84837706Y-102184152D01*
X84821058Y-102191049D01*
X84690030Y-102278599D01*
X84578599Y-102390030D01*
X84491049Y-102521058D01*
X84484153Y-102537706D01*
X83834042Y-101887595D01*
X83783462Y-101953511D01*
X83672054Y-102146479D01*
X83672045Y-102146497D01*
X83586763Y-102352381D01*
X83529088Y-102567632D01*
X83529085Y-102567645D01*
X83500000Y-102788575D01*
X75453034Y-102788575D01*
X75561433Y-102733343D01*
X75752510Y-102594517D01*
X75919517Y-102427510D01*
X76058343Y-102236433D01*
X76165568Y-102025992D01*
X76238553Y-101801368D01*
X76275499Y-101568103D01*
X76275500Y-101568091D01*
X76275500Y-101331902D01*
X76238553Y-101098631D01*
X76165566Y-100874003D01*
X76058342Y-100663566D01*
X75919517Y-100472490D01*
X75752510Y-100305483D01*
X75561433Y-100166657D01*
X75350996Y-100059433D01*
X75126368Y-99986446D01*
X74893097Y-99949500D01*
X74893092Y-99949500D01*
X74656908Y-99949500D01*
X74656903Y-99949500D01*
X74423631Y-99986446D01*
X74199003Y-100059433D01*
X73988566Y-100166657D01*
X73879550Y-100245862D01*
X73797490Y-100305483D01*
X73797488Y-100305485D01*
X73797487Y-100305485D01*
X73630485Y-100472487D01*
X73630485Y-100472488D01*
X73630483Y-100472490D01*
X73570862Y-100554550D01*
X73491657Y-100663566D01*
X73384433Y-100874003D01*
X73311446Y-101098631D01*
X73274500Y-101331902D01*
X69250500Y-101331902D01*
X69213553Y-101098631D01*
X69140566Y-100874003D01*
X69033342Y-100663566D01*
X68894517Y-100472490D01*
X68727510Y-100305483D01*
X68536433Y-100166657D01*
X68325996Y-100059433D01*
X68101368Y-99986446D01*
X67868097Y-99949500D01*
X67868092Y-99949500D01*
X67631908Y-99949500D01*
X67631903Y-99949500D01*
X67398631Y-99986446D01*
X67174003Y-100059433D01*
X66963566Y-100166657D01*
X66854550Y-100245862D01*
X66772490Y-100305483D01*
X66772488Y-100305485D01*
X66772487Y-100305485D01*
X66605485Y-100472487D01*
X66605485Y-100472488D01*
X66605483Y-100472490D01*
X66545862Y-100554550D01*
X66466657Y-100663566D01*
X66359433Y-100874003D01*
X66286446Y-101098631D01*
X66249500Y-101331902D01*
X30500500Y-101331902D01*
X30500500Y-96721153D01*
X87799500Y-96721153D01*
X87799500Y-96878846D01*
X87830261Y-97033489D01*
X87830264Y-97033501D01*
X87890602Y-97179172D01*
X87890609Y-97179185D01*
X87978210Y-97310288D01*
X87978213Y-97310292D01*
X88030240Y-97362319D01*
X88063725Y-97423642D01*
X88058741Y-97493334D01*
X88030240Y-97537681D01*
X87978213Y-97589707D01*
X87978210Y-97589711D01*
X87890609Y-97720814D01*
X87890602Y-97720827D01*
X87830264Y-97866498D01*
X87830261Y-97866510D01*
X87799500Y-98021153D01*
X87799500Y-98178846D01*
X87830261Y-98333489D01*
X87830264Y-98333501D01*
X87890602Y-98479172D01*
X87890609Y-98479185D01*
X87978210Y-98610288D01*
X87978213Y-98610292D01*
X88089707Y-98721786D01*
X88089711Y-98721789D01*
X88220814Y-98809390D01*
X88220827Y-98809397D01*
X88366498Y-98869735D01*
X88366503Y-98869737D01*
X88521153Y-98900499D01*
X88521156Y-98900500D01*
X88521158Y-98900500D01*
X88678844Y-98900500D01*
X88678845Y-98900499D01*
X88833497Y-98869737D01*
X88979179Y-98809394D01*
X89110289Y-98721789D01*
X89221789Y-98610289D01*
X89309394Y-98479179D01*
X89369737Y-98333497D01*
X89400500Y-98178842D01*
X89400500Y-98021158D01*
X89400500Y-98021155D01*
X89400499Y-98021153D01*
X89369738Y-97866510D01*
X89369737Y-97866503D01*
X89369735Y-97866498D01*
X89309397Y-97720827D01*
X89309390Y-97720814D01*
X89221789Y-97589711D01*
X89221786Y-97589707D01*
X89169760Y-97537681D01*
X89136275Y-97476358D01*
X89141259Y-97406666D01*
X89169760Y-97362319D01*
X89221786Y-97310292D01*
X89221789Y-97310289D01*
X89309394Y-97179179D01*
X89369737Y-97033497D01*
X89400500Y-96878842D01*
X89400500Y-96721158D01*
X89400500Y-96721155D01*
X89400499Y-96721153D01*
X89369738Y-96566510D01*
X89369737Y-96566503D01*
X89369735Y-96566498D01*
X89309397Y-96420827D01*
X89309390Y-96420814D01*
X89221789Y-96289711D01*
X89221786Y-96289707D01*
X89110292Y-96178213D01*
X89110288Y-96178210D01*
X88979185Y-96090609D01*
X88979172Y-96090602D01*
X88833501Y-96030264D01*
X88833489Y-96030261D01*
X88678845Y-95999500D01*
X88678842Y-95999500D01*
X88521158Y-95999500D01*
X88521155Y-95999500D01*
X88366510Y-96030261D01*
X88366498Y-96030264D01*
X88220827Y-96090602D01*
X88220814Y-96090609D01*
X88089711Y-96178210D01*
X88089707Y-96178213D01*
X87978213Y-96289707D01*
X87978210Y-96289711D01*
X87890609Y-96420814D01*
X87890602Y-96420827D01*
X87830264Y-96566498D01*
X87830261Y-96566510D01*
X87799500Y-96721153D01*
X30500500Y-96721153D01*
X30500500Y-94588711D01*
X32949500Y-94588711D01*
X32949500Y-94831288D01*
X32981161Y-95071785D01*
X33043947Y-95306104D01*
X33128525Y-95510292D01*
X33136776Y-95530212D01*
X33258064Y-95740289D01*
X33258066Y-95740292D01*
X33258067Y-95740293D01*
X33405733Y-95932736D01*
X33405739Y-95932743D01*
X33577256Y-96104260D01*
X33577263Y-96104266D01*
X33673633Y-96178213D01*
X33769711Y-96251936D01*
X33979788Y-96373224D01*
X34203900Y-96466054D01*
X34438211Y-96528838D01*
X34618586Y-96552584D01*
X34678711Y-96560500D01*
X34678712Y-96560500D01*
X34921289Y-96560500D01*
X34969388Y-96554167D01*
X35161789Y-96528838D01*
X35396100Y-96466054D01*
X35620212Y-96373224D01*
X35830289Y-96251936D01*
X36022738Y-96104265D01*
X36194265Y-95932738D01*
X36341936Y-95740289D01*
X36463224Y-95530212D01*
X36556054Y-95306100D01*
X36618838Y-95071789D01*
X36638669Y-94921153D01*
X98199500Y-94921153D01*
X98199500Y-95078846D01*
X98230261Y-95233489D01*
X98230264Y-95233501D01*
X98290602Y-95379172D01*
X98290609Y-95379185D01*
X98378210Y-95510288D01*
X98378213Y-95510292D01*
X98489707Y-95621786D01*
X98489711Y-95621789D01*
X98620814Y-95709390D01*
X98620827Y-95709397D01*
X98695418Y-95740293D01*
X98766503Y-95769737D01*
X98921153Y-95800499D01*
X98921156Y-95800500D01*
X98921158Y-95800500D01*
X99078844Y-95800500D01*
X99078845Y-95800499D01*
X99233497Y-95769737D01*
X99379179Y-95709394D01*
X99510289Y-95621789D01*
X99621789Y-95510289D01*
X99709394Y-95379179D01*
X99769737Y-95233497D01*
X99800500Y-95078842D01*
X99800500Y-94921158D01*
X99800500Y-94921155D01*
X99800499Y-94921153D01*
X99796069Y-94898880D01*
X99769737Y-94766503D01*
X99769735Y-94766498D01*
X99709397Y-94620827D01*
X99709390Y-94620814D01*
X99621789Y-94489711D01*
X99621786Y-94489707D01*
X99510292Y-94378213D01*
X99510288Y-94378210D01*
X99379185Y-94290609D01*
X99379172Y-94290602D01*
X99233501Y-94230264D01*
X99233489Y-94230261D01*
X99078845Y-94199500D01*
X99078842Y-94199500D01*
X98921158Y-94199500D01*
X98921155Y-94199500D01*
X98766510Y-94230261D01*
X98766498Y-94230264D01*
X98620827Y-94290602D01*
X98620814Y-94290609D01*
X98489711Y-94378210D01*
X98489707Y-94378213D01*
X98378213Y-94489707D01*
X98378210Y-94489711D01*
X98290609Y-94620814D01*
X98290602Y-94620827D01*
X98230264Y-94766498D01*
X98230261Y-94766510D01*
X98199500Y-94921153D01*
X36638669Y-94921153D01*
X36650500Y-94831288D01*
X36650500Y-94588712D01*
X36618838Y-94348211D01*
X36556054Y-94113900D01*
X36463224Y-93889788D01*
X36341936Y-93679711D01*
X36194265Y-93487262D01*
X36194260Y-93487256D01*
X36022743Y-93315739D01*
X36022736Y-93315733D01*
X35889427Y-93213442D01*
X35830293Y-93168067D01*
X35830292Y-93168066D01*
X35830289Y-93168064D01*
X35749037Y-93121153D01*
X83319500Y-93121153D01*
X83319500Y-93278846D01*
X83350261Y-93433489D01*
X83350264Y-93433501D01*
X83410602Y-93579172D01*
X83410609Y-93579185D01*
X83498210Y-93710288D01*
X83498213Y-93710292D01*
X83609707Y-93821786D01*
X83609711Y-93821789D01*
X83740814Y-93909390D01*
X83740827Y-93909397D01*
X83886498Y-93969735D01*
X83886503Y-93969737D01*
X84041153Y-94000499D01*
X84041156Y-94000500D01*
X84041158Y-94000500D01*
X84198844Y-94000500D01*
X84198845Y-94000499D01*
X84353497Y-93969737D01*
X84499179Y-93909394D01*
X84630289Y-93821789D01*
X84741789Y-93710289D01*
X84829394Y-93579179D01*
X84889737Y-93433497D01*
X84920500Y-93278842D01*
X84920500Y-93121158D01*
X84920500Y-93121155D01*
X84920499Y-93121153D01*
X84889737Y-92966503D01*
X84858530Y-92891161D01*
X84829397Y-92820827D01*
X84829390Y-92820814D01*
X84741789Y-92689711D01*
X84741786Y-92689707D01*
X84630292Y-92578213D01*
X84630288Y-92578210D01*
X84499185Y-92490609D01*
X84499172Y-92490602D01*
X84353501Y-92430264D01*
X84353489Y-92430261D01*
X84198845Y-92399500D01*
X84198842Y-92399500D01*
X84041158Y-92399500D01*
X84041155Y-92399500D01*
X83886510Y-92430261D01*
X83886498Y-92430264D01*
X83740827Y-92490602D01*
X83740814Y-92490609D01*
X83609711Y-92578210D01*
X83609707Y-92578213D01*
X83498213Y-92689707D01*
X83498210Y-92689711D01*
X83410609Y-92820814D01*
X83410602Y-92820827D01*
X83350264Y-92966498D01*
X83350261Y-92966510D01*
X83319500Y-93121153D01*
X35749037Y-93121153D01*
X35620212Y-93046776D01*
X35620205Y-93046773D01*
X35396104Y-92953947D01*
X35161785Y-92891161D01*
X34921289Y-92859500D01*
X34921288Y-92859500D01*
X34678712Y-92859500D01*
X34678711Y-92859500D01*
X34438214Y-92891161D01*
X34203895Y-92953947D01*
X33979794Y-93046773D01*
X33979785Y-93046777D01*
X33769706Y-93168067D01*
X33577263Y-93315733D01*
X33577256Y-93315739D01*
X33405739Y-93487256D01*
X33405733Y-93487263D01*
X33258067Y-93679706D01*
X33136777Y-93889785D01*
X33136773Y-93889794D01*
X33043947Y-94113895D01*
X32981161Y-94348214D01*
X32949500Y-94588711D01*
X30500500Y-94588711D01*
X30500500Y-89571153D01*
X112549500Y-89571153D01*
X112549500Y-89728846D01*
X112580261Y-89883489D01*
X112580264Y-89883501D01*
X112640602Y-90029172D01*
X112640609Y-90029185D01*
X112728210Y-90160288D01*
X112728213Y-90160292D01*
X112839707Y-90271786D01*
X112839711Y-90271789D01*
X112970814Y-90359390D01*
X112970827Y-90359397D01*
X113116498Y-90419735D01*
X113116503Y-90419737D01*
X113271153Y-90450499D01*
X113271156Y-90450500D01*
X113271158Y-90450500D01*
X113428844Y-90450500D01*
X113428845Y-90450499D01*
X113583497Y-90419737D01*
X113729179Y-90359394D01*
X113860289Y-90271789D01*
X113971789Y-90160289D01*
X114059394Y-90029179D01*
X114119737Y-89883497D01*
X114150500Y-89728842D01*
X114150500Y-89571158D01*
X114150500Y-89571155D01*
X114150499Y-89571153D01*
X114119738Y-89416510D01*
X114119737Y-89416503D01*
X114119735Y-89416498D01*
X114059397Y-89270827D01*
X114059390Y-89270814D01*
X113971789Y-89139711D01*
X113971786Y-89139707D01*
X113860292Y-89028213D01*
X113860288Y-89028210D01*
X113729185Y-88940609D01*
X113729172Y-88940602D01*
X113583501Y-88880264D01*
X113583489Y-88880261D01*
X113428845Y-88849500D01*
X113428842Y-88849500D01*
X113271158Y-88849500D01*
X113271155Y-88849500D01*
X113116510Y-88880261D01*
X113116498Y-88880264D01*
X112970827Y-88940602D01*
X112970814Y-88940609D01*
X112839711Y-89028210D01*
X112839707Y-89028213D01*
X112728213Y-89139707D01*
X112728210Y-89139711D01*
X112640609Y-89270814D01*
X112640602Y-89270827D01*
X112580264Y-89416498D01*
X112580261Y-89416510D01*
X112549500Y-89571153D01*
X30500500Y-89571153D01*
X30500500Y-87521153D01*
X70299500Y-87521153D01*
X70299500Y-87678846D01*
X70330261Y-87833489D01*
X70330264Y-87833501D01*
X70390602Y-87979172D01*
X70390609Y-87979185D01*
X70478210Y-88110288D01*
X70478213Y-88110292D01*
X70589707Y-88221786D01*
X70589711Y-88221789D01*
X70720814Y-88309390D01*
X70720827Y-88309397D01*
X70815594Y-88348650D01*
X70866503Y-88369737D01*
X71021153Y-88400499D01*
X71021156Y-88400500D01*
X71021158Y-88400500D01*
X71178844Y-88400500D01*
X71178845Y-88400499D01*
X71333497Y-88369737D01*
X71385933Y-88348017D01*
X71441880Y-88324844D01*
X71511349Y-88317375D01*
X71573828Y-88348650D01*
X71609480Y-88408739D01*
X71610949Y-88463596D01*
X71599500Y-88521153D01*
X71599500Y-88678846D01*
X71630261Y-88833489D01*
X71630264Y-88833501D01*
X71690602Y-88979172D01*
X71690609Y-88979185D01*
X71778210Y-89110288D01*
X71778213Y-89110292D01*
X71889707Y-89221786D01*
X71889711Y-89221789D01*
X72020814Y-89309390D01*
X72020827Y-89309397D01*
X72166498Y-89369735D01*
X72166503Y-89369737D01*
X72321153Y-89400499D01*
X72321156Y-89400500D01*
X72321158Y-89400500D01*
X72478844Y-89400500D01*
X72478845Y-89400499D01*
X72633497Y-89369737D01*
X72779179Y-89309394D01*
X72910289Y-89221789D01*
X73021789Y-89110289D01*
X73109394Y-88979179D01*
X73169737Y-88833497D01*
X73200500Y-88678842D01*
X73200500Y-88521158D01*
X73200500Y-88521155D01*
X73200499Y-88521153D01*
X73169738Y-88366510D01*
X73169737Y-88366503D01*
X73162342Y-88348650D01*
X73109397Y-88220827D01*
X73109390Y-88220814D01*
X73021789Y-88089711D01*
X73021786Y-88089707D01*
X72919760Y-87987681D01*
X72886275Y-87926358D01*
X72891259Y-87856666D01*
X72919760Y-87812319D01*
X73021786Y-87710292D01*
X73021789Y-87710289D01*
X73109394Y-87579179D01*
X73169737Y-87433497D01*
X73200500Y-87278842D01*
X73200500Y-87121158D01*
X73200500Y-87121155D01*
X73200499Y-87121153D01*
X73174993Y-86992928D01*
X73169737Y-86966503D01*
X73169735Y-86966498D01*
X73109397Y-86820827D01*
X73109390Y-86820814D01*
X73021789Y-86689711D01*
X73021786Y-86689707D01*
X72910292Y-86578213D01*
X72910288Y-86578210D01*
X72824897Y-86521153D01*
X80899500Y-86521153D01*
X80899500Y-86678846D01*
X80930261Y-86833489D01*
X80930264Y-86833501D01*
X80990602Y-86979172D01*
X80990609Y-86979185D01*
X81078210Y-87110288D01*
X81078213Y-87110292D01*
X81189707Y-87221786D01*
X81189711Y-87221789D01*
X81320814Y-87309390D01*
X81320827Y-87309397D01*
X81420060Y-87350500D01*
X81466503Y-87369737D01*
X81621153Y-87400499D01*
X81621156Y-87400500D01*
X81621158Y-87400500D01*
X81778844Y-87400500D01*
X81778845Y-87400499D01*
X81933497Y-87369737D01*
X82079179Y-87309394D01*
X82210289Y-87221789D01*
X82321789Y-87110289D01*
X82409394Y-86979179D01*
X82469737Y-86833497D01*
X82500500Y-86678842D01*
X82500500Y-86521158D01*
X82500500Y-86521155D01*
X82500499Y-86521153D01*
X82490553Y-86471153D01*
X82469737Y-86366503D01*
X82469735Y-86366498D01*
X82409397Y-86220827D01*
X82409390Y-86220814D01*
X82321789Y-86089711D01*
X82321786Y-86089707D01*
X82210289Y-85978210D01*
X82195259Y-85968168D01*
X82079185Y-85890609D01*
X82079172Y-85890602D01*
X82032217Y-85871153D01*
X111049500Y-85871153D01*
X111049500Y-86028846D01*
X111080261Y-86183489D01*
X111080264Y-86183501D01*
X111140602Y-86329172D01*
X111140609Y-86329185D01*
X111228210Y-86460288D01*
X111228213Y-86460292D01*
X111339707Y-86571786D01*
X111339711Y-86571789D01*
X111470814Y-86659390D01*
X111470827Y-86659397D01*
X111544013Y-86689711D01*
X111616503Y-86719737D01*
X111771153Y-86750499D01*
X111771156Y-86750500D01*
X111771158Y-86750500D01*
X111928844Y-86750500D01*
X111928845Y-86750499D01*
X112083497Y-86719737D01*
X112229179Y-86659394D01*
X112360289Y-86571789D01*
X112460925Y-86471153D01*
X114099500Y-86471153D01*
X114099500Y-86628846D01*
X114130261Y-86783489D01*
X114130264Y-86783501D01*
X114190602Y-86929172D01*
X114190609Y-86929185D01*
X114278210Y-87060288D01*
X114278213Y-87060292D01*
X114389707Y-87171786D01*
X114389711Y-87171789D01*
X114520814Y-87259390D01*
X114520827Y-87259397D01*
X114666498Y-87319735D01*
X114666503Y-87319737D01*
X114821153Y-87350499D01*
X114821156Y-87350500D01*
X114821158Y-87350500D01*
X114978844Y-87350500D01*
X114978845Y-87350499D01*
X115133497Y-87319737D01*
X115279179Y-87259394D01*
X115410289Y-87171789D01*
X115521789Y-87060289D01*
X115609394Y-86929179D01*
X115669737Y-86783497D01*
X115690554Y-86678844D01*
X115701454Y-86624049D01*
X115733839Y-86562138D01*
X115794555Y-86527564D01*
X115798880Y-86526623D01*
X115811353Y-86524141D01*
X115833497Y-86519737D01*
X115963482Y-86465896D01*
X115979172Y-86459397D01*
X115979172Y-86459396D01*
X115979179Y-86459394D01*
X116110289Y-86371789D01*
X116221789Y-86260289D01*
X116309394Y-86129179D01*
X116369737Y-85983497D01*
X116400500Y-85828842D01*
X116400500Y-85671158D01*
X116400500Y-85671155D01*
X116400499Y-85671153D01*
X116380543Y-85570827D01*
X116369737Y-85516503D01*
X116349189Y-85466896D01*
X116309397Y-85370827D01*
X116309390Y-85370814D01*
X116221789Y-85239711D01*
X116221786Y-85239707D01*
X116110292Y-85128213D01*
X116110288Y-85128210D01*
X116038344Y-85080138D01*
X115979185Y-85040609D01*
X115979172Y-85040602D01*
X115837456Y-84981902D01*
X122049500Y-84981902D01*
X122049500Y-85218097D01*
X122086446Y-85451368D01*
X122159433Y-85675996D01*
X122254543Y-85862658D01*
X122266657Y-85886433D01*
X122405483Y-86077510D01*
X122572490Y-86244517D01*
X122763567Y-86383343D01*
X122855649Y-86430261D01*
X122974003Y-86490566D01*
X122974005Y-86490566D01*
X122974008Y-86490568D01*
X123063775Y-86519735D01*
X123198631Y-86563553D01*
X123431903Y-86600500D01*
X123431908Y-86600500D01*
X123668097Y-86600500D01*
X123901368Y-86563553D01*
X123905723Y-86562138D01*
X124125992Y-86490568D01*
X124336433Y-86383343D01*
X124527510Y-86244517D01*
X124694517Y-86077510D01*
X124833343Y-85886433D01*
X124940568Y-85675992D01*
X124994079Y-85511304D01*
X130149500Y-85511304D01*
X130149500Y-85688695D01*
X130184103Y-85862658D01*
X130184106Y-85862667D01*
X130251983Y-86026540D01*
X130251990Y-86026553D01*
X130350535Y-86174034D01*
X130350538Y-86174038D01*
X130475961Y-86299461D01*
X130475965Y-86299464D01*
X130623446Y-86398009D01*
X130623459Y-86398016D01*
X130746363Y-86448923D01*
X130787334Y-86465894D01*
X130787336Y-86465894D01*
X130787341Y-86465896D01*
X130961304Y-86500499D01*
X130961307Y-86500500D01*
X130961309Y-86500500D01*
X131138693Y-86500500D01*
X131138694Y-86500499D01*
X131196682Y-86488964D01*
X131312658Y-86465896D01*
X131312661Y-86465894D01*
X131312666Y-86465894D01*
X131476547Y-86398013D01*
X131624035Y-86299464D01*
X131749464Y-86174035D01*
X131848013Y-86026547D01*
X131915894Y-85862666D01*
X131920282Y-85840609D01*
X131950499Y-85688695D01*
X131950500Y-85688693D01*
X131950500Y-85511306D01*
X131950499Y-85511304D01*
X131915896Y-85337341D01*
X131915893Y-85337332D01*
X131848016Y-85173459D01*
X131848009Y-85173446D01*
X131763592Y-85047108D01*
X131742714Y-84980431D01*
X131761198Y-84913051D01*
X131813177Y-84866360D01*
X131882147Y-84855184D01*
X131890871Y-84856597D01*
X131971940Y-84872723D01*
X132061306Y-84890500D01*
X132061309Y-84890500D01*
X132238693Y-84890500D01*
X132238694Y-84890499D01*
X132297299Y-84878842D01*
X132412658Y-84855896D01*
X132412661Y-84855894D01*
X132412666Y-84855894D01*
X132576547Y-84788013D01*
X132724035Y-84689464D01*
X132849464Y-84564035D01*
X132948013Y-84416547D01*
X133015894Y-84252666D01*
X133050500Y-84078691D01*
X133050500Y-83901309D01*
X133050500Y-83901306D01*
X133050499Y-83901304D01*
X133015896Y-83727341D01*
X133015893Y-83727332D01*
X132948016Y-83563459D01*
X132948009Y-83563446D01*
X132849464Y-83415965D01*
X132849461Y-83415961D01*
X132724038Y-83290538D01*
X132724034Y-83290535D01*
X132576553Y-83191990D01*
X132576540Y-83191983D01*
X132412667Y-83124106D01*
X132412658Y-83124103D01*
X132238694Y-83089500D01*
X132238691Y-83089500D01*
X132061309Y-83089500D01*
X132061306Y-83089500D01*
X131887341Y-83124103D01*
X131887332Y-83124106D01*
X131723459Y-83191983D01*
X131723446Y-83191990D01*
X131575965Y-83290535D01*
X131575961Y-83290538D01*
X131450538Y-83415961D01*
X131450535Y-83415965D01*
X131351990Y-83563446D01*
X131351983Y-83563459D01*
X131284106Y-83727332D01*
X131284103Y-83727341D01*
X131249500Y-83901304D01*
X131249500Y-84078695D01*
X131284103Y-84252658D01*
X131284106Y-84252667D01*
X131351983Y-84416540D01*
X131351990Y-84416553D01*
X131436407Y-84542891D01*
X131457285Y-84609569D01*
X131438801Y-84676949D01*
X131386822Y-84723639D01*
X131317852Y-84734815D01*
X131309113Y-84733399D01*
X131138693Y-84699500D01*
X131138691Y-84699500D01*
X130961309Y-84699500D01*
X130961306Y-84699500D01*
X130787341Y-84734103D01*
X130787332Y-84734106D01*
X130623459Y-84801983D01*
X130623446Y-84801990D01*
X130475965Y-84900535D01*
X130475961Y-84900538D01*
X130350538Y-85025961D01*
X130350535Y-85025965D01*
X130251990Y-85173446D01*
X130251983Y-85173459D01*
X130184106Y-85337332D01*
X130184103Y-85337341D01*
X130149500Y-85511304D01*
X124994079Y-85511304D01*
X125013553Y-85451368D01*
X125046934Y-85240609D01*
X125050500Y-85218097D01*
X125050500Y-84981902D01*
X125013553Y-84748631D01*
X124979689Y-84644412D01*
X124940568Y-84524008D01*
X124940566Y-84524005D01*
X124940566Y-84524003D01*
X124833342Y-84313566D01*
X124694517Y-84122490D01*
X124527510Y-83955483D01*
X124336433Y-83816657D01*
X124125996Y-83709433D01*
X123901368Y-83636446D01*
X123668097Y-83599500D01*
X123668092Y-83599500D01*
X123431908Y-83599500D01*
X123431903Y-83599500D01*
X123198631Y-83636446D01*
X122974003Y-83709433D01*
X122763566Y-83816657D01*
X122654550Y-83895862D01*
X122572490Y-83955483D01*
X122572488Y-83955485D01*
X122572487Y-83955485D01*
X122405485Y-84122487D01*
X122405485Y-84122488D01*
X122405483Y-84122490D01*
X122365000Y-84178210D01*
X122266657Y-84313566D01*
X122159433Y-84524003D01*
X122086446Y-84748631D01*
X122049500Y-84981902D01*
X115837456Y-84981902D01*
X115833501Y-84980264D01*
X115833489Y-84980261D01*
X115678845Y-84949500D01*
X115678842Y-84949500D01*
X115521158Y-84949500D01*
X115521155Y-84949500D01*
X115366510Y-84980261D01*
X115366498Y-84980264D01*
X115220827Y-85040602D01*
X115220814Y-85040609D01*
X115089711Y-85128210D01*
X115089707Y-85128213D01*
X114978213Y-85239707D01*
X114978210Y-85239711D01*
X114890609Y-85370814D01*
X114890602Y-85370827D01*
X114830264Y-85516498D01*
X114830261Y-85516508D01*
X114798545Y-85675951D01*
X114766160Y-85737862D01*
X114705444Y-85772436D01*
X114701122Y-85773376D01*
X114666505Y-85780262D01*
X114666498Y-85780264D01*
X114520827Y-85840602D01*
X114520814Y-85840609D01*
X114389711Y-85928210D01*
X114389707Y-85928213D01*
X114278213Y-86039707D01*
X114278210Y-86039711D01*
X114190609Y-86170814D01*
X114190602Y-86170827D01*
X114130264Y-86316498D01*
X114130261Y-86316510D01*
X114099500Y-86471153D01*
X112460925Y-86471153D01*
X112471789Y-86460289D01*
X112513401Y-86398013D01*
X112514629Y-86396175D01*
X112559390Y-86329185D01*
X112559390Y-86329184D01*
X112559394Y-86329179D01*
X112619737Y-86183497D01*
X112650500Y-86028842D01*
X112650500Y-85871158D01*
X112650500Y-85871155D01*
X112650499Y-85871153D01*
X112642365Y-85830261D01*
X112619737Y-85716503D01*
X112600955Y-85671158D01*
X112559397Y-85570827D01*
X112559390Y-85570814D01*
X112471789Y-85439711D01*
X112471786Y-85439707D01*
X112360292Y-85328213D01*
X112360288Y-85328210D01*
X112229185Y-85240609D01*
X112229172Y-85240602D01*
X112083501Y-85180264D01*
X112083489Y-85180261D01*
X111928845Y-85149500D01*
X111928842Y-85149500D01*
X111771158Y-85149500D01*
X111771155Y-85149500D01*
X111616510Y-85180261D01*
X111616498Y-85180264D01*
X111470827Y-85240602D01*
X111470814Y-85240609D01*
X111339711Y-85328210D01*
X111339707Y-85328213D01*
X111228213Y-85439707D01*
X111228210Y-85439711D01*
X111140609Y-85570814D01*
X111140602Y-85570827D01*
X111080264Y-85716498D01*
X111080261Y-85716510D01*
X111049500Y-85871153D01*
X82032217Y-85871153D01*
X81933501Y-85830264D01*
X81933489Y-85830261D01*
X81778845Y-85799500D01*
X81778842Y-85799500D01*
X81621158Y-85799500D01*
X81621155Y-85799500D01*
X81466510Y-85830261D01*
X81466498Y-85830264D01*
X81320827Y-85890602D01*
X81320814Y-85890609D01*
X81189711Y-85978210D01*
X81189707Y-85978213D01*
X81078213Y-86089707D01*
X81078210Y-86089711D01*
X80990609Y-86220814D01*
X80990602Y-86220827D01*
X80930264Y-86366498D01*
X80930261Y-86366510D01*
X80899500Y-86521153D01*
X72824897Y-86521153D01*
X72779185Y-86490609D01*
X72779172Y-86490602D01*
X72633501Y-86430264D01*
X72633489Y-86430261D01*
X72478845Y-86399500D01*
X72478842Y-86399500D01*
X72321158Y-86399500D01*
X72321155Y-86399500D01*
X72166510Y-86430261D01*
X72166498Y-86430264D01*
X72020827Y-86490602D01*
X72020814Y-86490609D01*
X71889711Y-86578210D01*
X71889707Y-86578213D01*
X71778213Y-86689707D01*
X71778210Y-86689711D01*
X71690609Y-86820814D01*
X71690604Y-86820823D01*
X71679954Y-86846535D01*
X71636111Y-86900937D01*
X71569817Y-86923000D01*
X71502118Y-86905719D01*
X71496503Y-86902181D01*
X71479185Y-86890609D01*
X71479172Y-86890602D01*
X71333501Y-86830264D01*
X71333489Y-86830261D01*
X71178845Y-86799500D01*
X71178842Y-86799500D01*
X71021158Y-86799500D01*
X71021155Y-86799500D01*
X70866510Y-86830261D01*
X70866498Y-86830264D01*
X70720827Y-86890602D01*
X70720814Y-86890609D01*
X70589711Y-86978210D01*
X70589707Y-86978213D01*
X70478213Y-87089707D01*
X70478210Y-87089711D01*
X70390609Y-87220814D01*
X70390602Y-87220827D01*
X70330264Y-87366498D01*
X70330261Y-87366510D01*
X70299500Y-87521153D01*
X30500500Y-87521153D01*
X30500500Y-84721153D01*
X73599500Y-84721153D01*
X73599500Y-84878846D01*
X73630261Y-85033489D01*
X73630264Y-85033501D01*
X73690602Y-85179172D01*
X73690609Y-85179185D01*
X73778210Y-85310288D01*
X73778213Y-85310292D01*
X73889707Y-85421786D01*
X73889711Y-85421789D01*
X74020814Y-85509390D01*
X74020827Y-85509397D01*
X74166498Y-85569735D01*
X74166503Y-85569737D01*
X74321153Y-85600499D01*
X74321156Y-85600500D01*
X74321158Y-85600500D01*
X74478844Y-85600500D01*
X74478845Y-85600499D01*
X74633497Y-85569737D01*
X74779179Y-85509394D01*
X74910289Y-85421789D01*
X75021789Y-85310289D01*
X75109394Y-85179179D01*
X75169737Y-85033497D01*
X75200500Y-84878842D01*
X75200500Y-84721158D01*
X75200500Y-84721155D01*
X75200499Y-84721153D01*
X75169738Y-84566510D01*
X75169737Y-84566503D01*
X75152133Y-84524003D01*
X75109397Y-84420827D01*
X75109390Y-84420814D01*
X75021789Y-84289711D01*
X75021786Y-84289707D01*
X74910292Y-84178213D01*
X74910288Y-84178210D01*
X74779185Y-84090609D01*
X74779172Y-84090602D01*
X74633501Y-84030264D01*
X74633489Y-84030261D01*
X74478845Y-83999500D01*
X74478842Y-83999500D01*
X74321158Y-83999500D01*
X74321155Y-83999500D01*
X74166510Y-84030261D01*
X74166498Y-84030264D01*
X74020827Y-84090602D01*
X74020814Y-84090609D01*
X73889711Y-84178210D01*
X73889707Y-84178213D01*
X73778213Y-84289707D01*
X73778210Y-84289711D01*
X73690609Y-84420814D01*
X73690602Y-84420827D01*
X73630264Y-84566498D01*
X73630261Y-84566510D01*
X73599500Y-84721153D01*
X30500500Y-84721153D01*
X30500500Y-81221153D01*
X103199500Y-81221153D01*
X103199500Y-81378846D01*
X103230261Y-81533489D01*
X103230264Y-81533501D01*
X103290602Y-81679172D01*
X103290609Y-81679185D01*
X103378210Y-81810288D01*
X103378213Y-81810292D01*
X103489707Y-81921786D01*
X103489711Y-81921789D01*
X103620814Y-82009390D01*
X103620827Y-82009397D01*
X103766498Y-82069735D01*
X103766503Y-82069737D01*
X103921153Y-82100499D01*
X103921156Y-82100500D01*
X103921158Y-82100500D01*
X104078844Y-82100500D01*
X104078845Y-82100499D01*
X104233497Y-82069737D01*
X104379179Y-82009394D01*
X104510289Y-81921789D01*
X104621789Y-81810289D01*
X104709394Y-81679179D01*
X104769737Y-81533497D01*
X104800500Y-81378842D01*
X104800500Y-81221158D01*
X104800500Y-81221155D01*
X104800499Y-81221153D01*
X104769738Y-81066510D01*
X104769737Y-81066503D01*
X104769735Y-81066498D01*
X104709397Y-80920827D01*
X104709390Y-80920814D01*
X104621789Y-80789711D01*
X104621786Y-80789707D01*
X104510292Y-80678213D01*
X104510288Y-80678210D01*
X104379185Y-80590609D01*
X104379172Y-80590602D01*
X104233501Y-80530264D01*
X104233489Y-80530261D01*
X104078845Y-80499500D01*
X104078842Y-80499500D01*
X103921158Y-80499500D01*
X103921155Y-80499500D01*
X103766510Y-80530261D01*
X103766498Y-80530264D01*
X103620827Y-80590602D01*
X103620814Y-80590609D01*
X103489711Y-80678210D01*
X103489707Y-80678213D01*
X103378213Y-80789707D01*
X103378210Y-80789711D01*
X103290609Y-80920814D01*
X103290602Y-80920827D01*
X103230264Y-81066498D01*
X103230261Y-81066510D01*
X103199500Y-81221153D01*
X30500500Y-81221153D01*
X30500500Y-77071153D01*
X79649500Y-77071153D01*
X79649500Y-77228846D01*
X79680261Y-77383489D01*
X79680264Y-77383501D01*
X79740602Y-77529172D01*
X79740609Y-77529185D01*
X79828210Y-77660288D01*
X79828213Y-77660292D01*
X79939707Y-77771786D01*
X79939711Y-77771789D01*
X80070814Y-77859390D01*
X80070827Y-77859397D01*
X80216498Y-77919735D01*
X80216503Y-77919737D01*
X80371153Y-77950499D01*
X80371156Y-77950500D01*
X80371158Y-77950500D01*
X80528844Y-77950500D01*
X80528845Y-77950499D01*
X80683497Y-77919737D01*
X80829179Y-77859394D01*
X80960289Y-77771789D01*
X81071789Y-77660289D01*
X81159394Y-77529179D01*
X81219737Y-77383497D01*
X81250500Y-77228842D01*
X81250500Y-77071158D01*
X81250500Y-77071155D01*
X81250499Y-77071153D01*
X81250432Y-77070815D01*
X81219737Y-76916503D01*
X81217163Y-76910289D01*
X81159397Y-76770827D01*
X81159390Y-76770814D01*
X81071789Y-76639711D01*
X81071786Y-76639707D01*
X80960292Y-76528213D01*
X80960288Y-76528210D01*
X80829185Y-76440609D01*
X80829173Y-76440602D01*
X80802674Y-76429627D01*
X80683501Y-76380264D01*
X80683489Y-76380261D01*
X80528845Y-76349500D01*
X80528842Y-76349500D01*
X80371158Y-76349500D01*
X80371155Y-76349500D01*
X80216510Y-76380261D01*
X80216498Y-76380264D01*
X80070827Y-76440602D01*
X80070814Y-76440609D01*
X79939711Y-76528210D01*
X79939707Y-76528213D01*
X79828213Y-76639707D01*
X79828210Y-76639711D01*
X79740609Y-76770814D01*
X79740602Y-76770827D01*
X79680264Y-76916498D01*
X79680261Y-76916510D01*
X79649500Y-77071153D01*
X30500500Y-77071153D01*
X30500500Y-76321153D01*
X98699500Y-76321153D01*
X98699500Y-76478846D01*
X98730261Y-76633489D01*
X98730264Y-76633501D01*
X98790602Y-76779172D01*
X98790609Y-76779185D01*
X98847008Y-76863591D01*
X98867886Y-76930268D01*
X98849402Y-76997649D01*
X98847009Y-77001372D01*
X98800608Y-77070816D01*
X98800602Y-77070827D01*
X98740264Y-77216498D01*
X98740261Y-77216510D01*
X98709500Y-77371153D01*
X98709500Y-77528846D01*
X98740261Y-77683489D01*
X98740264Y-77683501D01*
X98800602Y-77829172D01*
X98800609Y-77829185D01*
X98888210Y-77960288D01*
X98888213Y-77960292D01*
X98999707Y-78071786D01*
X98999711Y-78071789D01*
X99130814Y-78159390D01*
X99130827Y-78159397D01*
X99276498Y-78219735D01*
X99276503Y-78219737D01*
X99431153Y-78250499D01*
X99431156Y-78250500D01*
X99431158Y-78250500D01*
X99588844Y-78250500D01*
X99588845Y-78250499D01*
X99743497Y-78219737D01*
X99889179Y-78159394D01*
X100020289Y-78071789D01*
X100131789Y-77960289D01*
X100219394Y-77829179D01*
X100279737Y-77683497D01*
X100310500Y-77528842D01*
X100310500Y-77371158D01*
X100310500Y-77371155D01*
X100310499Y-77371153D01*
X100282192Y-77228846D01*
X100279737Y-77216503D01*
X100219534Y-77071158D01*
X100219397Y-77070827D01*
X100219395Y-77070823D01*
X100219394Y-77070821D01*
X100162991Y-76986408D01*
X100142113Y-76919731D01*
X100160597Y-76852351D01*
X100162991Y-76848626D01*
X100166516Y-76843350D01*
X100209394Y-76779179D01*
X100212854Y-76770827D01*
X100267163Y-76639711D01*
X100269737Y-76633497D01*
X100300500Y-76478842D01*
X100300500Y-76321158D01*
X100300500Y-76321155D01*
X100300499Y-76321153D01*
X100291996Y-76278404D01*
X100269737Y-76166503D01*
X100256002Y-76133343D01*
X100209397Y-76020827D01*
X100209390Y-76020814D01*
X100121789Y-75889711D01*
X100121786Y-75889707D01*
X100010292Y-75778213D01*
X100010288Y-75778210D01*
X99879185Y-75690609D01*
X99879172Y-75690602D01*
X99733501Y-75630264D01*
X99733489Y-75630261D01*
X99578845Y-75599500D01*
X99578842Y-75599500D01*
X99421158Y-75599500D01*
X99421155Y-75599500D01*
X99266510Y-75630261D01*
X99266498Y-75630264D01*
X99120827Y-75690602D01*
X99120814Y-75690609D01*
X98989711Y-75778210D01*
X98989707Y-75778213D01*
X98878213Y-75889707D01*
X98878210Y-75889711D01*
X98790609Y-76020814D01*
X98790602Y-76020827D01*
X98730264Y-76166498D01*
X98730261Y-76166510D01*
X98699500Y-76321153D01*
X30500500Y-76321153D01*
X30500500Y-74731902D01*
X112899500Y-74731902D01*
X112899500Y-74968097D01*
X112936446Y-75201368D01*
X113009433Y-75425996D01*
X113049037Y-75503722D01*
X113116657Y-75636433D01*
X113255483Y-75827510D01*
X113422490Y-75994517D01*
X113613567Y-76133343D01*
X113678661Y-76166510D01*
X113824003Y-76240566D01*
X113824005Y-76240566D01*
X113824008Y-76240568D01*
X113940455Y-76278404D01*
X114048631Y-76313553D01*
X114281903Y-76350500D01*
X114281908Y-76350500D01*
X114518097Y-76350500D01*
X114751368Y-76313553D01*
X114975992Y-76240568D01*
X115186433Y-76133343D01*
X115377510Y-75994517D01*
X115544517Y-75827510D01*
X115683343Y-75636433D01*
X115790568Y-75425992D01*
X115863553Y-75201368D01*
X115900500Y-74968097D01*
X115900500Y-74731902D01*
X115863553Y-74498631D01*
X115790566Y-74274003D01*
X115717447Y-74130500D01*
X115683343Y-74063567D01*
X115544517Y-73872490D01*
X115377510Y-73705483D01*
X115186433Y-73566657D01*
X114975996Y-73459433D01*
X114751368Y-73386446D01*
X114518097Y-73349500D01*
X114518092Y-73349500D01*
X114281908Y-73349500D01*
X114281903Y-73349500D01*
X114048631Y-73386446D01*
X113824003Y-73459433D01*
X113613566Y-73566657D01*
X113504550Y-73645862D01*
X113422490Y-73705483D01*
X113422488Y-73705485D01*
X113422487Y-73705485D01*
X113255485Y-73872487D01*
X113255485Y-73872488D01*
X113255483Y-73872490D01*
X113250975Y-73878695D01*
X113116657Y-74063566D01*
X113009433Y-74274003D01*
X112936446Y-74498631D01*
X112899500Y-74731902D01*
X30500500Y-74731902D01*
X30500500Y-73141304D01*
X94349500Y-73141304D01*
X94349500Y-73318695D01*
X94384103Y-73492658D01*
X94384106Y-73492667D01*
X94451983Y-73656540D01*
X94451990Y-73656553D01*
X94550535Y-73804034D01*
X94550538Y-73804038D01*
X94675961Y-73929461D01*
X94675965Y-73929464D01*
X94823446Y-74028009D01*
X94823459Y-74028016D01*
X94909286Y-74063566D01*
X94987334Y-74095894D01*
X94987336Y-74095894D01*
X94987341Y-74095896D01*
X95161304Y-74130499D01*
X95161307Y-74130500D01*
X95161309Y-74130500D01*
X95338693Y-74130500D01*
X95338694Y-74130499D01*
X95396682Y-74118964D01*
X95512658Y-74095896D01*
X95512661Y-74095894D01*
X95512666Y-74095894D01*
X95676547Y-74028013D01*
X95824035Y-73929464D01*
X95949464Y-73804035D01*
X96048013Y-73656547D01*
X96115894Y-73492666D01*
X96122505Y-73459433D01*
X96150499Y-73318695D01*
X96150500Y-73318693D01*
X96150500Y-73141306D01*
X96150499Y-73141304D01*
X96115896Y-72967341D01*
X96115893Y-72967332D01*
X96048016Y-72803459D01*
X96048009Y-72803446D01*
X95949464Y-72655965D01*
X95949461Y-72655961D01*
X95824038Y-72530538D01*
X95824034Y-72530535D01*
X95676553Y-72431990D01*
X95676540Y-72431983D01*
X95647073Y-72419778D01*
X95512667Y-72364106D01*
X95512658Y-72364103D01*
X95338694Y-72329500D01*
X95338691Y-72329500D01*
X95161309Y-72329500D01*
X95161306Y-72329500D01*
X94987341Y-72364103D01*
X94987332Y-72364106D01*
X94823459Y-72431983D01*
X94823446Y-72431990D01*
X94675965Y-72530535D01*
X94675961Y-72530538D01*
X94550538Y-72655961D01*
X94550535Y-72655965D01*
X94451990Y-72803446D01*
X94451983Y-72803459D01*
X94384106Y-72967332D01*
X94384103Y-72967341D01*
X94349500Y-73141304D01*
X30500500Y-73141304D01*
X30500500Y-72311304D01*
X132442500Y-72311304D01*
X132442500Y-72488695D01*
X132477103Y-72662658D01*
X132477106Y-72662667D01*
X132544983Y-72826540D01*
X132544990Y-72826553D01*
X132643534Y-72974033D01*
X132643535Y-72974034D01*
X132643536Y-72974035D01*
X132722550Y-73053049D01*
X132756034Y-73114370D01*
X132751050Y-73184062D01*
X132735975Y-73210269D01*
X132736920Y-73210900D01*
X132634990Y-73363446D01*
X132634983Y-73363459D01*
X132567106Y-73527332D01*
X132567103Y-73527341D01*
X132532500Y-73701304D01*
X132532500Y-73878695D01*
X132567103Y-74052658D01*
X132567106Y-74052667D01*
X132634983Y-74216540D01*
X132634990Y-74216553D01*
X132733535Y-74364034D01*
X132733538Y-74364038D01*
X132858961Y-74489461D01*
X132858965Y-74489464D01*
X133006446Y-74588009D01*
X133006459Y-74588016D01*
X133128420Y-74638533D01*
X133170334Y-74655894D01*
X133170336Y-74655894D01*
X133170341Y-74655896D01*
X133344304Y-74690499D01*
X133344307Y-74690500D01*
X133344309Y-74690500D01*
X133521693Y-74690500D01*
X133521694Y-74690499D01*
X133579682Y-74678964D01*
X133695658Y-74655896D01*
X133695661Y-74655894D01*
X133695666Y-74655894D01*
X133737541Y-74638549D01*
X140299500Y-74638549D01*
X140299500Y-74861450D01*
X140299501Y-74861466D01*
X140328594Y-75082452D01*
X140328595Y-75082457D01*
X140328596Y-75082463D01*
X140386290Y-75297780D01*
X140386293Y-75297790D01*
X140439398Y-75425996D01*
X140471595Y-75503726D01*
X140583052Y-75696774D01*
X140583057Y-75696780D01*
X140583058Y-75696782D01*
X140718751Y-75873622D01*
X140718757Y-75873629D01*
X140876370Y-76031242D01*
X140876376Y-76031247D01*
X141053226Y-76166948D01*
X141246274Y-76278405D01*
X141452219Y-76363710D01*
X141667537Y-76421404D01*
X141888543Y-76450500D01*
X141888550Y-76450500D01*
X142111450Y-76450500D01*
X142111457Y-76450500D01*
X142332463Y-76421404D01*
X142547781Y-76363710D01*
X142753726Y-76278405D01*
X142946774Y-76166948D01*
X143123624Y-76031247D01*
X143281247Y-75873624D01*
X143416948Y-75696774D01*
X143528405Y-75503726D01*
X143613710Y-75297781D01*
X143671404Y-75082463D01*
X143700500Y-74861457D01*
X143700500Y-74638543D01*
X143671404Y-74417537D01*
X143613710Y-74202219D01*
X143528405Y-73996274D01*
X143416948Y-73803226D01*
X143338745Y-73701309D01*
X143281248Y-73626377D01*
X143281242Y-73626370D01*
X143123629Y-73468757D01*
X143123622Y-73468751D01*
X142946782Y-73333058D01*
X142946780Y-73333057D01*
X142946774Y-73333052D01*
X142753726Y-73221595D01*
X142753722Y-73221593D01*
X142547790Y-73136293D01*
X142547783Y-73136291D01*
X142547781Y-73136290D01*
X142332463Y-73078596D01*
X142332457Y-73078595D01*
X142332452Y-73078594D01*
X142111466Y-73049501D01*
X142111463Y-73049500D01*
X142111457Y-73049500D01*
X141888543Y-73049500D01*
X141888537Y-73049500D01*
X141888533Y-73049501D01*
X141667547Y-73078594D01*
X141667540Y-73078595D01*
X141667537Y-73078596D01*
X141534026Y-73114370D01*
X141452219Y-73136290D01*
X141452209Y-73136293D01*
X141246277Y-73221593D01*
X141246273Y-73221595D01*
X141053226Y-73333052D01*
X141053217Y-73333058D01*
X140876377Y-73468751D01*
X140876370Y-73468757D01*
X140718757Y-73626370D01*
X140718751Y-73626377D01*
X140583058Y-73803217D01*
X140583052Y-73803226D01*
X140471595Y-73996273D01*
X140471593Y-73996277D01*
X140386293Y-74202209D01*
X140386290Y-74202219D01*
X140328597Y-74417534D01*
X140328594Y-74417547D01*
X140299501Y-74638533D01*
X140299500Y-74638549D01*
X133737541Y-74638549D01*
X133859547Y-74588013D01*
X134007035Y-74489464D01*
X134132464Y-74364035D01*
X134231013Y-74216547D01*
X134298894Y-74052666D01*
X134303798Y-74028016D01*
X134333499Y-73878695D01*
X134333500Y-73878693D01*
X134333500Y-73701306D01*
X134333499Y-73701304D01*
X134298896Y-73527341D01*
X134298893Y-73527332D01*
X134231016Y-73363459D01*
X134231009Y-73363446D01*
X134132465Y-73215966D01*
X134100561Y-73184062D01*
X134053448Y-73136949D01*
X134019965Y-73075629D01*
X134024949Y-73005937D01*
X134040034Y-72979737D01*
X134039080Y-72979100D01*
X134141009Y-72826553D01*
X134141009Y-72826552D01*
X134141013Y-72826547D01*
X134208894Y-72662666D01*
X134243500Y-72488691D01*
X134243500Y-72311309D01*
X134243500Y-72311306D01*
X134243499Y-72311304D01*
X134208896Y-72137341D01*
X134208893Y-72137332D01*
X134141016Y-71973459D01*
X134141009Y-71973446D01*
X134042464Y-71825965D01*
X134042461Y-71825961D01*
X133917038Y-71700538D01*
X133917034Y-71700535D01*
X133769553Y-71601990D01*
X133769540Y-71601983D01*
X133605667Y-71534106D01*
X133605658Y-71534103D01*
X133431694Y-71499500D01*
X133431691Y-71499500D01*
X133254309Y-71499500D01*
X133254306Y-71499500D01*
X133080341Y-71534103D01*
X133080332Y-71534106D01*
X132916459Y-71601983D01*
X132916446Y-71601990D01*
X132768965Y-71700535D01*
X132768961Y-71700538D01*
X132643538Y-71825961D01*
X132643535Y-71825965D01*
X132544990Y-71973446D01*
X132544983Y-71973459D01*
X132477106Y-72137332D01*
X132477103Y-72137341D01*
X132442500Y-72311304D01*
X30500500Y-72311304D01*
X30500500Y-68888575D01*
X111700000Y-68888575D01*
X111700000Y-69111424D01*
X111729085Y-69332354D01*
X111729088Y-69332367D01*
X111786763Y-69547618D01*
X111872045Y-69753502D01*
X111872054Y-69753520D01*
X111983464Y-69946491D01*
X111983473Y-69946504D01*
X112034040Y-70012403D01*
X112034043Y-70012403D01*
X112684152Y-69362293D01*
X112691049Y-69378942D01*
X112778599Y-69509970D01*
X112890030Y-69621401D01*
X113021058Y-69708951D01*
X113037705Y-69715846D01*
X112387595Y-70365955D01*
X112387595Y-70365956D01*
X112453507Y-70416533D01*
X112646485Y-70527949D01*
X112646497Y-70527954D01*
X112852381Y-70613236D01*
X113067632Y-70670911D01*
X113067645Y-70670914D01*
X113288575Y-70700000D01*
X113511425Y-70700000D01*
X113732354Y-70670914D01*
X113732367Y-70670911D01*
X113947618Y-70613236D01*
X114153502Y-70527954D01*
X114153514Y-70527949D01*
X114346498Y-70416530D01*
X114412403Y-70365957D01*
X114412404Y-70365956D01*
X113762294Y-69715846D01*
X113778942Y-69708951D01*
X113909970Y-69621401D01*
X114021401Y-69509970D01*
X114108951Y-69378942D01*
X114115846Y-69362294D01*
X114765956Y-70012404D01*
X114765957Y-70012403D01*
X114816530Y-69946498D01*
X114927949Y-69753514D01*
X114927954Y-69753502D01*
X115013236Y-69547618D01*
X115070911Y-69332367D01*
X115070914Y-69332354D01*
X115100000Y-69111424D01*
X115100000Y-68888575D01*
X115070914Y-68667645D01*
X115070911Y-68667632D01*
X115013236Y-68452381D01*
X114927954Y-68246497D01*
X114927949Y-68246485D01*
X114816533Y-68053507D01*
X114765956Y-67987595D01*
X114765955Y-67987595D01*
X114115846Y-68637704D01*
X114108951Y-68621058D01*
X114021401Y-68490030D01*
X113909970Y-68378599D01*
X113778942Y-68291049D01*
X113762293Y-68284152D01*
X114412403Y-67634043D01*
X114412403Y-67634040D01*
X114346504Y-67583473D01*
X114346491Y-67583464D01*
X114153520Y-67472054D01*
X114153502Y-67472045D01*
X113947618Y-67386763D01*
X113732367Y-67329088D01*
X113732354Y-67329085D01*
X113511425Y-67300000D01*
X113288575Y-67300000D01*
X113067645Y-67329085D01*
X113067632Y-67329088D01*
X112852381Y-67386763D01*
X112646497Y-67472045D01*
X112646479Y-67472054D01*
X112453511Y-67583462D01*
X112387595Y-67634042D01*
X113037706Y-68284152D01*
X113021058Y-68291049D01*
X112890030Y-68378599D01*
X112778599Y-68490030D01*
X112691049Y-68621058D01*
X112684153Y-68637706D01*
X112034042Y-67987595D01*
X111983462Y-68053511D01*
X111872054Y-68246479D01*
X111872045Y-68246497D01*
X111786763Y-68452381D01*
X111729088Y-68667632D01*
X111729085Y-68667645D01*
X111700000Y-68888575D01*
X30500500Y-68888575D01*
X30500500Y-61528575D01*
X64940000Y-61528575D01*
X64940000Y-61751424D01*
X64969085Y-61972354D01*
X64969088Y-61972367D01*
X65026763Y-62187618D01*
X65112045Y-62393502D01*
X65112054Y-62393520D01*
X65223464Y-62586491D01*
X65223473Y-62586504D01*
X65274040Y-62652403D01*
X65274043Y-62652403D01*
X65924152Y-62002293D01*
X65931049Y-62018942D01*
X66018599Y-62149970D01*
X66130030Y-62261401D01*
X66261058Y-62348951D01*
X66277705Y-62355846D01*
X65627595Y-63005955D01*
X65627595Y-63005956D01*
X65693507Y-63056533D01*
X65886485Y-63167949D01*
X65886497Y-63167954D01*
X66092381Y-63253236D01*
X66307632Y-63310911D01*
X66307645Y-63310914D01*
X66528575Y-63340000D01*
X66751425Y-63340000D01*
X66972354Y-63310914D01*
X66972367Y-63310911D01*
X67187618Y-63253236D01*
X67393502Y-63167954D01*
X67393514Y-63167949D01*
X67586498Y-63056530D01*
X67652403Y-63005957D01*
X67652404Y-63005956D01*
X67002294Y-62355846D01*
X67018942Y-62348951D01*
X67149970Y-62261401D01*
X67261401Y-62149970D01*
X67348951Y-62018942D01*
X67355846Y-62002294D01*
X68005956Y-62652404D01*
X68005957Y-62652403D01*
X68056530Y-62586498D01*
X68167949Y-62393514D01*
X68167954Y-62393502D01*
X68253236Y-62187618D01*
X68310911Y-61972367D01*
X68310914Y-61972354D01*
X68340000Y-61751424D01*
X68340000Y-61638549D01*
X74349500Y-61638549D01*
X74349500Y-61861450D01*
X74349501Y-61861466D01*
X74378594Y-62082452D01*
X74378595Y-62082457D01*
X74378596Y-62082463D01*
X74406766Y-62187595D01*
X74436290Y-62297780D01*
X74436293Y-62297790D01*
X74497885Y-62446485D01*
X74521595Y-62503726D01*
X74633052Y-62696774D01*
X74633057Y-62696780D01*
X74633058Y-62696782D01*
X74768751Y-62873622D01*
X74768757Y-62873629D01*
X74926370Y-63031242D01*
X74926377Y-63031248D01*
X75001088Y-63088575D01*
X75103226Y-63166948D01*
X75296274Y-63278405D01*
X75502219Y-63363710D01*
X75717537Y-63421404D01*
X75938543Y-63450500D01*
X75938550Y-63450500D01*
X76161450Y-63450500D01*
X76161457Y-63450500D01*
X76382463Y-63421404D01*
X76597781Y-63363710D01*
X76803726Y-63278405D01*
X76996774Y-63166948D01*
X77173624Y-63031247D01*
X77331247Y-62873624D01*
X77466948Y-62696774D01*
X77578405Y-62503726D01*
X77663710Y-62297781D01*
X77721404Y-62082463D01*
X77750500Y-61861457D01*
X77750500Y-61638549D01*
X80389500Y-61638549D01*
X80389500Y-61861450D01*
X80389501Y-61861466D01*
X80418594Y-62082452D01*
X80418595Y-62082457D01*
X80418596Y-62082463D01*
X80446766Y-62187595D01*
X80476290Y-62297780D01*
X80476293Y-62297790D01*
X80537885Y-62446485D01*
X80561595Y-62503726D01*
X80673052Y-62696774D01*
X80673057Y-62696780D01*
X80673058Y-62696782D01*
X80808751Y-62873622D01*
X80808757Y-62873629D01*
X80966370Y-63031242D01*
X80966377Y-63031248D01*
X81041088Y-63088575D01*
X81143226Y-63166948D01*
X81336274Y-63278405D01*
X81542219Y-63363710D01*
X81757537Y-63421404D01*
X81978543Y-63450500D01*
X81978550Y-63450500D01*
X82201450Y-63450500D01*
X82201457Y-63450500D01*
X82422463Y-63421404D01*
X82637781Y-63363710D01*
X82843726Y-63278405D01*
X83036774Y-63166948D01*
X83213624Y-63031247D01*
X83371247Y-62873624D01*
X83506948Y-62696774D01*
X83618405Y-62503726D01*
X83703710Y-62297781D01*
X83761404Y-62082463D01*
X83790500Y-61861457D01*
X83790500Y-61638549D01*
X86429500Y-61638549D01*
X86429500Y-61861450D01*
X86429501Y-61861466D01*
X86458594Y-62082452D01*
X86458595Y-62082457D01*
X86458596Y-62082463D01*
X86486766Y-62187595D01*
X86516290Y-62297780D01*
X86516293Y-62297790D01*
X86577885Y-62446485D01*
X86601595Y-62503726D01*
X86713052Y-62696774D01*
X86713057Y-62696780D01*
X86713058Y-62696782D01*
X86848751Y-62873622D01*
X86848757Y-62873629D01*
X87006370Y-63031242D01*
X87006377Y-63031248D01*
X87081088Y-63088575D01*
X87183226Y-63166948D01*
X87376274Y-63278405D01*
X87582219Y-63363710D01*
X87797537Y-63421404D01*
X88018543Y-63450500D01*
X88018550Y-63450500D01*
X88241450Y-63450500D01*
X88241457Y-63450500D01*
X88462463Y-63421404D01*
X88677781Y-63363710D01*
X88883726Y-63278405D01*
X89076774Y-63166948D01*
X89253624Y-63031247D01*
X89411247Y-62873624D01*
X89546948Y-62696774D01*
X89658405Y-62503726D01*
X89743710Y-62297781D01*
X89801404Y-62082463D01*
X89830500Y-61861457D01*
X89830500Y-61638549D01*
X92469500Y-61638549D01*
X92469500Y-61861450D01*
X92469501Y-61861466D01*
X92498594Y-62082452D01*
X92498595Y-62082457D01*
X92498596Y-62082463D01*
X92526766Y-62187595D01*
X92556290Y-62297780D01*
X92556293Y-62297790D01*
X92617885Y-62446485D01*
X92641595Y-62503726D01*
X92753052Y-62696774D01*
X92753057Y-62696780D01*
X92753058Y-62696782D01*
X92888751Y-62873622D01*
X92888757Y-62873629D01*
X93046370Y-63031242D01*
X93046377Y-63031248D01*
X93121088Y-63088575D01*
X93223226Y-63166948D01*
X93416274Y-63278405D01*
X93622219Y-63363710D01*
X93837537Y-63421404D01*
X94058543Y-63450500D01*
X94058550Y-63450500D01*
X94281450Y-63450500D01*
X94281457Y-63450500D01*
X94502463Y-63421404D01*
X94717781Y-63363710D01*
X94923726Y-63278405D01*
X95116774Y-63166948D01*
X95293624Y-63031247D01*
X95451247Y-62873624D01*
X95586948Y-62696774D01*
X95698405Y-62503726D01*
X95783710Y-62297781D01*
X95841404Y-62082463D01*
X95870500Y-61861457D01*
X95870500Y-61638549D01*
X98599500Y-61638549D01*
X98599500Y-61861450D01*
X98599501Y-61861466D01*
X98628594Y-62082452D01*
X98628595Y-62082457D01*
X98628596Y-62082463D01*
X98656766Y-62187595D01*
X98686290Y-62297780D01*
X98686293Y-62297790D01*
X98747885Y-62446485D01*
X98771595Y-62503726D01*
X98883052Y-62696774D01*
X98883057Y-62696780D01*
X98883058Y-62696782D01*
X99018751Y-62873622D01*
X99018757Y-62873629D01*
X99176370Y-63031242D01*
X99176377Y-63031248D01*
X99251088Y-63088575D01*
X99353226Y-63166948D01*
X99546274Y-63278405D01*
X99752219Y-63363710D01*
X99967537Y-63421404D01*
X100188543Y-63450500D01*
X100188550Y-63450500D01*
X100411450Y-63450500D01*
X100411457Y-63450500D01*
X100632463Y-63421404D01*
X100847781Y-63363710D01*
X101053726Y-63278405D01*
X101246774Y-63166948D01*
X101423624Y-63031247D01*
X101581247Y-62873624D01*
X101716948Y-62696774D01*
X101828405Y-62503726D01*
X101913710Y-62297781D01*
X101971404Y-62082463D01*
X102000500Y-61861457D01*
X102000500Y-61638549D01*
X104549500Y-61638549D01*
X104549500Y-61861450D01*
X104549501Y-61861466D01*
X104578594Y-62082452D01*
X104578595Y-62082457D01*
X104578596Y-62082463D01*
X104606766Y-62187595D01*
X104636290Y-62297780D01*
X104636293Y-62297790D01*
X104697885Y-62446485D01*
X104721595Y-62503726D01*
X104833052Y-62696774D01*
X104833057Y-62696780D01*
X104833058Y-62696782D01*
X104968751Y-62873622D01*
X104968757Y-62873629D01*
X105126370Y-63031242D01*
X105126377Y-63031248D01*
X105201088Y-63088575D01*
X105303226Y-63166948D01*
X105496274Y-63278405D01*
X105702219Y-63363710D01*
X105917537Y-63421404D01*
X106138543Y-63450500D01*
X106138550Y-63450500D01*
X106361450Y-63450500D01*
X106361457Y-63450500D01*
X106582463Y-63421404D01*
X106797781Y-63363710D01*
X107003726Y-63278405D01*
X107196774Y-63166948D01*
X107298912Y-63088575D01*
X140300000Y-63088575D01*
X140300000Y-63311424D01*
X140329085Y-63532354D01*
X140329088Y-63532367D01*
X140386763Y-63747618D01*
X140472045Y-63953502D01*
X140472054Y-63953520D01*
X140583464Y-64146491D01*
X140583473Y-64146504D01*
X140634040Y-64212403D01*
X140634043Y-64212403D01*
X141284152Y-63562293D01*
X141291049Y-63578942D01*
X141378599Y-63709970D01*
X141490030Y-63821401D01*
X141621058Y-63908951D01*
X141637705Y-63915846D01*
X140987595Y-64565955D01*
X140987595Y-64565956D01*
X141053507Y-64616533D01*
X141246485Y-64727949D01*
X141246497Y-64727954D01*
X141452381Y-64813236D01*
X141667632Y-64870911D01*
X141667645Y-64870914D01*
X141888575Y-64900000D01*
X142111425Y-64900000D01*
X142332354Y-64870914D01*
X142332367Y-64870911D01*
X142547618Y-64813236D01*
X142753502Y-64727954D01*
X142753514Y-64727949D01*
X142946498Y-64616530D01*
X143012403Y-64565957D01*
X143012404Y-64565956D01*
X142362294Y-63915846D01*
X142378942Y-63908951D01*
X142509970Y-63821401D01*
X142621401Y-63709970D01*
X142708951Y-63578942D01*
X142715846Y-63562294D01*
X143365956Y-64212404D01*
X143365957Y-64212403D01*
X143416530Y-64146498D01*
X143527949Y-63953514D01*
X143527954Y-63953502D01*
X143613236Y-63747618D01*
X143670911Y-63532367D01*
X143670914Y-63532354D01*
X143700000Y-63311424D01*
X143700000Y-63088575D01*
X143670914Y-62867645D01*
X143670911Y-62867632D01*
X143613236Y-62652381D01*
X143527954Y-62446497D01*
X143527949Y-62446485D01*
X143416533Y-62253507D01*
X143365956Y-62187595D01*
X143365955Y-62187595D01*
X142715846Y-62837704D01*
X142708951Y-62821058D01*
X142621401Y-62690030D01*
X142509970Y-62578599D01*
X142378942Y-62491049D01*
X142362293Y-62484152D01*
X143012403Y-61834043D01*
X143012403Y-61834040D01*
X142946504Y-61783473D01*
X142946491Y-61783464D01*
X142753520Y-61672054D01*
X142753502Y-61672045D01*
X142547618Y-61586763D01*
X142332367Y-61529088D01*
X142332354Y-61529085D01*
X142111425Y-61500000D01*
X141888575Y-61500000D01*
X141667645Y-61529085D01*
X141667632Y-61529088D01*
X141452381Y-61586763D01*
X141246497Y-61672045D01*
X141246479Y-61672054D01*
X141053511Y-61783462D01*
X140987595Y-61834042D01*
X141637706Y-62484152D01*
X141621058Y-62491049D01*
X141490030Y-62578599D01*
X141378599Y-62690030D01*
X141291049Y-62821058D01*
X141284153Y-62837706D01*
X140634042Y-62187595D01*
X140583462Y-62253511D01*
X140472054Y-62446479D01*
X140472045Y-62446497D01*
X140386763Y-62652381D01*
X140329088Y-62867632D01*
X140329085Y-62867645D01*
X140300000Y-63088575D01*
X107298912Y-63088575D01*
X107373624Y-63031247D01*
X107373629Y-63031242D01*
X107408036Y-62996836D01*
X107531242Y-62873629D01*
X107531247Y-62873624D01*
X107666948Y-62696774D01*
X107778405Y-62503726D01*
X107863710Y-62297781D01*
X107921404Y-62082463D01*
X107950500Y-61861457D01*
X107950500Y-61638543D01*
X107921404Y-61417537D01*
X107863710Y-61202219D01*
X107778405Y-60996274D01*
X107666948Y-60803226D01*
X107582758Y-60693507D01*
X107531248Y-60626377D01*
X107531242Y-60626370D01*
X107373629Y-60468757D01*
X107373622Y-60468751D01*
X107196782Y-60333058D01*
X107196780Y-60333057D01*
X107196774Y-60333052D01*
X107003726Y-60221595D01*
X107003722Y-60221593D01*
X106797790Y-60136293D01*
X106797783Y-60136291D01*
X106797781Y-60136290D01*
X106582463Y-60078596D01*
X106582457Y-60078595D01*
X106582452Y-60078594D01*
X106361466Y-60049501D01*
X106361463Y-60049500D01*
X106361457Y-60049500D01*
X106138543Y-60049500D01*
X106138537Y-60049500D01*
X106138533Y-60049501D01*
X105917547Y-60078594D01*
X105917540Y-60078595D01*
X105917537Y-60078596D01*
X105702219Y-60136290D01*
X105702209Y-60136293D01*
X105496277Y-60221593D01*
X105496273Y-60221595D01*
X105303226Y-60333052D01*
X105303217Y-60333058D01*
X105126377Y-60468751D01*
X105126370Y-60468757D01*
X104968757Y-60626370D01*
X104968751Y-60626377D01*
X104833058Y-60803217D01*
X104833052Y-60803226D01*
X104721595Y-60996273D01*
X104721593Y-60996277D01*
X104636293Y-61202209D01*
X104636290Y-61202219D01*
X104581514Y-61406649D01*
X104578597Y-61417534D01*
X104578594Y-61417547D01*
X104549501Y-61638533D01*
X104549500Y-61638549D01*
X102000500Y-61638549D01*
X102000500Y-61638543D01*
X101971404Y-61417537D01*
X101913710Y-61202219D01*
X101828405Y-60996274D01*
X101716948Y-60803226D01*
X101632758Y-60693507D01*
X101581248Y-60626377D01*
X101581242Y-60626370D01*
X101423629Y-60468757D01*
X101423622Y-60468751D01*
X101246782Y-60333058D01*
X101246780Y-60333057D01*
X101246774Y-60333052D01*
X101053726Y-60221595D01*
X101053722Y-60221593D01*
X100847790Y-60136293D01*
X100847783Y-60136291D01*
X100847781Y-60136290D01*
X100632463Y-60078596D01*
X100632457Y-60078595D01*
X100632452Y-60078594D01*
X100411466Y-60049501D01*
X100411463Y-60049500D01*
X100411457Y-60049500D01*
X100188543Y-60049500D01*
X100188537Y-60049500D01*
X100188533Y-60049501D01*
X99967547Y-60078594D01*
X99967540Y-60078595D01*
X99967537Y-60078596D01*
X99752219Y-60136290D01*
X99752209Y-60136293D01*
X99546277Y-60221593D01*
X99546273Y-60221595D01*
X99353226Y-60333052D01*
X99353217Y-60333058D01*
X99176377Y-60468751D01*
X99176370Y-60468757D01*
X99018757Y-60626370D01*
X99018751Y-60626377D01*
X98883058Y-60803217D01*
X98883052Y-60803226D01*
X98771595Y-60996273D01*
X98771593Y-60996277D01*
X98686293Y-61202209D01*
X98686290Y-61202219D01*
X98631514Y-61406649D01*
X98628597Y-61417534D01*
X98628594Y-61417547D01*
X98599501Y-61638533D01*
X98599500Y-61638549D01*
X95870500Y-61638549D01*
X95870500Y-61638543D01*
X95841404Y-61417537D01*
X95783710Y-61202219D01*
X95698405Y-60996274D01*
X95586948Y-60803226D01*
X95502758Y-60693507D01*
X95451248Y-60626377D01*
X95451242Y-60626370D01*
X95293629Y-60468757D01*
X95293622Y-60468751D01*
X95116782Y-60333058D01*
X95116780Y-60333057D01*
X95116774Y-60333052D01*
X94923726Y-60221595D01*
X94923722Y-60221593D01*
X94717790Y-60136293D01*
X94717783Y-60136291D01*
X94717781Y-60136290D01*
X94502463Y-60078596D01*
X94502457Y-60078595D01*
X94502452Y-60078594D01*
X94281466Y-60049501D01*
X94281463Y-60049500D01*
X94281457Y-60049500D01*
X94058543Y-60049500D01*
X94058537Y-60049500D01*
X94058533Y-60049501D01*
X93837547Y-60078594D01*
X93837540Y-60078595D01*
X93837537Y-60078596D01*
X93622219Y-60136290D01*
X93622209Y-60136293D01*
X93416277Y-60221593D01*
X93416273Y-60221595D01*
X93223226Y-60333052D01*
X93223217Y-60333058D01*
X93046377Y-60468751D01*
X93046370Y-60468757D01*
X92888757Y-60626370D01*
X92888751Y-60626377D01*
X92753058Y-60803217D01*
X92753052Y-60803226D01*
X92641595Y-60996273D01*
X92641593Y-60996277D01*
X92556293Y-61202209D01*
X92556290Y-61202219D01*
X92501514Y-61406649D01*
X92498597Y-61417534D01*
X92498594Y-61417547D01*
X92469501Y-61638533D01*
X92469500Y-61638549D01*
X89830500Y-61638549D01*
X89830500Y-61638543D01*
X89801404Y-61417537D01*
X89743710Y-61202219D01*
X89658405Y-60996274D01*
X89546948Y-60803226D01*
X89462758Y-60693507D01*
X89411248Y-60626377D01*
X89411242Y-60626370D01*
X89253629Y-60468757D01*
X89253622Y-60468751D01*
X89076782Y-60333058D01*
X89076780Y-60333057D01*
X89076774Y-60333052D01*
X88883726Y-60221595D01*
X88883722Y-60221593D01*
X88677790Y-60136293D01*
X88677783Y-60136291D01*
X88677781Y-60136290D01*
X88462463Y-60078596D01*
X88462457Y-60078595D01*
X88462452Y-60078594D01*
X88241466Y-60049501D01*
X88241463Y-60049500D01*
X88241457Y-60049500D01*
X88018543Y-60049500D01*
X88018537Y-60049500D01*
X88018533Y-60049501D01*
X87797547Y-60078594D01*
X87797540Y-60078595D01*
X87797537Y-60078596D01*
X87582219Y-60136290D01*
X87582209Y-60136293D01*
X87376277Y-60221593D01*
X87376273Y-60221595D01*
X87183226Y-60333052D01*
X87183217Y-60333058D01*
X87006377Y-60468751D01*
X87006370Y-60468757D01*
X86848757Y-60626370D01*
X86848751Y-60626377D01*
X86713058Y-60803217D01*
X86713052Y-60803226D01*
X86601595Y-60996273D01*
X86601593Y-60996277D01*
X86516293Y-61202209D01*
X86516290Y-61202219D01*
X86461514Y-61406649D01*
X86458597Y-61417534D01*
X86458594Y-61417547D01*
X86429501Y-61638533D01*
X86429500Y-61638549D01*
X83790500Y-61638549D01*
X83790500Y-61638543D01*
X83761404Y-61417537D01*
X83703710Y-61202219D01*
X83618405Y-60996274D01*
X83506948Y-60803226D01*
X83422758Y-60693507D01*
X83371248Y-60626377D01*
X83371242Y-60626370D01*
X83213629Y-60468757D01*
X83213622Y-60468751D01*
X83036782Y-60333058D01*
X83036780Y-60333057D01*
X83036774Y-60333052D01*
X82843726Y-60221595D01*
X82843722Y-60221593D01*
X82637790Y-60136293D01*
X82637783Y-60136291D01*
X82637781Y-60136290D01*
X82422463Y-60078596D01*
X82422457Y-60078595D01*
X82422452Y-60078594D01*
X82201466Y-60049501D01*
X82201463Y-60049500D01*
X82201457Y-60049500D01*
X81978543Y-60049500D01*
X81978537Y-60049500D01*
X81978533Y-60049501D01*
X81757547Y-60078594D01*
X81757540Y-60078595D01*
X81757537Y-60078596D01*
X81542219Y-60136290D01*
X81542209Y-60136293D01*
X81336277Y-60221593D01*
X81336273Y-60221595D01*
X81143226Y-60333052D01*
X81143217Y-60333058D01*
X80966377Y-60468751D01*
X80966370Y-60468757D01*
X80808757Y-60626370D01*
X80808751Y-60626377D01*
X80673058Y-60803217D01*
X80673052Y-60803226D01*
X80561595Y-60996273D01*
X80561593Y-60996277D01*
X80476293Y-61202209D01*
X80476290Y-61202219D01*
X80421514Y-61406649D01*
X80418597Y-61417534D01*
X80418594Y-61417547D01*
X80389501Y-61638533D01*
X80389500Y-61638549D01*
X77750500Y-61638549D01*
X77750500Y-61638543D01*
X77721404Y-61417537D01*
X77663710Y-61202219D01*
X77578405Y-60996274D01*
X77466948Y-60803226D01*
X77382758Y-60693507D01*
X77331248Y-60626377D01*
X77331242Y-60626370D01*
X77173629Y-60468757D01*
X77173622Y-60468751D01*
X76996782Y-60333058D01*
X76996780Y-60333057D01*
X76996774Y-60333052D01*
X76803726Y-60221595D01*
X76803722Y-60221593D01*
X76597790Y-60136293D01*
X76597783Y-60136291D01*
X76597781Y-60136290D01*
X76382463Y-60078596D01*
X76382457Y-60078595D01*
X76382452Y-60078594D01*
X76161466Y-60049501D01*
X76161463Y-60049500D01*
X76161457Y-60049500D01*
X75938543Y-60049500D01*
X75938537Y-60049500D01*
X75938533Y-60049501D01*
X75717547Y-60078594D01*
X75717540Y-60078595D01*
X75717537Y-60078596D01*
X75502219Y-60136290D01*
X75502209Y-60136293D01*
X75296277Y-60221593D01*
X75296273Y-60221595D01*
X75103226Y-60333052D01*
X75103217Y-60333058D01*
X74926377Y-60468751D01*
X74926370Y-60468757D01*
X74768757Y-60626370D01*
X74768751Y-60626377D01*
X74633058Y-60803217D01*
X74633052Y-60803226D01*
X74521595Y-60996273D01*
X74521593Y-60996277D01*
X74436293Y-61202209D01*
X74436290Y-61202219D01*
X74381514Y-61406649D01*
X74378597Y-61417534D01*
X74378594Y-61417547D01*
X74349501Y-61638533D01*
X74349500Y-61638549D01*
X68340000Y-61638549D01*
X68340000Y-61528575D01*
X68310914Y-61307645D01*
X68310911Y-61307632D01*
X68253236Y-61092381D01*
X68167954Y-60886497D01*
X68167949Y-60886485D01*
X68056533Y-60693507D01*
X68005956Y-60627595D01*
X68005955Y-60627595D01*
X67355846Y-61277704D01*
X67348951Y-61261058D01*
X67261401Y-61130030D01*
X67149970Y-61018599D01*
X67018942Y-60931049D01*
X67002293Y-60924152D01*
X67652403Y-60274043D01*
X67652403Y-60274040D01*
X67586504Y-60223473D01*
X67586491Y-60223464D01*
X67393520Y-60112054D01*
X67393502Y-60112045D01*
X67187618Y-60026763D01*
X66972367Y-59969088D01*
X66972354Y-59969085D01*
X66751425Y-59940000D01*
X66528575Y-59940000D01*
X66307645Y-59969085D01*
X66307632Y-59969088D01*
X66092381Y-60026763D01*
X65886497Y-60112045D01*
X65886479Y-60112054D01*
X65693511Y-60223462D01*
X65627595Y-60274042D01*
X66277706Y-60924152D01*
X66261058Y-60931049D01*
X66130030Y-61018599D01*
X66018599Y-61130030D01*
X65931049Y-61261058D01*
X65924153Y-61277706D01*
X65274042Y-60627595D01*
X65223462Y-60693511D01*
X65112054Y-60886479D01*
X65112045Y-60886497D01*
X65026763Y-61092381D01*
X64969088Y-61307632D01*
X64969085Y-61307645D01*
X64940000Y-61528575D01*
X30500500Y-61528575D01*
X30500500Y-50213713D01*
X36459500Y-50213713D01*
X36459500Y-50426286D01*
X36492753Y-50636239D01*
X36558444Y-50838414D01*
X36654951Y-51027820D01*
X36779890Y-51199786D01*
X36930213Y-51350109D01*
X37102179Y-51475048D01*
X37102181Y-51475049D01*
X37102184Y-51475051D01*
X37291588Y-51571557D01*
X37493757Y-51637246D01*
X37703713Y-51670500D01*
X37703714Y-51670500D01*
X37916286Y-51670500D01*
X37916287Y-51670500D01*
X38126243Y-51637246D01*
X38172759Y-51622131D01*
X38242596Y-51620136D01*
X38302429Y-51656216D01*
X38333258Y-51718917D01*
X38325294Y-51788331D01*
X38298756Y-51827744D01*
X38240535Y-51885965D01*
X38141990Y-52033446D01*
X38141983Y-52033459D01*
X38074106Y-52197332D01*
X38074103Y-52197341D01*
X38039500Y-52371304D01*
X38039500Y-52548695D01*
X38074103Y-52722658D01*
X38074106Y-52722667D01*
X38141983Y-52886540D01*
X38141990Y-52886553D01*
X38240535Y-53034034D01*
X38240538Y-53034038D01*
X38365961Y-53159461D01*
X38365965Y-53159464D01*
X38513446Y-53258009D01*
X38513459Y-53258016D01*
X38636363Y-53308923D01*
X38677334Y-53325894D01*
X38677336Y-53325894D01*
X38677341Y-53325896D01*
X38851304Y-53360499D01*
X38851307Y-53360500D01*
X38851309Y-53360500D01*
X39028693Y-53360500D01*
X39028694Y-53360499D01*
X39086682Y-53348964D01*
X39202658Y-53325896D01*
X39202661Y-53325894D01*
X39202666Y-53325894D01*
X39366547Y-53258013D01*
X39399268Y-53236149D01*
X39465943Y-53215271D01*
X39533324Y-53233754D01*
X39571261Y-53270359D01*
X39640538Y-53374038D01*
X39765961Y-53499461D01*
X39765965Y-53499464D01*
X39913446Y-53598009D01*
X39913459Y-53598016D01*
X40036363Y-53648923D01*
X40077334Y-53665894D01*
X40077336Y-53665894D01*
X40077341Y-53665896D01*
X40251304Y-53700499D01*
X40251307Y-53700500D01*
X40251309Y-53700500D01*
X40428693Y-53700500D01*
X40428694Y-53700499D01*
X40486682Y-53688964D01*
X40602658Y-53665896D01*
X40602661Y-53665894D01*
X40602666Y-53665894D01*
X40766547Y-53598013D01*
X40914035Y-53499464D01*
X41039464Y-53374035D01*
X41138013Y-53226547D01*
X41151294Y-53194481D01*
X41195132Y-53140080D01*
X41261425Y-53118013D01*
X41329125Y-53135290D01*
X41334746Y-53138832D01*
X41363447Y-53158009D01*
X41363453Y-53158013D01*
X41363455Y-53158014D01*
X41363459Y-53158016D01*
X41451505Y-53194485D01*
X41527334Y-53225894D01*
X41527336Y-53225894D01*
X41527341Y-53225896D01*
X41701304Y-53260499D01*
X41701307Y-53260500D01*
X41701309Y-53260500D01*
X41878693Y-53260500D01*
X41878694Y-53260499D01*
X41936682Y-53248964D01*
X42052658Y-53225896D01*
X42052661Y-53225894D01*
X42052666Y-53225894D01*
X42216547Y-53158013D01*
X42364035Y-53059464D01*
X42489464Y-52934035D01*
X42588013Y-52786547D01*
X42655894Y-52622666D01*
X42690500Y-52448691D01*
X42690500Y-52271309D01*
X42690500Y-52271306D01*
X42690499Y-52271304D01*
X42655896Y-52097341D01*
X42655893Y-52097332D01*
X42588016Y-51933459D01*
X42588012Y-51933452D01*
X42588008Y-51933446D01*
X42525852Y-51840423D01*
X42504975Y-51773748D01*
X42523459Y-51706368D01*
X42575437Y-51659678D01*
X42644407Y-51648501D01*
X42648357Y-51649061D01*
X42783713Y-51670500D01*
X42783714Y-51670500D01*
X42996286Y-51670500D01*
X42996287Y-51670500D01*
X43206243Y-51637246D01*
X43408412Y-51571557D01*
X43597816Y-51475051D01*
X43653263Y-51434767D01*
X43769786Y-51350109D01*
X43769788Y-51350106D01*
X43769792Y-51350104D01*
X43920104Y-51199792D01*
X43920106Y-51199788D01*
X43920109Y-51199786D01*
X44005890Y-51081717D01*
X44045051Y-51027816D01*
X44049793Y-51018508D01*
X44097763Y-50967711D01*
X44165583Y-50950911D01*
X44231719Y-50973445D01*
X44270763Y-51018500D01*
X44275373Y-51027547D01*
X44314728Y-51081716D01*
X44947037Y-50449408D01*
X44964075Y-50512993D01*
X45029901Y-50627007D01*
X45122993Y-50720099D01*
X45237007Y-50785925D01*
X45300590Y-50802962D01*
X44668282Y-51435269D01*
X44668282Y-51435270D01*
X44722449Y-51474624D01*
X44911782Y-51571095D01*
X45113870Y-51636757D01*
X45323754Y-51670000D01*
X45536246Y-51670000D01*
X45746127Y-51636757D01*
X45746130Y-51636757D01*
X45948217Y-51571095D01*
X46137554Y-51474622D01*
X46191716Y-51435270D01*
X46191717Y-51435270D01*
X45559408Y-50802962D01*
X45622993Y-50785925D01*
X45737007Y-50720099D01*
X45830099Y-50627007D01*
X45895925Y-50512993D01*
X45912962Y-50449409D01*
X46545270Y-51081717D01*
X46545270Y-51081716D01*
X46584622Y-51027555D01*
X46589232Y-51018507D01*
X46637205Y-50967709D01*
X46705025Y-50950912D01*
X46771161Y-50973447D01*
X46810204Y-51018504D01*
X46814949Y-51027817D01*
X46939890Y-51199786D01*
X47090213Y-51350109D01*
X47262179Y-51475048D01*
X47262181Y-51475049D01*
X47262184Y-51475051D01*
X47451588Y-51571557D01*
X47653757Y-51637246D01*
X47863713Y-51670500D01*
X47863714Y-51670500D01*
X48076286Y-51670500D01*
X48076287Y-51670500D01*
X48286243Y-51637246D01*
X48488412Y-51571557D01*
X48677816Y-51475051D01*
X48733263Y-51434767D01*
X48849786Y-51350109D01*
X48849788Y-51350106D01*
X48849792Y-51350104D01*
X49000104Y-51199792D01*
X49000106Y-51199788D01*
X49000109Y-51199786D01*
X49109086Y-51049789D01*
X49125051Y-51027816D01*
X49129514Y-51019054D01*
X49177488Y-50968259D01*
X49245308Y-50951463D01*
X49311444Y-50973999D01*
X49350486Y-51019056D01*
X49354951Y-51027820D01*
X49479890Y-51199786D01*
X49630213Y-51350109D01*
X49802179Y-51475048D01*
X49802181Y-51475049D01*
X49802184Y-51475051D01*
X49991588Y-51571557D01*
X50193757Y-51637246D01*
X50403713Y-51670500D01*
X50403714Y-51670500D01*
X50616286Y-51670500D01*
X50616287Y-51670500D01*
X50826243Y-51637246D01*
X51028412Y-51571557D01*
X51217816Y-51475051D01*
X51273263Y-51434767D01*
X51389786Y-51350109D01*
X51389788Y-51350106D01*
X51389792Y-51350104D01*
X51540104Y-51199792D01*
X51540106Y-51199788D01*
X51540109Y-51199786D01*
X51649086Y-51049789D01*
X51665051Y-51027816D01*
X51669514Y-51019054D01*
X51717488Y-50968259D01*
X51785308Y-50951463D01*
X51851444Y-50973999D01*
X51890486Y-51019056D01*
X51894951Y-51027820D01*
X52019890Y-51199786D01*
X52170213Y-51350109D01*
X52342179Y-51475048D01*
X52342181Y-51475049D01*
X52342184Y-51475051D01*
X52531588Y-51571557D01*
X52733757Y-51637246D01*
X52943713Y-51670500D01*
X52943714Y-51670500D01*
X53156286Y-51670500D01*
X53156287Y-51670500D01*
X53366243Y-51637246D01*
X53568412Y-51571557D01*
X53757816Y-51475051D01*
X53813263Y-51434767D01*
X53929786Y-51350109D01*
X53929788Y-51350106D01*
X53929792Y-51350104D01*
X54080104Y-51199792D01*
X54080106Y-51199788D01*
X54080109Y-51199786D01*
X54189086Y-51049789D01*
X54205051Y-51027816D01*
X54209514Y-51019054D01*
X54257488Y-50968259D01*
X54325308Y-50951463D01*
X54391444Y-50973999D01*
X54430486Y-51019056D01*
X54434951Y-51027820D01*
X54559890Y-51199786D01*
X54710213Y-51350109D01*
X54882179Y-51475048D01*
X54882181Y-51475049D01*
X54882184Y-51475051D01*
X55071588Y-51571557D01*
X55273757Y-51637246D01*
X55483713Y-51670500D01*
X55483714Y-51670500D01*
X55696286Y-51670500D01*
X55696287Y-51670500D01*
X55906243Y-51637246D01*
X56108412Y-51571557D01*
X56297816Y-51475051D01*
X56353263Y-51434767D01*
X56469786Y-51350109D01*
X56469788Y-51350106D01*
X56469792Y-51350104D01*
X56620104Y-51199792D01*
X56620106Y-51199788D01*
X56620109Y-51199786D01*
X56729086Y-51049789D01*
X56745051Y-51027816D01*
X56749514Y-51019054D01*
X56797488Y-50968259D01*
X56865308Y-50951463D01*
X56931444Y-50973999D01*
X56970486Y-51019056D01*
X56974951Y-51027820D01*
X57099890Y-51199786D01*
X57250213Y-51350109D01*
X57422179Y-51475048D01*
X57422181Y-51475049D01*
X57422184Y-51475051D01*
X57611588Y-51571557D01*
X57813757Y-51637246D01*
X58023713Y-51670500D01*
X58023714Y-51670500D01*
X58236286Y-51670500D01*
X58236287Y-51670500D01*
X58446243Y-51637246D01*
X58648412Y-51571557D01*
X58837816Y-51475051D01*
X58893263Y-51434767D01*
X59009786Y-51350109D01*
X59009788Y-51350106D01*
X59009792Y-51350104D01*
X59160104Y-51199792D01*
X59160106Y-51199788D01*
X59160109Y-51199786D01*
X59269086Y-51049789D01*
X59285051Y-51027816D01*
X59289514Y-51019054D01*
X59337488Y-50968259D01*
X59405308Y-50951463D01*
X59471444Y-50973999D01*
X59510486Y-51019056D01*
X59514951Y-51027820D01*
X59639890Y-51199786D01*
X59790213Y-51350109D01*
X59962179Y-51475048D01*
X59962181Y-51475049D01*
X59962184Y-51475051D01*
X60151588Y-51571557D01*
X60353757Y-51637246D01*
X60563713Y-51670500D01*
X60563714Y-51670500D01*
X60776286Y-51670500D01*
X60776287Y-51670500D01*
X60986243Y-51637246D01*
X61188412Y-51571557D01*
X61377816Y-51475051D01*
X61433263Y-51434767D01*
X61549786Y-51350109D01*
X61549788Y-51350106D01*
X61549792Y-51350104D01*
X61700104Y-51199792D01*
X61700106Y-51199788D01*
X61700109Y-51199786D01*
X61809086Y-51049789D01*
X61825051Y-51027816D01*
X61829514Y-51019054D01*
X61877488Y-50968259D01*
X61945308Y-50951463D01*
X62011444Y-50973999D01*
X62050486Y-51019056D01*
X62054951Y-51027820D01*
X62179890Y-51199786D01*
X62330213Y-51350109D01*
X62502179Y-51475048D01*
X62502181Y-51475049D01*
X62502184Y-51475051D01*
X62691588Y-51571557D01*
X62893757Y-51637246D01*
X63103713Y-51670500D01*
X63103714Y-51670500D01*
X63316286Y-51670500D01*
X63316287Y-51670500D01*
X63526243Y-51637246D01*
X63728412Y-51571557D01*
X63917816Y-51475051D01*
X63973263Y-51434767D01*
X64089786Y-51350109D01*
X64089788Y-51350106D01*
X64089792Y-51350104D01*
X64240104Y-51199792D01*
X64240106Y-51199788D01*
X64240109Y-51199786D01*
X64349086Y-51049789D01*
X64365051Y-51027816D01*
X64369514Y-51019054D01*
X64417488Y-50968259D01*
X64485308Y-50951463D01*
X64551444Y-50973999D01*
X64590486Y-51019056D01*
X64594951Y-51027820D01*
X64719890Y-51199786D01*
X64870213Y-51350109D01*
X65042179Y-51475048D01*
X65042181Y-51475049D01*
X65042184Y-51475051D01*
X65231588Y-51571557D01*
X65433757Y-51637246D01*
X65643713Y-51670500D01*
X65643714Y-51670500D01*
X65856286Y-51670500D01*
X65856287Y-51670500D01*
X66066243Y-51637246D01*
X66268412Y-51571557D01*
X66457816Y-51475051D01*
X66513263Y-51434767D01*
X66629786Y-51350109D01*
X66629788Y-51350106D01*
X66629792Y-51350104D01*
X66780104Y-51199792D01*
X66780106Y-51199788D01*
X66780109Y-51199786D01*
X66889086Y-51049789D01*
X66905051Y-51027816D01*
X66909514Y-51019054D01*
X66957488Y-50968259D01*
X67025308Y-50951463D01*
X67091444Y-50973999D01*
X67130486Y-51019056D01*
X67134951Y-51027820D01*
X67259890Y-51199786D01*
X67410213Y-51350109D01*
X67582179Y-51475048D01*
X67582181Y-51475049D01*
X67582184Y-51475051D01*
X67771588Y-51571557D01*
X67973757Y-51637246D01*
X68183713Y-51670500D01*
X68183714Y-51670500D01*
X68396286Y-51670500D01*
X68396287Y-51670500D01*
X68606243Y-51637246D01*
X68808412Y-51571557D01*
X68997816Y-51475051D01*
X69053263Y-51434767D01*
X69169786Y-51350109D01*
X69169788Y-51350106D01*
X69169792Y-51350104D01*
X69320104Y-51199792D01*
X69320106Y-51199788D01*
X69320109Y-51199786D01*
X69429086Y-51049789D01*
X69445051Y-51027816D01*
X69449514Y-51019054D01*
X69497488Y-50968259D01*
X69565308Y-50951463D01*
X69631444Y-50973999D01*
X69670486Y-51019056D01*
X69674951Y-51027820D01*
X69799890Y-51199786D01*
X69950213Y-51350109D01*
X70122179Y-51475048D01*
X70122181Y-51475049D01*
X70122184Y-51475051D01*
X70311588Y-51571557D01*
X70513757Y-51637246D01*
X70723713Y-51670500D01*
X70723714Y-51670500D01*
X70936286Y-51670500D01*
X70936287Y-51670500D01*
X71146243Y-51637246D01*
X71348412Y-51571557D01*
X71537816Y-51475051D01*
X71593263Y-51434767D01*
X71709786Y-51350109D01*
X71709788Y-51350106D01*
X71709792Y-51350104D01*
X71860104Y-51199792D01*
X71860106Y-51199788D01*
X71860109Y-51199786D01*
X71969086Y-51049789D01*
X71985051Y-51027816D01*
X71989514Y-51019054D01*
X72037488Y-50968259D01*
X72105308Y-50951463D01*
X72171444Y-50973999D01*
X72210486Y-51019056D01*
X72214951Y-51027820D01*
X72339890Y-51199786D01*
X72490213Y-51350109D01*
X72662179Y-51475048D01*
X72662181Y-51475049D01*
X72662184Y-51475051D01*
X72851588Y-51571557D01*
X73053757Y-51637246D01*
X73263713Y-51670500D01*
X73263714Y-51670500D01*
X73476286Y-51670500D01*
X73476287Y-51670500D01*
X73686243Y-51637246D01*
X73888412Y-51571557D01*
X74077816Y-51475051D01*
X74133263Y-51434767D01*
X74249786Y-51350109D01*
X74249788Y-51350106D01*
X74249792Y-51350104D01*
X74400104Y-51199792D01*
X74400106Y-51199788D01*
X74400109Y-51199786D01*
X74509086Y-51049789D01*
X74525051Y-51027816D01*
X74529514Y-51019054D01*
X74577488Y-50968259D01*
X74645308Y-50951463D01*
X74711444Y-50973999D01*
X74750486Y-51019056D01*
X74754951Y-51027820D01*
X74879890Y-51199786D01*
X75030213Y-51350109D01*
X75202179Y-51475048D01*
X75202181Y-51475049D01*
X75202184Y-51475051D01*
X75391588Y-51571557D01*
X75593757Y-51637246D01*
X75803713Y-51670500D01*
X75803714Y-51670500D01*
X76016286Y-51670500D01*
X76016287Y-51670500D01*
X76226243Y-51637246D01*
X76428412Y-51571557D01*
X76617816Y-51475051D01*
X76673263Y-51434767D01*
X76789786Y-51350109D01*
X76789788Y-51350106D01*
X76789792Y-51350104D01*
X76940104Y-51199792D01*
X76940106Y-51199788D01*
X76940109Y-51199786D01*
X77049086Y-51049789D01*
X77065051Y-51027816D01*
X77161557Y-50838412D01*
X77227246Y-50636243D01*
X77260500Y-50426287D01*
X77260500Y-50213713D01*
X77227246Y-50003757D01*
X77161557Y-49801588D01*
X77065051Y-49612184D01*
X77065049Y-49612181D01*
X77065048Y-49612179D01*
X76940109Y-49440213D01*
X76789786Y-49289890D01*
X76617820Y-49164951D01*
X76428414Y-49068444D01*
X76428413Y-49068443D01*
X76428412Y-49068443D01*
X76226243Y-49002754D01*
X76226241Y-49002753D01*
X76226240Y-49002753D01*
X76064957Y-48977208D01*
X76016287Y-48969500D01*
X75803713Y-48969500D01*
X75755042Y-48977208D01*
X75593760Y-49002753D01*
X75391585Y-49068444D01*
X75202179Y-49164951D01*
X75030213Y-49289890D01*
X74879890Y-49440213D01*
X74754949Y-49612182D01*
X74750484Y-49620946D01*
X74702509Y-49671742D01*
X74634688Y-49688536D01*
X74568553Y-49665998D01*
X74529516Y-49620946D01*
X74525050Y-49612182D01*
X74400109Y-49440213D01*
X74249786Y-49289890D01*
X74077820Y-49164951D01*
X73888414Y-49068444D01*
X73888413Y-49068443D01*
X73888412Y-49068443D01*
X73686243Y-49002754D01*
X73686241Y-49002753D01*
X73686240Y-49002753D01*
X73524957Y-48977208D01*
X73476287Y-48969500D01*
X73263713Y-48969500D01*
X73215042Y-48977208D01*
X73053760Y-49002753D01*
X72851585Y-49068444D01*
X72662179Y-49164951D01*
X72490213Y-49289890D01*
X72339890Y-49440213D01*
X72214949Y-49612182D01*
X72210484Y-49620946D01*
X72162509Y-49671742D01*
X72094688Y-49688536D01*
X72028553Y-49665998D01*
X71989516Y-49620946D01*
X71985050Y-49612182D01*
X71860109Y-49440213D01*
X71709786Y-49289890D01*
X71537820Y-49164951D01*
X71348414Y-49068444D01*
X71348413Y-49068443D01*
X71348412Y-49068443D01*
X71146243Y-49002754D01*
X71146241Y-49002753D01*
X71146240Y-49002753D01*
X70984957Y-48977208D01*
X70936287Y-48969500D01*
X70723713Y-48969500D01*
X70675042Y-48977208D01*
X70513760Y-49002753D01*
X70311585Y-49068444D01*
X70122179Y-49164951D01*
X69950213Y-49289890D01*
X69799890Y-49440213D01*
X69674949Y-49612182D01*
X69670484Y-49620946D01*
X69622509Y-49671742D01*
X69554688Y-49688536D01*
X69488553Y-49665998D01*
X69449516Y-49620946D01*
X69445050Y-49612182D01*
X69320109Y-49440213D01*
X69169786Y-49289890D01*
X68997820Y-49164951D01*
X68808414Y-49068444D01*
X68808413Y-49068443D01*
X68808412Y-49068443D01*
X68606243Y-49002754D01*
X68606241Y-49002753D01*
X68606240Y-49002753D01*
X68444957Y-48977208D01*
X68396287Y-48969500D01*
X68183713Y-48969500D01*
X68135042Y-48977208D01*
X67973760Y-49002753D01*
X67771585Y-49068444D01*
X67582179Y-49164951D01*
X67410213Y-49289890D01*
X67259890Y-49440213D01*
X67134949Y-49612182D01*
X67130484Y-49620946D01*
X67082509Y-49671742D01*
X67014688Y-49688536D01*
X66948553Y-49665998D01*
X66909516Y-49620946D01*
X66905050Y-49612182D01*
X66780109Y-49440213D01*
X66629786Y-49289890D01*
X66457820Y-49164951D01*
X66268414Y-49068444D01*
X66268413Y-49068443D01*
X66268412Y-49068443D01*
X66066243Y-49002754D01*
X66066241Y-49002753D01*
X66066240Y-49002753D01*
X65904957Y-48977208D01*
X65856287Y-48969500D01*
X65643713Y-48969500D01*
X65595042Y-48977208D01*
X65433760Y-49002753D01*
X65231585Y-49068444D01*
X65042179Y-49164951D01*
X64870213Y-49289890D01*
X64719890Y-49440213D01*
X64594949Y-49612182D01*
X64590484Y-49620946D01*
X64542509Y-49671742D01*
X64474688Y-49688536D01*
X64408553Y-49665998D01*
X64369516Y-49620946D01*
X64365050Y-49612182D01*
X64240109Y-49440213D01*
X64089786Y-49289890D01*
X63917820Y-49164951D01*
X63728414Y-49068444D01*
X63728413Y-49068443D01*
X63728412Y-49068443D01*
X63526243Y-49002754D01*
X63526241Y-49002753D01*
X63526240Y-49002753D01*
X63364957Y-48977208D01*
X63316287Y-48969500D01*
X63103713Y-48969500D01*
X63055042Y-48977208D01*
X62893760Y-49002753D01*
X62691585Y-49068444D01*
X62502179Y-49164951D01*
X62330213Y-49289890D01*
X62179890Y-49440213D01*
X62054949Y-49612182D01*
X62050484Y-49620946D01*
X62002509Y-49671742D01*
X61934688Y-49688536D01*
X61868553Y-49665998D01*
X61829516Y-49620946D01*
X61825050Y-49612182D01*
X61700109Y-49440213D01*
X61549786Y-49289890D01*
X61377820Y-49164951D01*
X61188414Y-49068444D01*
X61188413Y-49068443D01*
X61188412Y-49068443D01*
X60986243Y-49002754D01*
X60986241Y-49002753D01*
X60986240Y-49002753D01*
X60824957Y-48977208D01*
X60776287Y-48969500D01*
X60563713Y-48969500D01*
X60515042Y-48977208D01*
X60353760Y-49002753D01*
X60151585Y-49068444D01*
X59962179Y-49164951D01*
X59790213Y-49289890D01*
X59639890Y-49440213D01*
X59514949Y-49612182D01*
X59510484Y-49620946D01*
X59462509Y-49671742D01*
X59394688Y-49688536D01*
X59328553Y-49665998D01*
X59289516Y-49620946D01*
X59285050Y-49612182D01*
X59160109Y-49440213D01*
X59009786Y-49289890D01*
X58837820Y-49164951D01*
X58648414Y-49068444D01*
X58648413Y-49068443D01*
X58648412Y-49068443D01*
X58446243Y-49002754D01*
X58446241Y-49002753D01*
X58446240Y-49002753D01*
X58284957Y-48977208D01*
X58236287Y-48969500D01*
X58023713Y-48969500D01*
X57975042Y-48977208D01*
X57813760Y-49002753D01*
X57611585Y-49068444D01*
X57422179Y-49164951D01*
X57250213Y-49289890D01*
X57099890Y-49440213D01*
X56974949Y-49612182D01*
X56970484Y-49620946D01*
X56922509Y-49671742D01*
X56854688Y-49688536D01*
X56788553Y-49665998D01*
X56749516Y-49620946D01*
X56745050Y-49612182D01*
X56620109Y-49440213D01*
X56469786Y-49289890D01*
X56297820Y-49164951D01*
X56108414Y-49068444D01*
X56108413Y-49068443D01*
X56108412Y-49068443D01*
X55906243Y-49002754D01*
X55906241Y-49002753D01*
X55906240Y-49002753D01*
X55744957Y-48977208D01*
X55696287Y-48969500D01*
X55483713Y-48969500D01*
X55435042Y-48977208D01*
X55273760Y-49002753D01*
X55071585Y-49068444D01*
X54882179Y-49164951D01*
X54710213Y-49289890D01*
X54559890Y-49440213D01*
X54434949Y-49612182D01*
X54430484Y-49620946D01*
X54382509Y-49671742D01*
X54314688Y-49688536D01*
X54248553Y-49665998D01*
X54209516Y-49620946D01*
X54205050Y-49612182D01*
X54080109Y-49440213D01*
X53929786Y-49289890D01*
X53757820Y-49164951D01*
X53568414Y-49068444D01*
X53568413Y-49068443D01*
X53568412Y-49068443D01*
X53366243Y-49002754D01*
X53366241Y-49002753D01*
X53366240Y-49002753D01*
X53204957Y-48977208D01*
X53156287Y-48969500D01*
X52943713Y-48969500D01*
X52895042Y-48977208D01*
X52733760Y-49002753D01*
X52531585Y-49068444D01*
X52342179Y-49164951D01*
X52170213Y-49289890D01*
X52019890Y-49440213D01*
X51894949Y-49612182D01*
X51890484Y-49620946D01*
X51842509Y-49671742D01*
X51774688Y-49688536D01*
X51708553Y-49665998D01*
X51669516Y-49620946D01*
X51665050Y-49612182D01*
X51540109Y-49440213D01*
X51389786Y-49289890D01*
X51217820Y-49164951D01*
X51028414Y-49068444D01*
X51028413Y-49068443D01*
X51028412Y-49068443D01*
X50826243Y-49002754D01*
X50826241Y-49002753D01*
X50826240Y-49002753D01*
X50664957Y-48977208D01*
X50616287Y-48969500D01*
X50403713Y-48969500D01*
X50355042Y-48977208D01*
X50193760Y-49002753D01*
X49991585Y-49068444D01*
X49802179Y-49164951D01*
X49630213Y-49289890D01*
X49479890Y-49440213D01*
X49354949Y-49612182D01*
X49350484Y-49620946D01*
X49302509Y-49671742D01*
X49234688Y-49688536D01*
X49168553Y-49665998D01*
X49129516Y-49620946D01*
X49125050Y-49612182D01*
X49000109Y-49440213D01*
X48849786Y-49289890D01*
X48677820Y-49164951D01*
X48488414Y-49068444D01*
X48488413Y-49068443D01*
X48488412Y-49068443D01*
X48286243Y-49002754D01*
X48286241Y-49002753D01*
X48286240Y-49002753D01*
X48124957Y-48977208D01*
X48076287Y-48969500D01*
X47863713Y-48969500D01*
X47815042Y-48977208D01*
X47653760Y-49002753D01*
X47451585Y-49068444D01*
X47262179Y-49164951D01*
X47090213Y-49289890D01*
X46939890Y-49440213D01*
X46814949Y-49612182D01*
X46810202Y-49621499D01*
X46762227Y-49672293D01*
X46694405Y-49689087D01*
X46628271Y-49666548D01*
X46589234Y-49621495D01*
X46584626Y-49612452D01*
X46545270Y-49558282D01*
X46545269Y-49558282D01*
X45912962Y-50190590D01*
X45895925Y-50127007D01*
X45830099Y-50012993D01*
X45737007Y-49919901D01*
X45622993Y-49854075D01*
X45559409Y-49837037D01*
X46191716Y-49204728D01*
X46137550Y-49165375D01*
X45948217Y-49068904D01*
X45746129Y-49003242D01*
X45536246Y-48970000D01*
X45323754Y-48970000D01*
X45113872Y-49003242D01*
X45113869Y-49003242D01*
X44911782Y-49068904D01*
X44722439Y-49165380D01*
X44668282Y-49204727D01*
X44668282Y-49204728D01*
X45300591Y-49837037D01*
X45237007Y-49854075D01*
X45122993Y-49919901D01*
X45029901Y-50012993D01*
X44964075Y-50127007D01*
X44947037Y-50190591D01*
X44314728Y-49558282D01*
X44314727Y-49558282D01*
X44275380Y-49612440D01*
X44275376Y-49612446D01*
X44270760Y-49621505D01*
X44222781Y-49672297D01*
X44154959Y-49689087D01*
X44088826Y-49666543D01*
X44049794Y-49621493D01*
X44045051Y-49612184D01*
X44045049Y-49612181D01*
X44045048Y-49612179D01*
X43920109Y-49440213D01*
X43769786Y-49289890D01*
X43597820Y-49164951D01*
X43408414Y-49068444D01*
X43408413Y-49068443D01*
X43408412Y-49068443D01*
X43206243Y-49002754D01*
X43206241Y-49002753D01*
X43206240Y-49002753D01*
X43044957Y-48977208D01*
X42996287Y-48969500D01*
X42783713Y-48969500D01*
X42735042Y-48977208D01*
X42573760Y-49002753D01*
X42371585Y-49068444D01*
X42182179Y-49164951D01*
X42010213Y-49289890D01*
X41859890Y-49440213D01*
X41734949Y-49612182D01*
X41730484Y-49620946D01*
X41682509Y-49671742D01*
X41614688Y-49688536D01*
X41548553Y-49665998D01*
X41509516Y-49620946D01*
X41505050Y-49612182D01*
X41380109Y-49440213D01*
X41229786Y-49289890D01*
X41057820Y-49164951D01*
X40868414Y-49068444D01*
X40868413Y-49068443D01*
X40868412Y-49068443D01*
X40666243Y-49002754D01*
X40666241Y-49002753D01*
X40666240Y-49002753D01*
X40504957Y-48977208D01*
X40456287Y-48969500D01*
X40243713Y-48969500D01*
X40195042Y-48977208D01*
X40033760Y-49002753D01*
X39831585Y-49068444D01*
X39642179Y-49164951D01*
X39470213Y-49289890D01*
X39319890Y-49440213D01*
X39194949Y-49612182D01*
X39190484Y-49620946D01*
X39142509Y-49671742D01*
X39074688Y-49688536D01*
X39008553Y-49665998D01*
X38969516Y-49620946D01*
X38965050Y-49612182D01*
X38840109Y-49440213D01*
X38689786Y-49289890D01*
X38517820Y-49164951D01*
X38328414Y-49068444D01*
X38328413Y-49068443D01*
X38328412Y-49068443D01*
X38126243Y-49002754D01*
X38126241Y-49002753D01*
X38126240Y-49002753D01*
X37964957Y-48977208D01*
X37916287Y-48969500D01*
X37703713Y-48969500D01*
X37655042Y-48977208D01*
X37493760Y-49002753D01*
X37291585Y-49068444D01*
X37102179Y-49164951D01*
X36930213Y-49289890D01*
X36779890Y-49440213D01*
X36654951Y-49612179D01*
X36558444Y-49801585D01*
X36492753Y-50003760D01*
X36459500Y-50213713D01*
X30500500Y-50213713D01*
X30500500Y-29893713D01*
X46619500Y-29893713D01*
X46619500Y-30106286D01*
X46652753Y-30316239D01*
X46718444Y-30518414D01*
X46814951Y-30707820D01*
X46939890Y-30879786D01*
X47090213Y-31030109D01*
X47262179Y-31155048D01*
X47262181Y-31155049D01*
X47262184Y-31155051D01*
X47451588Y-31251557D01*
X47653757Y-31317246D01*
X47863713Y-31350500D01*
X47863714Y-31350500D01*
X48076286Y-31350500D01*
X48076287Y-31350500D01*
X48286243Y-31317246D01*
X48488412Y-31251557D01*
X48677816Y-31155051D01*
X48714190Y-31128624D01*
X48849786Y-31030109D01*
X48849788Y-31030106D01*
X48849792Y-31030104D01*
X49000104Y-30879792D01*
X49000106Y-30879788D01*
X49000109Y-30879786D01*
X49125048Y-30707820D01*
X49125047Y-30707820D01*
X49125051Y-30707816D01*
X49129514Y-30699054D01*
X49177488Y-30648259D01*
X49245308Y-30631463D01*
X49311444Y-30653999D01*
X49350486Y-30699056D01*
X49354951Y-30707820D01*
X49479890Y-30879786D01*
X49630213Y-31030109D01*
X49802179Y-31155048D01*
X49802181Y-31155049D01*
X49802184Y-31155051D01*
X49991588Y-31251557D01*
X50193757Y-31317246D01*
X50403713Y-31350500D01*
X50403714Y-31350500D01*
X50616286Y-31350500D01*
X50616287Y-31350500D01*
X50826243Y-31317246D01*
X51028412Y-31251557D01*
X51171151Y-31178827D01*
X51239819Y-31165932D01*
X51304560Y-31192208D01*
X51344817Y-31249314D01*
X51348510Y-31305087D01*
X51350097Y-31305244D01*
X51349500Y-31311306D01*
X51349500Y-31488695D01*
X51384103Y-31662658D01*
X51384106Y-31662667D01*
X51451983Y-31826540D01*
X51451990Y-31826553D01*
X51550535Y-31974034D01*
X51550538Y-31974038D01*
X51675961Y-32099461D01*
X51675965Y-32099464D01*
X51823446Y-32198009D01*
X51823459Y-32198016D01*
X51944155Y-32248009D01*
X51987334Y-32265894D01*
X51987336Y-32265894D01*
X51987341Y-32265896D01*
X52161304Y-32300499D01*
X52161307Y-32300500D01*
X52161309Y-32300500D01*
X52338693Y-32300500D01*
X52338694Y-32300499D01*
X52396682Y-32288964D01*
X52512658Y-32265896D01*
X52512661Y-32265894D01*
X52512666Y-32265894D01*
X52676547Y-32198013D01*
X52824035Y-32099464D01*
X52913161Y-32010337D01*
X52974482Y-31976854D01*
X53044174Y-31981838D01*
X53096691Y-32019351D01*
X53100537Y-32024037D01*
X53225961Y-32149461D01*
X53225965Y-32149464D01*
X53373446Y-32248009D01*
X53373459Y-32248016D01*
X53496363Y-32298923D01*
X53537334Y-32315894D01*
X53537336Y-32315894D01*
X53537341Y-32315896D01*
X53711304Y-32350499D01*
X53711307Y-32350500D01*
X53711309Y-32350500D01*
X53888693Y-32350500D01*
X53888694Y-32350499D01*
X53946682Y-32338964D01*
X54062658Y-32315896D01*
X54062661Y-32315894D01*
X54062666Y-32315894D01*
X54226547Y-32248013D01*
X54374035Y-32149464D01*
X54499464Y-32024035D01*
X54598013Y-31876547D01*
X54665894Y-31712666D01*
X54672622Y-31678846D01*
X54700499Y-31538695D01*
X54700500Y-31538693D01*
X54700500Y-31361306D01*
X54683658Y-31276638D01*
X54689885Y-31207046D01*
X54732748Y-31151869D01*
X54798637Y-31128624D01*
X54866635Y-31144692D01*
X54878159Y-31152126D01*
X54882184Y-31155051D01*
X55071588Y-31251557D01*
X55273757Y-31317246D01*
X55483713Y-31350500D01*
X55483714Y-31350500D01*
X55696286Y-31350500D01*
X55696287Y-31350500D01*
X55906243Y-31317246D01*
X56108412Y-31251557D01*
X56297816Y-31155051D01*
X56334190Y-31128624D01*
X56469786Y-31030109D01*
X56469788Y-31030106D01*
X56469792Y-31030104D01*
X56620104Y-30879792D01*
X56620106Y-30879788D01*
X56620109Y-30879786D01*
X56745048Y-30707820D01*
X56745047Y-30707820D01*
X56745051Y-30707816D01*
X56749514Y-30699054D01*
X56797488Y-30648259D01*
X56865308Y-30631463D01*
X56931444Y-30653999D01*
X56970486Y-30699056D01*
X56974951Y-30707820D01*
X57099890Y-30879786D01*
X57250213Y-31030109D01*
X57422179Y-31155048D01*
X57422181Y-31155049D01*
X57422184Y-31155051D01*
X57611588Y-31251557D01*
X57813757Y-31317246D01*
X58023713Y-31350500D01*
X58023714Y-31350500D01*
X58236286Y-31350500D01*
X58236287Y-31350500D01*
X58446243Y-31317246D01*
X58648412Y-31251557D01*
X58837816Y-31155051D01*
X58874190Y-31128624D01*
X59009786Y-31030109D01*
X59009788Y-31030106D01*
X59009792Y-31030104D01*
X59160104Y-30879792D01*
X59160106Y-30879788D01*
X59160109Y-30879786D01*
X59285048Y-30707820D01*
X59285047Y-30707820D01*
X59285051Y-30707816D01*
X59289514Y-30699054D01*
X59337488Y-30648259D01*
X59405308Y-30631463D01*
X59471444Y-30653999D01*
X59510486Y-30699056D01*
X59514951Y-30707820D01*
X59639890Y-30879786D01*
X59790213Y-31030109D01*
X59962179Y-31155048D01*
X59962181Y-31155049D01*
X59962184Y-31155051D01*
X60151588Y-31251557D01*
X60353757Y-31317246D01*
X60563713Y-31350500D01*
X60563714Y-31350500D01*
X60776286Y-31350500D01*
X60776287Y-31350500D01*
X60986243Y-31317246D01*
X61188412Y-31251557D01*
X61377816Y-31155051D01*
X61414190Y-31128624D01*
X61549786Y-31030109D01*
X61549788Y-31030106D01*
X61549792Y-31030104D01*
X61700104Y-30879792D01*
X61700106Y-30879788D01*
X61700109Y-30879786D01*
X61825048Y-30707820D01*
X61825047Y-30707820D01*
X61825051Y-30707816D01*
X61829514Y-30699054D01*
X61877488Y-30648259D01*
X61945308Y-30631463D01*
X62011444Y-30653999D01*
X62050486Y-30699056D01*
X62054951Y-30707820D01*
X62179890Y-30879786D01*
X62330211Y-31030107D01*
X62435139Y-31106340D01*
X62477806Y-31161670D01*
X62483785Y-31231283D01*
X62476816Y-31254111D01*
X62430264Y-31366498D01*
X62430261Y-31366510D01*
X62399500Y-31521153D01*
X62399500Y-31678846D01*
X62430261Y-31833489D01*
X62430264Y-31833501D01*
X62490602Y-31979172D01*
X62490609Y-31979185D01*
X62578210Y-32110288D01*
X62578213Y-32110292D01*
X62689707Y-32221786D01*
X62689711Y-32221789D01*
X62820814Y-32309390D01*
X62820827Y-32309397D01*
X62920060Y-32350500D01*
X62966503Y-32369737D01*
X63121153Y-32400499D01*
X63121156Y-32400500D01*
X63121158Y-32400500D01*
X63278844Y-32400500D01*
X63278845Y-32400499D01*
X63433497Y-32369737D01*
X63563482Y-32315896D01*
X63579172Y-32309397D01*
X63579172Y-32309396D01*
X63579179Y-32309394D01*
X63710289Y-32221789D01*
X63821789Y-32110289D01*
X63909394Y-31979179D01*
X63911524Y-31974038D01*
X63923067Y-31946166D01*
X63969737Y-31833497D01*
X64000500Y-31678842D01*
X64000500Y-31521158D01*
X64000500Y-31521155D01*
X64000499Y-31521153D01*
X63969738Y-31366510D01*
X63969737Y-31366503D01*
X63967584Y-31361306D01*
X63927810Y-31265280D01*
X63920341Y-31195811D01*
X63951617Y-31133332D01*
X63969480Y-31117515D01*
X64089792Y-31030104D01*
X64240104Y-30879792D01*
X64240106Y-30879788D01*
X64240109Y-30879786D01*
X64365048Y-30707820D01*
X64365047Y-30707820D01*
X64365051Y-30707816D01*
X64369514Y-30699054D01*
X64417488Y-30648259D01*
X64485308Y-30631463D01*
X64551444Y-30653999D01*
X64590486Y-30699056D01*
X64594951Y-30707820D01*
X64719890Y-30879786D01*
X64870213Y-31030109D01*
X65042179Y-31155048D01*
X65042181Y-31155049D01*
X65042184Y-31155051D01*
X65231588Y-31251557D01*
X65433757Y-31317246D01*
X65643713Y-31350500D01*
X65643714Y-31350500D01*
X65856286Y-31350500D01*
X65856287Y-31350500D01*
X66066243Y-31317246D01*
X66268412Y-31251557D01*
X66457816Y-31155051D01*
X66494190Y-31128624D01*
X66629786Y-31030109D01*
X66629788Y-31030106D01*
X66629792Y-31030104D01*
X66780104Y-30879792D01*
X66780106Y-30879788D01*
X66780109Y-30879786D01*
X66905048Y-30707820D01*
X66905047Y-30707820D01*
X66905051Y-30707816D01*
X66909514Y-30699054D01*
X66957488Y-30648259D01*
X67025308Y-30631463D01*
X67091444Y-30653999D01*
X67130486Y-30699056D01*
X67134951Y-30707820D01*
X67259890Y-30879786D01*
X67410213Y-31030109D01*
X67582179Y-31155048D01*
X67582181Y-31155049D01*
X67582184Y-31155051D01*
X67771588Y-31251557D01*
X67973757Y-31317246D01*
X68183713Y-31350500D01*
X68183714Y-31350500D01*
X68396286Y-31350500D01*
X68396287Y-31350500D01*
X68606243Y-31317246D01*
X68808412Y-31251557D01*
X68997816Y-31155051D01*
X69034190Y-31128624D01*
X69169786Y-31030109D01*
X69169788Y-31030106D01*
X69169792Y-31030104D01*
X69320104Y-30879792D01*
X69320106Y-30879788D01*
X69320109Y-30879786D01*
X69445048Y-30707820D01*
X69445047Y-30707820D01*
X69445051Y-30707816D01*
X69449514Y-30699054D01*
X69497488Y-30648259D01*
X69565308Y-30631463D01*
X69631444Y-30653999D01*
X69670486Y-30699056D01*
X69674951Y-30707820D01*
X69799890Y-30879786D01*
X69950213Y-31030109D01*
X70122179Y-31155048D01*
X70122181Y-31155049D01*
X70122184Y-31155051D01*
X70311588Y-31251557D01*
X70513757Y-31317246D01*
X70723713Y-31350500D01*
X70723714Y-31350500D01*
X70936286Y-31350500D01*
X70936287Y-31350500D01*
X71146243Y-31317246D01*
X71348412Y-31251557D01*
X71537816Y-31155051D01*
X71574190Y-31128624D01*
X71709786Y-31030109D01*
X71709788Y-31030106D01*
X71709792Y-31030104D01*
X71860104Y-30879792D01*
X71860106Y-30879788D01*
X71860109Y-30879786D01*
X71985048Y-30707820D01*
X71985047Y-30707820D01*
X71985051Y-30707816D01*
X71989514Y-30699054D01*
X72037488Y-30648259D01*
X72105308Y-30631463D01*
X72171444Y-30653999D01*
X72210486Y-30699056D01*
X72214951Y-30707820D01*
X72339890Y-30879786D01*
X72490213Y-31030109D01*
X72662179Y-31155048D01*
X72662181Y-31155049D01*
X72662184Y-31155051D01*
X72851588Y-31251557D01*
X73053757Y-31317246D01*
X73263713Y-31350500D01*
X73263714Y-31350500D01*
X73476286Y-31350500D01*
X73476287Y-31350500D01*
X73686243Y-31317246D01*
X73888412Y-31251557D01*
X74077816Y-31155051D01*
X74114190Y-31128624D01*
X74249786Y-31030109D01*
X74249788Y-31030106D01*
X74249792Y-31030104D01*
X74400104Y-30879792D01*
X74400106Y-30879788D01*
X74400109Y-30879786D01*
X74525048Y-30707820D01*
X74525047Y-30707820D01*
X74525051Y-30707816D01*
X74529514Y-30699054D01*
X74577488Y-30648259D01*
X74645308Y-30631463D01*
X74711444Y-30653999D01*
X74750486Y-30699056D01*
X74754951Y-30707820D01*
X74879890Y-30879786D01*
X75030213Y-31030109D01*
X75202179Y-31155048D01*
X75202181Y-31155049D01*
X75202184Y-31155051D01*
X75391588Y-31251557D01*
X75593757Y-31317246D01*
X75803713Y-31350500D01*
X75803714Y-31350500D01*
X76016286Y-31350500D01*
X76016287Y-31350500D01*
X76226243Y-31317246D01*
X76428412Y-31251557D01*
X76617816Y-31155051D01*
X76654190Y-31128624D01*
X76789786Y-31030109D01*
X76789788Y-31030106D01*
X76789792Y-31030104D01*
X76940104Y-30879792D01*
X76940106Y-30879788D01*
X76940109Y-30879786D01*
X77065048Y-30707820D01*
X77065047Y-30707820D01*
X77065051Y-30707816D01*
X77161557Y-30518412D01*
X77227246Y-30316243D01*
X77260500Y-30106287D01*
X77260500Y-29893713D01*
X77227246Y-29683757D01*
X77161557Y-29481588D01*
X77065051Y-29292184D01*
X77065049Y-29292181D01*
X77065048Y-29292179D01*
X76940109Y-29120213D01*
X76789786Y-28969890D01*
X76617820Y-28844951D01*
X76428414Y-28748444D01*
X76428413Y-28748443D01*
X76428412Y-28748443D01*
X76226243Y-28682754D01*
X76226241Y-28682753D01*
X76226240Y-28682753D01*
X76064957Y-28657208D01*
X76016287Y-28649500D01*
X75803713Y-28649500D01*
X75755042Y-28657208D01*
X75593760Y-28682753D01*
X75391585Y-28748444D01*
X75202179Y-28844951D01*
X75030213Y-28969890D01*
X74879890Y-29120213D01*
X74754949Y-29292182D01*
X74750484Y-29300946D01*
X74702509Y-29351742D01*
X74634688Y-29368536D01*
X74568553Y-29345998D01*
X74529516Y-29300946D01*
X74525050Y-29292182D01*
X74400109Y-29120213D01*
X74249786Y-28969890D01*
X74077820Y-28844951D01*
X73888414Y-28748444D01*
X73888413Y-28748443D01*
X73888412Y-28748443D01*
X73686243Y-28682754D01*
X73686241Y-28682753D01*
X73686240Y-28682753D01*
X73524957Y-28657208D01*
X73476287Y-28649500D01*
X73263713Y-28649500D01*
X73215042Y-28657208D01*
X73053760Y-28682753D01*
X72851585Y-28748444D01*
X72662179Y-28844951D01*
X72490213Y-28969890D01*
X72339890Y-29120213D01*
X72214949Y-29292182D01*
X72210484Y-29300946D01*
X72162509Y-29351742D01*
X72094688Y-29368536D01*
X72028553Y-29345998D01*
X71989516Y-29300946D01*
X71985050Y-29292182D01*
X71860109Y-29120213D01*
X71709786Y-28969890D01*
X71537820Y-28844951D01*
X71348414Y-28748444D01*
X71348413Y-28748443D01*
X71348412Y-28748443D01*
X71146243Y-28682754D01*
X71146241Y-28682753D01*
X71146240Y-28682753D01*
X70984957Y-28657208D01*
X70936287Y-28649500D01*
X70723713Y-28649500D01*
X70675042Y-28657208D01*
X70513760Y-28682753D01*
X70311585Y-28748444D01*
X70122179Y-28844951D01*
X69950213Y-28969890D01*
X69799890Y-29120213D01*
X69674949Y-29292182D01*
X69670484Y-29300946D01*
X69622509Y-29351742D01*
X69554688Y-29368536D01*
X69488553Y-29345998D01*
X69449516Y-29300946D01*
X69445050Y-29292182D01*
X69320109Y-29120213D01*
X69169786Y-28969890D01*
X68997820Y-28844951D01*
X68808414Y-28748444D01*
X68808413Y-28748443D01*
X68808412Y-28748443D01*
X68606243Y-28682754D01*
X68606241Y-28682753D01*
X68606240Y-28682753D01*
X68444957Y-28657208D01*
X68396287Y-28649500D01*
X68183713Y-28649500D01*
X68135042Y-28657208D01*
X67973760Y-28682753D01*
X67771585Y-28748444D01*
X67582179Y-28844951D01*
X67410213Y-28969890D01*
X67259890Y-29120213D01*
X67134949Y-29292182D01*
X67130484Y-29300946D01*
X67082509Y-29351742D01*
X67014688Y-29368536D01*
X66948553Y-29345998D01*
X66909516Y-29300946D01*
X66905050Y-29292182D01*
X66780109Y-29120213D01*
X66629786Y-28969890D01*
X66457820Y-28844951D01*
X66268414Y-28748444D01*
X66268413Y-28748443D01*
X66268412Y-28748443D01*
X66066243Y-28682754D01*
X66066241Y-28682753D01*
X66066240Y-28682753D01*
X65904957Y-28657208D01*
X65856287Y-28649500D01*
X65643713Y-28649500D01*
X65595042Y-28657208D01*
X65433760Y-28682753D01*
X65231585Y-28748444D01*
X65042179Y-28844951D01*
X64870213Y-28969890D01*
X64719890Y-29120213D01*
X64594949Y-29292182D01*
X64590484Y-29300946D01*
X64542509Y-29351742D01*
X64474688Y-29368536D01*
X64408553Y-29345998D01*
X64369516Y-29300946D01*
X64365050Y-29292182D01*
X64240109Y-29120213D01*
X64089786Y-28969890D01*
X63917820Y-28844951D01*
X63728414Y-28748444D01*
X63728413Y-28748443D01*
X63728412Y-28748443D01*
X63526243Y-28682754D01*
X63526241Y-28682753D01*
X63526240Y-28682753D01*
X63364957Y-28657208D01*
X63316287Y-28649500D01*
X63103713Y-28649500D01*
X63055042Y-28657208D01*
X62893760Y-28682753D01*
X62691585Y-28748444D01*
X62502179Y-28844951D01*
X62330213Y-28969890D01*
X62179890Y-29120213D01*
X62054949Y-29292182D01*
X62050484Y-29300946D01*
X62002509Y-29351742D01*
X61934688Y-29368536D01*
X61868553Y-29345998D01*
X61829516Y-29300946D01*
X61825050Y-29292182D01*
X61700109Y-29120213D01*
X61549786Y-28969890D01*
X61377820Y-28844951D01*
X61188414Y-28748444D01*
X61188413Y-28748443D01*
X61188412Y-28748443D01*
X60986243Y-28682754D01*
X60986241Y-28682753D01*
X60986240Y-28682753D01*
X60824957Y-28657208D01*
X60776287Y-28649500D01*
X60563713Y-28649500D01*
X60515042Y-28657208D01*
X60353760Y-28682753D01*
X60151585Y-28748444D01*
X59962179Y-28844951D01*
X59790213Y-28969890D01*
X59639890Y-29120213D01*
X59514949Y-29292182D01*
X59510484Y-29300946D01*
X59462509Y-29351742D01*
X59394688Y-29368536D01*
X59328553Y-29345998D01*
X59289516Y-29300946D01*
X59285050Y-29292182D01*
X59160109Y-29120213D01*
X59009786Y-28969890D01*
X58837820Y-28844951D01*
X58648414Y-28748444D01*
X58648413Y-28748443D01*
X58648412Y-28748443D01*
X58446243Y-28682754D01*
X58446241Y-28682753D01*
X58446240Y-28682753D01*
X58284957Y-28657208D01*
X58236287Y-28649500D01*
X58023713Y-28649500D01*
X57975042Y-28657208D01*
X57813760Y-28682753D01*
X57611585Y-28748444D01*
X57422179Y-28844951D01*
X57250213Y-28969890D01*
X57099890Y-29120213D01*
X56974949Y-29292182D01*
X56970484Y-29300946D01*
X56922509Y-29351742D01*
X56854688Y-29368536D01*
X56788553Y-29345998D01*
X56749516Y-29300946D01*
X56745050Y-29292182D01*
X56620109Y-29120213D01*
X56469786Y-28969890D01*
X56297820Y-28844951D01*
X56108414Y-28748444D01*
X56108413Y-28748443D01*
X56108412Y-28748443D01*
X55906243Y-28682754D01*
X55906241Y-28682753D01*
X55906240Y-28682753D01*
X55744957Y-28657208D01*
X55696287Y-28649500D01*
X55483713Y-28649500D01*
X55435042Y-28657208D01*
X55273760Y-28682753D01*
X55071585Y-28748444D01*
X54882179Y-28844951D01*
X54710213Y-28969890D01*
X54559890Y-29120213D01*
X54434949Y-29292182D01*
X54430484Y-29300946D01*
X54382509Y-29351742D01*
X54314688Y-29368536D01*
X54248553Y-29345998D01*
X54209516Y-29300946D01*
X54205050Y-29292182D01*
X54080109Y-29120213D01*
X53929786Y-28969890D01*
X53757820Y-28844951D01*
X53568414Y-28748444D01*
X53568413Y-28748443D01*
X53568412Y-28748443D01*
X53366243Y-28682754D01*
X53366241Y-28682753D01*
X53366240Y-28682753D01*
X53204957Y-28657208D01*
X53156287Y-28649500D01*
X52943713Y-28649500D01*
X52895042Y-28657208D01*
X52733760Y-28682753D01*
X52531585Y-28748444D01*
X52342179Y-28844951D01*
X52170213Y-28969890D01*
X52019890Y-29120213D01*
X51894949Y-29292182D01*
X51890484Y-29300946D01*
X51842509Y-29351742D01*
X51774688Y-29368536D01*
X51708553Y-29345998D01*
X51669516Y-29300946D01*
X51665050Y-29292182D01*
X51540109Y-29120213D01*
X51389786Y-28969890D01*
X51217820Y-28844951D01*
X51028414Y-28748444D01*
X51028413Y-28748443D01*
X51028412Y-28748443D01*
X50826243Y-28682754D01*
X50826241Y-28682753D01*
X50826240Y-28682753D01*
X50664957Y-28657208D01*
X50616287Y-28649500D01*
X50403713Y-28649500D01*
X50355042Y-28657208D01*
X50193760Y-28682753D01*
X49991585Y-28748444D01*
X49802179Y-28844951D01*
X49630213Y-28969890D01*
X49479890Y-29120213D01*
X49354949Y-29292182D01*
X49350484Y-29300946D01*
X49302509Y-29351742D01*
X49234688Y-29368536D01*
X49168553Y-29345998D01*
X49129516Y-29300946D01*
X49125050Y-29292182D01*
X49000109Y-29120213D01*
X48849786Y-28969890D01*
X48677820Y-28844951D01*
X48488414Y-28748444D01*
X48488413Y-28748443D01*
X48488412Y-28748443D01*
X48286243Y-28682754D01*
X48286241Y-28682753D01*
X48286240Y-28682753D01*
X48124957Y-28657208D01*
X48076287Y-28649500D01*
X47863713Y-28649500D01*
X47815042Y-28657208D01*
X47653760Y-28682753D01*
X47451585Y-28748444D01*
X47262179Y-28844951D01*
X47090213Y-28969890D01*
X46939890Y-29120213D01*
X46814951Y-29292179D01*
X46718444Y-29481585D01*
X46652753Y-29683760D01*
X46619500Y-29893713D01*
X30500500Y-29893713D01*
X30500500Y-24778711D01*
X32949500Y-24778711D01*
X32949500Y-25021288D01*
X32981161Y-25261785D01*
X33043947Y-25496104D01*
X33136773Y-25720205D01*
X33136776Y-25720212D01*
X33258064Y-25930289D01*
X33258066Y-25930292D01*
X33258067Y-25930293D01*
X33405733Y-26122736D01*
X33405739Y-26122743D01*
X33577256Y-26294260D01*
X33577262Y-26294265D01*
X33769711Y-26441936D01*
X33979788Y-26563224D01*
X34203900Y-26656054D01*
X34438211Y-26718838D01*
X34618586Y-26742584D01*
X34678711Y-26750500D01*
X34678712Y-26750500D01*
X34921289Y-26750500D01*
X34969388Y-26744167D01*
X35161789Y-26718838D01*
X35396100Y-26656054D01*
X35620212Y-26563224D01*
X35830289Y-26441936D01*
X36022738Y-26294265D01*
X36194265Y-26122738D01*
X36341936Y-25930289D01*
X36463224Y-25720212D01*
X36556054Y-25496100D01*
X36618838Y-25261789D01*
X36650500Y-25021288D01*
X36650500Y-24778712D01*
X36650500Y-24778711D01*
X153009500Y-24778711D01*
X153009500Y-25021288D01*
X153041161Y-25261785D01*
X153103947Y-25496104D01*
X153196773Y-25720205D01*
X153196776Y-25720212D01*
X153318064Y-25930289D01*
X153318066Y-25930292D01*
X153318067Y-25930293D01*
X153465733Y-26122736D01*
X153465739Y-26122743D01*
X153637256Y-26294260D01*
X153637262Y-26294265D01*
X153829711Y-26441936D01*
X154039788Y-26563224D01*
X154263900Y-26656054D01*
X154498211Y-26718838D01*
X154678586Y-26742584D01*
X154738711Y-26750500D01*
X154738712Y-26750500D01*
X154981289Y-26750500D01*
X155029388Y-26744167D01*
X155221789Y-26718838D01*
X155456100Y-26656054D01*
X155680212Y-26563224D01*
X155890289Y-26441936D01*
X156082738Y-26294265D01*
X156254265Y-26122738D01*
X156401936Y-25930289D01*
X156523224Y-25720212D01*
X156616054Y-25496100D01*
X156678838Y-25261789D01*
X156710500Y-25021288D01*
X156710500Y-24778712D01*
X156678838Y-24538211D01*
X156616054Y-24303900D01*
X156523224Y-24079788D01*
X156401936Y-23869711D01*
X156254265Y-23677262D01*
X156254260Y-23677256D01*
X156082743Y-23505739D01*
X156082736Y-23505733D01*
X155890293Y-23358067D01*
X155890292Y-23358066D01*
X155890289Y-23358064D01*
X155680212Y-23236776D01*
X155680205Y-23236773D01*
X155456104Y-23143947D01*
X155221785Y-23081161D01*
X154981289Y-23049500D01*
X154981288Y-23049500D01*
X154738712Y-23049500D01*
X154738711Y-23049500D01*
X154498214Y-23081161D01*
X154263895Y-23143947D01*
X154039794Y-23236773D01*
X154039785Y-23236777D01*
X153829706Y-23358067D01*
X153637263Y-23505733D01*
X153637256Y-23505739D01*
X153465739Y-23677256D01*
X153465733Y-23677263D01*
X153318067Y-23869706D01*
X153196777Y-24079785D01*
X153196773Y-24079794D01*
X153103947Y-24303895D01*
X153041161Y-24538214D01*
X153009500Y-24778711D01*
X36650500Y-24778711D01*
X36618838Y-24538211D01*
X36556054Y-24303900D01*
X36463224Y-24079788D01*
X36341936Y-23869711D01*
X36194265Y-23677262D01*
X36194260Y-23677256D01*
X36022743Y-23505739D01*
X36022736Y-23505733D01*
X35830293Y-23358067D01*
X35830292Y-23358066D01*
X35830289Y-23358064D01*
X35620212Y-23236776D01*
X35620205Y-23236773D01*
X35396104Y-23143947D01*
X35161785Y-23081161D01*
X34921289Y-23049500D01*
X34921288Y-23049500D01*
X34678712Y-23049500D01*
X34678711Y-23049500D01*
X34438214Y-23081161D01*
X34203895Y-23143947D01*
X33979794Y-23236773D01*
X33979785Y-23236777D01*
X33769706Y-23358067D01*
X33577263Y-23505733D01*
X33577256Y-23505739D01*
X33405739Y-23677256D01*
X33405733Y-23677263D01*
X33258067Y-23869706D01*
X33136777Y-24079785D01*
X33136773Y-24079794D01*
X33043947Y-24303895D01*
X32981161Y-24538214D01*
X32949500Y-24778711D01*
X30500500Y-24778711D01*
X30500500Y-20624500D01*
X30520185Y-20557461D01*
X30572989Y-20511706D01*
X30624500Y-20500500D01*
X159375500Y-20500500D01*
X159442539Y-20520185D01*
G37*
%TD.AperFunction*%
%TD*%
M02*
