%TF.GenerationSoftware,KiCad,Pcbnew,10.0.0*%
%TF.CreationDate,2026-05-11T18:02:44-04:00*%
%TF.ProjectId,dds,6464732e-6b69-4636-9164-5f7063625858,rev?*%
%TF.SameCoordinates,Original*%
%TF.FileFunction,Copper,L3,Inr*%
%TF.FilePolarity,Positive*%
%FSLAX46Y46*%
G04 Gerber Fmt 4.6, Leading zero omitted, Abs format (unit mm)*
G04 Created by KiCad (PCBNEW 10.0.0) date 2026-05-11 18:02:44*
%MOMM*%
%LPD*%
G01*
G04 APERTURE LIST*
%TA.AperFunction,ComponentPad*%
%ADD10C,1.700000*%
%TD*%
%TA.AperFunction,ComponentPad*%
%ADD11C,2.400000*%
%TD*%
%TA.AperFunction,ComponentPad*%
%ADD12C,2.000000*%
%TD*%
%TA.AperFunction,ComponentPad*%
%ADD13C,4.155000*%
%TD*%
%TA.AperFunction,ComponentPad*%
%ADD14R,1.650000X1.650000*%
%TD*%
%TA.AperFunction,ComponentPad*%
%ADD15C,1.650000*%
%TD*%
%TA.AperFunction,ViaPad*%
%ADD16C,0.600000*%
%TD*%
%TA.AperFunction,ViaPad*%
%ADD17C,0.800000*%
%TD*%
%TA.AperFunction,Conductor*%
%ADD18C,0.600000*%
%TD*%
G04 APERTURE END LIST*
D10*
%TO.N,unconnected-(U2-RESET-Pad1)*%
%TO.C,U2*%
X37810000Y-50320000D03*
%TO.N,/3.3V*%
X40350000Y-50320000D03*
%TO.N,unconnected-(U2-3.3V-Pad3)*%
X42890000Y-50320000D03*
%TO.N,GND*%
X45430000Y-50320000D03*
%TO.N,unconnected-(U2-A0{slash}GPIO26-Pad5)*%
X47970000Y-50320000D03*
%TO.N,unconnected-(U2-A1{slash}GPIO27-Pad6)*%
X50510000Y-50320000D03*
%TO.N,unconnected-(U2-A2{slash}GPIO28-Pad7)*%
X53050000Y-50320000D03*
%TO.N,unconnected-(U2-A3{slash}GPIO29-Pad8)*%
X55590000Y-50320000D03*
%TO.N,unconnected-(U2-D24{slash}GPIO24-Pad9)*%
X58130000Y-50320000D03*
%TO.N,unconnected-(U2-D25{slash}GPIO25-Pad10)*%
X60670000Y-50320000D03*
%TO.N,/SCLK*%
X63210000Y-50320000D03*
%TO.N,/SDATA*%
X65750000Y-50320000D03*
%TO.N,unconnected-(U2-MISO{slash}GPIO20-Pad13)*%
X68290000Y-50320000D03*
%TO.N,unconnected-(U2-RX{slash}CS{slash}GPIO1-Pad14)*%
X70830000Y-50320000D03*
%TO.N,unconnected-(U2-TX{slash}GPIO0-Pad15)*%
X73370000Y-50320000D03*
%TO.N,/RESET*%
X75910000Y-50320000D03*
%TO.N,unconnected-(U2-SDA{slash}GPIO2-Pad17)*%
X75910000Y-30000000D03*
%TO.N,unconnected-(U2-SCL{slash}GPIO3-Pad18)*%
X73370000Y-30000000D03*
%TO.N,/FSYNC2*%
X70830000Y-30000000D03*
%TO.N,/PSEL*%
X68290000Y-30000000D03*
%TO.N,unconnected-(U2-D9{slash}GPIO9-Pad21)*%
X65750000Y-30000000D03*
%TO.N,/FSYNC1*%
X63210000Y-30000000D03*
%TO.N,/EN_B1*%
X60670000Y-30000000D03*
%TO.N,/EN_A1*%
X58130000Y-30000000D03*
%TO.N,/EN_E1*%
X55590000Y-30000000D03*
%TO.N,/Vbus_5V*%
X53050000Y-30000000D03*
%TO.N,unconnected-(U2-ENABLE-Pad27)*%
X50510000Y-30000000D03*
%TO.N,unconnected-(U2-VBat-Pad28)*%
X47970000Y-30000000D03*
%TD*%
D11*
%TO.N,GND*%
%TO.C,REF5*%
X66640000Y-61640000D03*
%TD*%
%TO.N,GND*%
%TO.C,REF4*%
X73500000Y-129400000D03*
%TD*%
%TO.N,Net-(AMPIOUT1-Pad1)*%
%TO.C,AMPIOUT1*%
X73440000Y-124142000D03*
%TD*%
%TO.N,/SCLK*%
%TO.C,SCLK1*%
X82090000Y-61750000D03*
%TD*%
%TO.N,GND*%
%TO.C,REF2*%
X142000000Y-63200000D03*
%TD*%
D12*
%TO.N,/DDS2_IOUT*%
%TO.C,DDSOUT2*%
X123550000Y-85100000D03*
%TD*%
D11*
%TO.N,/FSYNC1*%
%TO.C,FSYNC1*%
X76050000Y-61750000D03*
%TD*%
%TO.N,Net-(AMPIOUT2-Pad1)*%
%TO.C,AMPIOUT2*%
X142000000Y-74750000D03*
%TD*%
%TO.N,/RESET*%
%TO.C,RESET1*%
X94170000Y-61750000D03*
%TD*%
%TO.N,/FSYNC2*%
%TO.C,FSYNC2*%
X106250000Y-61750000D03*
%TD*%
%TO.N,GND*%
%TO.C,REF3*%
X85200000Y-102900000D03*
%TD*%
D12*
%TO.N,/DDS1_IOUTB*%
%TO.C,DDSIOUT1*%
X74775000Y-101450000D03*
%TD*%
D11*
%TO.N,/SDATA*%
%TO.C,SDATA1*%
X88130000Y-61750000D03*
%TD*%
%TO.N,/PSEL*%
%TO.C,TP1*%
X100300000Y-61750000D03*
%TD*%
D13*
%TO.N,unconnected-(U1-MH1-Pad6)*%
%TO.C,U1*%
X139150000Y-135350000D03*
%TO.N,unconnected-(U1-MH2-Pad7)*%
X150850000Y-135350000D03*
D14*
%TO.N,/EN_A1*%
X142500000Y-136600000D03*
D15*
%TO.N,/EN_B1*%
X147500000Y-136600000D03*
%TO.N,GND*%
X145000000Y-136600000D03*
X142500000Y-134100000D03*
%TO.N,/EN_E1*%
X147500000Y-134100000D03*
%TD*%
D12*
%TO.N,/DDS2_IOUTB*%
%TO.C,DDSIOUT2*%
X114400000Y-74850000D03*
%TD*%
D11*
%TO.N,GND*%
%TO.C,REF1*%
X113400000Y-69000000D03*
%TD*%
D12*
%TO.N,/DDS1_IOUT*%
%TO.C,DDSOUT1*%
X67750000Y-101450000D03*
%TD*%
D16*
%TO.N,GND*%
X78850000Y-120100000D03*
X139800000Y-92100000D03*
X81700000Y-138500000D03*
X148500000Y-43500000D03*
X125700000Y-91300000D03*
X80000000Y-63800000D03*
X66800000Y-124198000D03*
X119700000Y-82500000D03*
X69550000Y-93200000D03*
X50100000Y-124448000D03*
X125742000Y-79885000D03*
X47700000Y-33100000D03*
X64100000Y-134900000D03*
X98300000Y-63800000D03*
X60000000Y-93000000D03*
X141650000Y-97900000D03*
X75000000Y-98688000D03*
X137500000Y-131000000D03*
X45460000Y-52440000D03*
X105787549Y-137072080D03*
X62250000Y-105750000D03*
X124287549Y-134872080D03*
X72900000Y-90500000D03*
X38300000Y-134800000D03*
X110930000Y-139140000D03*
X132690000Y-138940000D03*
X88600000Y-94900000D03*
X67150000Y-137000000D03*
X90900000Y-78500000D03*
X36700000Y-138150000D03*
X111500000Y-67100000D03*
X122600000Y-82500000D03*
X59800000Y-48000000D03*
X64100000Y-33071429D03*
X76000000Y-89700000D03*
X40600000Y-112200000D03*
X108350000Y-108400000D03*
X149500000Y-131000000D03*
X57600000Y-124448000D03*
X121100000Y-82500000D03*
X112450000Y-76150000D03*
X55550000Y-137150000D03*
X60000000Y-33082857D03*
X139600000Y-100300000D03*
X92100000Y-63800000D03*
X105150000Y-114800000D03*
X76000000Y-90500000D03*
X43600000Y-33077143D03*
X102910000Y-114190000D03*
X89500000Y-138500000D03*
X99000000Y-84100000D03*
X55550000Y-138250000D03*
X45250000Y-134800000D03*
X111750000Y-84000000D03*
X116750000Y-114250000D03*
X141600000Y-79000000D03*
X105787549Y-138222080D03*
X120400000Y-92100000D03*
X106160000Y-86600000D03*
X112050000Y-121050000D03*
X99000000Y-79100000D03*
X65950000Y-124198000D03*
X71400000Y-127500000D03*
X55000000Y-112500000D03*
X140100000Y-108200000D03*
X47800000Y-122500000D03*
X57150000Y-134900000D03*
X115400000Y-71000000D03*
X33000000Y-68200000D03*
X51500000Y-123750000D03*
X99600000Y-85500000D03*
X102787549Y-134872080D03*
X80250000Y-74500000D03*
X141600000Y-90650000D03*
X99000000Y-81400000D03*
X139600000Y-84100000D03*
X48250000Y-137000000D03*
X58450000Y-124448000D03*
X125787549Y-137072080D03*
X130000000Y-90500000D03*
X75850000Y-98688000D03*
X139900000Y-104200000D03*
X144000000Y-65200000D03*
X141650000Y-98750000D03*
X104400000Y-63800000D03*
X39852000Y-122650000D03*
X127500000Y-104500000D03*
X155000000Y-114500000D03*
X99650000Y-100500000D03*
X68000000Y-48000000D03*
X43400000Y-114400000D03*
X89200000Y-93500000D03*
X141300000Y-100300000D03*
X119450000Y-75500000D03*
X129180000Y-138920000D03*
X32710000Y-138660000D03*
X81050000Y-98688000D03*
X69650000Y-124148000D03*
X89200000Y-88300000D03*
X143000000Y-131000000D03*
X62100000Y-109900000D03*
X51500000Y-122500000D03*
X85500000Y-113000000D03*
X127550000Y-92800000D03*
X80200000Y-98688000D03*
X92000000Y-80200000D03*
X51600000Y-48000000D03*
X64650000Y-107838000D03*
X141000000Y-88300000D03*
X75500000Y-131500000D03*
X122787549Y-134872080D03*
X141600000Y-105850000D03*
X63900000Y-48000000D03*
X44060000Y-52440000D03*
X97000000Y-108500000D03*
X40600000Y-124600000D03*
X130100000Y-77700000D03*
X67800000Y-124500000D03*
X141300000Y-96200000D03*
X141000000Y-108200000D03*
X56250000Y-123750000D03*
X39650000Y-134800000D03*
X111750000Y-84800000D03*
X114237549Y-137122080D03*
X49770000Y-33060000D03*
X97187549Y-134872080D03*
X102890000Y-113400000D03*
X131400000Y-108300000D03*
X43400000Y-113300000D03*
X66600000Y-104912000D03*
X83200000Y-101000000D03*
X121250000Y-92100000D03*
X58500000Y-134900000D03*
X110300000Y-83200000D03*
X80000000Y-108250000D03*
X114237549Y-138222080D03*
X108270000Y-139170000D03*
X89200000Y-90600000D03*
X75650000Y-121350000D03*
X127550000Y-93650000D03*
X63800000Y-107838000D03*
X78000000Y-63800000D03*
X46860000Y-52440000D03*
X88700000Y-91600000D03*
X115837549Y-134872080D03*
X121550000Y-80150000D03*
X94237549Y-138222080D03*
X36700000Y-137050000D03*
X124150000Y-81750000D03*
X67450000Y-104912000D03*
X109500000Y-87600000D03*
X140200000Y-61300000D03*
X117187549Y-134872080D03*
X57500000Y-107500000D03*
X123300000Y-81750000D03*
X78450000Y-98738000D03*
X66100000Y-104200000D03*
X64500000Y-123600000D03*
X60000000Y-122500000D03*
X105250000Y-95050000D03*
X46750000Y-134800000D03*
X68500000Y-63500000D03*
X88700000Y-89000000D03*
X89150000Y-74010000D03*
X47800000Y-123700000D03*
X75800000Y-82200000D03*
X112900000Y-121050000D03*
X78710000Y-87900000D03*
X107250000Y-76100000D03*
X78100000Y-88500000D03*
X130600000Y-106650000D03*
X69400000Y-92200000D03*
X109500000Y-84700000D03*
X141650000Y-82700000D03*
X73900000Y-138500000D03*
X85500000Y-124000000D03*
X139900000Y-88300000D03*
X94237549Y-137122080D03*
X140900000Y-104300000D03*
X136500000Y-37000000D03*
X67150000Y-138200000D03*
X52040000Y-138880000D03*
X131500000Y-104400000D03*
X77600000Y-98738000D03*
X64500000Y-108862000D03*
X64200000Y-92700000D03*
X47500000Y-48000000D03*
X132500000Y-104400000D03*
X141600000Y-106700000D03*
X33000000Y-90700000D03*
X141100000Y-84100000D03*
X60000000Y-123750000D03*
X81798000Y-106000000D03*
X62250000Y-107250000D03*
X81000000Y-104500000D03*
X49250000Y-124448000D03*
X155000000Y-125000000D03*
X68200000Y-33094286D03*
X130000000Y-98000000D03*
X141650000Y-81850000D03*
X139100000Y-71825000D03*
X71400000Y-126100000D03*
X81798000Y-106850000D03*
X80000000Y-104500000D03*
X78100000Y-86800000D03*
X126200000Y-95200000D03*
X86100000Y-63800000D03*
X64600000Y-122200000D03*
X141100000Y-92100000D03*
X139700000Y-96200000D03*
X119450000Y-74650000D03*
X109750000Y-76150000D03*
X68050000Y-108200000D03*
X70400000Y-93200000D03*
X70600000Y-92200000D03*
X78100000Y-90500000D03*
X48250000Y-138150000D03*
X39912000Y-114430000D03*
X50500000Y-107500000D03*
X60525000Y-110150000D03*
X57470000Y-33065714D03*
X68050000Y-108850000D03*
X76400000Y-86800000D03*
X141600000Y-89800000D03*
X65100000Y-124600000D03*
X104287549Y-134872080D03*
X42100000Y-124700000D03*
X129500000Y-67000000D03*
X65000000Y-92700000D03*
X97000000Y-124000000D03*
X62500000Y-89500000D03*
X63462000Y-95000000D03*
X39912000Y-113580000D03*
X81000000Y-108250000D03*
X76500000Y-121350000D03*
X48000000Y-112500000D03*
X39500000Y-33088571D03*
X95837549Y-134872080D03*
X121550000Y-81000000D03*
X46200000Y-48000000D03*
X76400000Y-88500000D03*
X81600000Y-87900000D03*
X87200000Y-104800000D03*
X39300000Y-48000000D03*
X130600000Y-105800000D03*
X116750000Y-115100000D03*
X136500000Y-28000000D03*
X33000000Y-98500000D03*
X73700000Y-121350000D03*
X33000000Y-76000000D03*
X64800000Y-59800000D03*
X72850000Y-121350000D03*
X33000000Y-60400000D03*
X135500000Y-58000000D03*
X99600000Y-79900000D03*
X111500000Y-83200000D03*
X139100000Y-72675000D03*
X63462000Y-94150000D03*
X126392000Y-79885000D03*
X56250000Y-122500000D03*
X127300000Y-85500000D03*
X108800000Y-112150000D03*
X63650000Y-108862000D03*
X39852000Y-123500000D03*
X114850000Y-84000000D03*
X55700000Y-48000000D03*
X139100000Y-75575000D03*
X108350000Y-109250000D03*
X128150000Y-85500000D03*
X127000000Y-91300000D03*
X125400000Y-83300000D03*
X74650000Y-77300000D03*
X90800000Y-79600000D03*
X65600000Y-134900000D03*
X122500000Y-67000000D03*
X68800000Y-124148000D03*
X43400000Y-48000000D03*
X99600000Y-82700000D03*
X104300000Y-114800000D03*
X109050000Y-86600000D03*
X139100000Y-74725000D03*
X78850000Y-120950000D03*
X44800000Y-48000000D03*
X110300000Y-86000000D03*
X141600000Y-79850000D03*
X125787549Y-138222080D03*
X60000000Y-98500000D03*
X78850000Y-119200000D03*
X89200000Y-73200000D03*
X33000000Y-82900000D03*
X105250000Y-97800000D03*
X42000000Y-112200000D03*
X74650000Y-80000000D03*
X67300000Y-104200000D03*
X79800000Y-72700000D03*
X132200000Y-108300000D03*
X125500000Y-80800000D03*
D17*
%TO.N,/3.3V*%
X40340000Y-52800000D03*
X41790000Y-52360000D03*
X95250000Y-73230000D03*
D16*
X99500000Y-76400000D03*
X88600000Y-96800000D03*
X84120000Y-93200000D03*
D17*
X38940000Y-52460000D03*
D16*
X99510000Y-77450000D03*
X88600000Y-98100000D03*
%TO.N,/PSEL*%
X99000000Y-95000000D03*
%TO.N,/RESET*%
X74400000Y-84800000D03*
X113350000Y-89650000D03*
%TO.N,/SDATA*%
X115600000Y-85750000D03*
X72400000Y-87200000D03*
%TO.N,/SCLK*%
X114900000Y-86550000D03*
X71100000Y-87600000D03*
%TO.N,/FSYNC2*%
X111850000Y-85950000D03*
D17*
%TO.N,/4.5V*%
X115950000Y-110000000D03*
X74600000Y-115700000D03*
X63100000Y-114650000D03*
X76600000Y-115710000D03*
X133343000Y-72400000D03*
X117110000Y-111390000D03*
X133433000Y-73790000D03*
X64200000Y-114650000D03*
X114600000Y-110000000D03*
X132150000Y-83990000D03*
X131050000Y-85600000D03*
D16*
%TO.N,/FSYNC1*%
X72400000Y-88600000D03*
X63200000Y-31600000D03*
D17*
%TO.N,/Vbus_5V*%
X52250000Y-31400000D03*
X103950000Y-109050000D03*
X53800000Y-31450000D03*
X105450000Y-109050000D03*
D16*
%TO.N,Net-(U3-FSELECT)*%
X81700000Y-86600000D03*
X80450000Y-77150000D03*
%TO.N,/3.3V*%
X104000000Y-81300000D03*
%TD*%
%TO.N,/3.3V*%
D18*
X40350000Y-50950000D02*
X39700000Y-51600000D01*
X40350000Y-50320000D02*
X40350000Y-50950000D01*
X40350000Y-50950000D02*
X41000000Y-51600000D01*
%TO.N,/Vbus_5V*%
X53050000Y-30600000D02*
X52250000Y-31400000D01*
X53050000Y-30600000D02*
X53050000Y-30000000D01*
X53050000Y-30000000D02*
X53050000Y-30700000D01*
X53050000Y-30700000D02*
X53800000Y-31450000D01*
%TD*%
%TA.AperFunction,Conductor*%
%TO.N,/3.3V*%
G36*
X42999998Y-62916164D02*
G01*
X42999999Y-62916169D01*
X43100000Y-65499999D01*
X43099999Y-65499999D01*
X43100000Y-65500000D01*
X45600000Y-66800000D01*
X44900000Y-70569996D01*
X44899163Y-70569992D01*
X41317022Y-70527520D01*
X41250221Y-70507042D01*
X41241940Y-70501078D01*
X37847448Y-67837235D01*
X37806861Y-67780362D01*
X37800000Y-67739686D01*
X37800000Y-62900479D01*
X37800000Y-62900000D01*
X42999998Y-62916164D01*
G37*
%TD.AperFunction*%
%TD*%
%TA.AperFunction,Conductor*%
%TO.N,/3.3V*%
G36*
X88524209Y-66769668D02*
G01*
X88546645Y-66788085D01*
X93600000Y-72040000D01*
X92405687Y-74388814D01*
X92376740Y-74380315D01*
X92365926Y-74372514D01*
X87590000Y-70519999D01*
X88506466Y-66764480D01*
X88524209Y-66769668D01*
G37*
%TD.AperFunction*%
%TD*%
%TA.AperFunction,Conductor*%
%TO.N,/3.3V*%
G36*
X88506466Y-66764480D02*
G01*
X87590000Y-70519999D01*
X87589999Y-70519999D01*
X84819681Y-70523243D01*
X84659113Y-70366146D01*
X81560000Y-70400000D01*
X81672892Y-70526930D01*
X81672891Y-70526930D01*
X44900779Y-70570001D01*
X44900000Y-70569996D01*
X45600000Y-66800000D01*
X88457148Y-66750061D01*
X88506466Y-66764480D01*
G37*
%TD.AperFunction*%
%TD*%
%TA.AperFunction,Conductor*%
%TO.N,/3.3V*%
G36*
X99095876Y-78296668D02*
G01*
X98780214Y-78297547D01*
X97968025Y-78299810D01*
X97908841Y-78282610D01*
X99100000Y-75940000D01*
X99095876Y-78296668D01*
G37*
%TD.AperFunction*%
%TD*%
%TA.AperFunction,Conductor*%
%TO.N,/4.5V*%
G36*
X143741636Y-65959437D02*
G01*
X143766503Y-65969737D01*
X143766510Y-65969738D01*
X143766511Y-65969739D01*
X143921153Y-66000499D01*
X143921156Y-66000500D01*
X143921158Y-66000500D01*
X144078844Y-66000500D01*
X144078845Y-66000499D01*
X144155152Y-65985320D01*
X144233488Y-65969739D01*
X144233488Y-65969738D01*
X144233497Y-65969737D01*
X144258363Y-65959437D01*
X144305811Y-65950000D01*
X146217137Y-65950000D01*
X146278549Y-65966275D01*
X151537414Y-68964320D01*
X151585904Y-69014622D01*
X151600000Y-69072043D01*
X151600000Y-88850000D01*
X149000000Y-90050000D01*
X149050000Y-70000000D01*
X149049998Y-69999999D01*
X149049999Y-69999999D01*
X145700000Y-68000000D01*
X137950000Y-68000000D01*
X137949999Y-68000000D01*
X135100001Y-69899999D01*
X135100000Y-69899999D01*
X135001850Y-76377879D01*
X134981152Y-76444612D01*
X134927661Y-76489562D01*
X134877864Y-76500000D01*
X133024000Y-76500000D01*
X132956961Y-76480315D01*
X132911206Y-76427511D01*
X132900000Y-76376000D01*
X132900000Y-69414886D01*
X132919685Y-69347847D01*
X132953308Y-69313010D01*
X137768117Y-65972123D01*
X137834418Y-65950078D01*
X137838807Y-65950000D01*
X143694189Y-65950000D01*
X143741636Y-65959437D01*
G37*
%TD.AperFunction*%
%TD*%
%TA.AperFunction,Conductor*%
%TO.N,/Vbus_5V*%
G36*
X53648671Y-30246358D02*
G01*
X53659702Y-30256149D01*
X54165268Y-30761715D01*
X54165269Y-30761716D01*
X54180896Y-30740207D01*
X54205486Y-30714904D01*
X54214447Y-30707994D01*
X54279555Y-30682644D01*
X54348033Y-30696518D01*
X54398140Y-30745211D01*
X54398142Y-30745215D01*
X54399861Y-30748259D01*
X54415867Y-30806937D01*
X54450000Y-32650000D01*
X57599998Y-34999999D01*
X57599999Y-34999999D01*
X57600000Y-35000000D01*
X91449467Y-35000000D01*
X91449808Y-35000000D01*
X91450342Y-35000002D01*
X99913645Y-35049494D01*
X99948546Y-35054722D01*
X99967756Y-35060485D01*
X100020763Y-35092541D01*
X100026577Y-35098484D01*
X100043316Y-35119840D01*
X118672324Y-65155378D01*
X118686175Y-65186669D01*
X118695305Y-65218622D01*
X118700077Y-65252506D01*
X118713439Y-74299257D01*
X118711075Y-74323537D01*
X118706404Y-74347115D01*
X118699330Y-74370469D01*
X118680266Y-74416495D01*
X118680260Y-74416509D01*
X118680258Y-74416516D01*
X118649500Y-74571148D01*
X118649500Y-74571153D01*
X118649500Y-74728846D01*
X118649500Y-74728848D01*
X118649499Y-74728848D01*
X118680257Y-74883471D01*
X118680262Y-74883495D01*
X118700367Y-74932033D01*
X118707404Y-74955203D01*
X118712077Y-74978605D01*
X118714478Y-75002703D01*
X118714690Y-75146237D01*
X118712326Y-75170518D01*
X118707655Y-75194095D01*
X118700581Y-75217447D01*
X118680277Y-75266465D01*
X118680260Y-75266509D01*
X118680258Y-75266516D01*
X118649500Y-75421148D01*
X118649500Y-75578849D01*
X118680258Y-75733481D01*
X118680260Y-75733488D01*
X118680263Y-75733498D01*
X118691652Y-75760994D01*
X118701627Y-75785076D01*
X118708665Y-75808247D01*
X118713338Y-75831650D01*
X118715738Y-75855747D01*
X118749873Y-98965036D01*
X118744902Y-98999978D01*
X118739120Y-99019778D01*
X118708211Y-99072259D01*
X118703055Y-99077467D01*
X118682871Y-99093961D01*
X106000000Y-107400000D01*
X106000000Y-111558170D01*
X105994975Y-111593114D01*
X105990570Y-111608112D01*
X105952827Y-111666855D01*
X105951458Y-111668042D01*
X105896597Y-111695518D01*
X105889039Y-111697163D01*
X105862668Y-111700000D01*
X103541830Y-111700000D01*
X103506889Y-111694975D01*
X103491890Y-111690570D01*
X103433144Y-111652827D01*
X103431957Y-111651458D01*
X103404477Y-111596583D01*
X103402832Y-111589021D01*
X103400000Y-111562668D01*
X103400000Y-106334621D01*
X103405023Y-106299686D01*
X103410875Y-106279756D01*
X103441661Y-106227523D01*
X103446654Y-106222472D01*
X103466598Y-106206115D01*
X116300000Y-97750000D01*
X116227239Y-86308528D01*
X116232039Y-86273566D01*
X116241075Y-86242051D01*
X116257169Y-86207337D01*
X116309394Y-86129179D01*
X116369737Y-85983497D01*
X116400500Y-85828842D01*
X116400500Y-85671158D01*
X116400500Y-85671155D01*
X116400500Y-85670971D01*
X116400064Y-85668966D01*
X116382137Y-85578842D01*
X116369737Y-85516503D01*
X116366792Y-85509394D01*
X116309397Y-85370827D01*
X116309390Y-85370814D01*
X116250994Y-85283418D01*
X116235762Y-85251582D01*
X116225746Y-85219596D01*
X116220083Y-85183335D01*
X116132191Y-71362191D01*
X116134495Y-71337606D01*
X116139166Y-71313728D01*
X116146299Y-71290080D01*
X116169735Y-71233502D01*
X116169735Y-71233501D01*
X116169737Y-71233497D01*
X116200500Y-71078842D01*
X116200500Y-70921158D01*
X116200500Y-70921155D01*
X116200500Y-70920973D01*
X116200065Y-70918972D01*
X116170398Y-70769830D01*
X116169983Y-70767403D01*
X116169738Y-70766508D01*
X116169737Y-70766506D01*
X116169737Y-70766503D01*
X116141632Y-70698652D01*
X116134658Y-70675790D01*
X116129984Y-70652675D01*
X116127528Y-70628899D01*
X116113090Y-68358560D01*
X116100002Y-66300229D01*
X116100001Y-66300004D01*
X116100000Y-66300001D01*
X116100000Y-66300000D01*
X116099999Y-66299999D01*
X116099999Y-66299997D01*
X116099995Y-66299992D01*
X116097341Y-66293639D01*
X116092197Y-66287068D01*
X98600002Y-37300000D01*
X98600001Y-37300000D01*
X98600000Y-37300000D01*
X56316523Y-37300000D01*
X56281587Y-37294977D01*
X56255511Y-37287320D01*
X56206071Y-37259209D01*
X51403657Y-32799824D01*
X51381476Y-32772373D01*
X51368581Y-32750705D01*
X51351159Y-32685077D01*
X51351786Y-32650000D01*
X51375000Y-31350000D01*
X51379334Y-31107230D01*
X51384978Y-31072402D01*
X51392963Y-31046902D01*
X51423615Y-30996280D01*
X51439566Y-30980330D01*
X51539337Y-30880558D01*
X51540063Y-30879847D01*
X51540101Y-30879794D01*
X51540104Y-30879792D01*
X51540106Y-30879788D01*
X51540109Y-30879786D01*
X51619446Y-30770586D01*
X51665051Y-30707816D01*
X51665059Y-30707799D01*
X51665800Y-30706593D01*
X51681370Y-30686249D01*
X51684774Y-30682644D01*
X51690918Y-30676137D01*
X51751253Y-30640909D01*
X51821059Y-30643892D01*
X51874789Y-30680067D01*
X51880890Y-30687108D01*
X51892900Y-30703514D01*
X51895367Y-30707540D01*
X51934727Y-30761715D01*
X51934728Y-30761716D01*
X52440297Y-30256145D01*
X52501618Y-30222662D01*
X52571309Y-30227646D01*
X52627243Y-30269517D01*
X52635362Y-30281826D01*
X52649898Y-30307003D01*
X52649900Y-30307005D01*
X52649901Y-30307007D01*
X52742993Y-30400099D01*
X52768169Y-30414634D01*
X52816384Y-30465202D01*
X52829606Y-30533809D01*
X52803638Y-30598673D01*
X52793849Y-30609702D01*
X52288282Y-31115268D01*
X52288282Y-31115269D01*
X52288282Y-31115270D01*
X52342449Y-31154624D01*
X52531782Y-31251095D01*
X52531784Y-31251096D01*
X52733866Y-31316756D01*
X52733867Y-31316756D01*
X52733870Y-31316757D01*
X52943754Y-31350000D01*
X53156245Y-31350000D01*
X53156246Y-31350000D01*
X53269050Y-31332132D01*
X53356487Y-31318284D01*
X53356493Y-31318283D01*
X53366127Y-31316757D01*
X53366130Y-31316757D01*
X53568217Y-31251095D01*
X53757554Y-31154622D01*
X53759976Y-31152862D01*
X53779121Y-31138953D01*
X53805858Y-31129412D01*
X53811717Y-31115269D01*
X53306149Y-30609702D01*
X53272664Y-30548379D01*
X53277648Y-30478688D01*
X53319519Y-30422754D01*
X53331822Y-30414639D01*
X53357007Y-30400099D01*
X53450099Y-30307007D01*
X53464634Y-30281830D01*
X53515199Y-30233616D01*
X53583805Y-30220391D01*
X53648671Y-30246358D01*
G37*
%TD.AperFunction*%
%TD*%
%TA.AperFunction,Conductor*%
%TO.N,/4.5V*%
G36*
X78367682Y-111069685D02*
G01*
X78385856Y-111083918D01*
X82011962Y-114514018D01*
X82047137Y-114574388D01*
X82050737Y-114602354D01*
X82099981Y-118098697D01*
X82099984Y-118099984D01*
X79150000Y-115100000D01*
X79150000Y-115099999D01*
X76550000Y-112500000D01*
X65950000Y-112500000D01*
X65949999Y-112500000D01*
X65436859Y-113059790D01*
X65377048Y-113095907D01*
X65345452Y-113100000D01*
X64600000Y-113100000D01*
X64600000Y-115076000D01*
X64580315Y-115143039D01*
X64527511Y-115188794D01*
X64476000Y-115200000D01*
X62824000Y-115200000D01*
X62756961Y-115180315D01*
X62711206Y-115127511D01*
X62700000Y-115076000D01*
X62700000Y-113156055D01*
X62719685Y-113089016D01*
X62742075Y-113062973D01*
X63914874Y-112030910D01*
X63978205Y-112001401D01*
X63996791Y-112000000D01*
X64500000Y-112000000D01*
X65363318Y-111088720D01*
X65423714Y-111053590D01*
X65453336Y-111050000D01*
X78300643Y-111050000D01*
X78367682Y-111069685D01*
G37*
%TD.AperFunction*%
%TD*%
%TA.AperFunction,Conductor*%
%TO.N,/3.3V*%
G36*
X84823729Y-70527204D02*
G01*
X85872580Y-71553389D01*
X85906733Y-71614343D01*
X85909862Y-71642348D01*
X85900000Y-75400000D01*
X83490000Y-78420000D01*
X83490000Y-72570000D01*
X81560000Y-70400000D01*
X84659113Y-70366146D01*
X84823729Y-70527204D01*
G37*
%TD.AperFunction*%
%TD*%
%TA.AperFunction,Conductor*%
%TO.N,/4.5V*%
G36*
X120250000Y-112350000D02*
G01*
X120250000Y-124954421D01*
X120230315Y-125021460D01*
X120220480Y-125034729D01*
X116037138Y-129956308D01*
X115978722Y-129994640D01*
X115942658Y-130000000D01*
X84943756Y-130000000D01*
X84876717Y-129980315D01*
X84865934Y-129972539D01*
X84845799Y-129956308D01*
X80046178Y-126087225D01*
X80006339Y-126029826D01*
X80000000Y-125990686D01*
X80000000Y-119350000D01*
X79639464Y-118989464D01*
X79612584Y-118949235D01*
X79559396Y-118820826D01*
X79559390Y-118820814D01*
X79471789Y-118689711D01*
X79471786Y-118689707D01*
X79360292Y-118578213D01*
X79360288Y-118578210D01*
X79229185Y-118490609D01*
X79229176Y-118490604D01*
X79100762Y-118437414D01*
X79060534Y-118410534D01*
X78500000Y-117850000D01*
X74124000Y-117850000D01*
X74056961Y-117830315D01*
X74011206Y-117777511D01*
X74000000Y-117726000D01*
X74000000Y-115224000D01*
X74019685Y-115156961D01*
X74072489Y-115111206D01*
X74124000Y-115100000D01*
X79150000Y-115100000D01*
X82099984Y-118099984D01*
X82099989Y-118101375D01*
X82049999Y-124749998D01*
X82049999Y-124749999D01*
X82050000Y-124749999D01*
X82050000Y-124750000D01*
X85700000Y-127650000D01*
X114500000Y-127600000D01*
X117550000Y-124200000D01*
X117599770Y-118949235D01*
X117650000Y-113650045D01*
X117650000Y-113050001D01*
X117649999Y-113049999D01*
X116876317Y-112350000D01*
X116876316Y-112350000D01*
X116600000Y-112100000D01*
X113900000Y-112100000D01*
X113900000Y-109424000D01*
X113919685Y-109356961D01*
X113972489Y-109311206D01*
X114024000Y-109300000D01*
X116750000Y-109300000D01*
X120250000Y-112350000D01*
G37*
%TD.AperFunction*%
%TD*%
%TA.AperFunction,Conductor*%
%TO.N,/4.5V*%
G36*
X116876316Y-112350000D02*
G01*
X114024000Y-112350000D01*
X113956961Y-112330315D01*
X113911206Y-112277511D01*
X113900000Y-112226000D01*
X113900000Y-112100000D01*
X116600000Y-112100000D01*
X116876316Y-112350000D01*
G37*
%TD.AperFunction*%
%TA.AperFunction,Conductor*%
G36*
X132593039Y-79919685D02*
G01*
X132638794Y-79972489D01*
X132650000Y-80024000D01*
X132650000Y-84950000D01*
X133100000Y-85450000D01*
X146214636Y-85499865D01*
X146279970Y-85518766D01*
X149007041Y-87226371D01*
X149000000Y-90050000D01*
X151600000Y-88850000D01*
X151600000Y-106303744D01*
X151580315Y-106370783D01*
X151569705Y-106384955D01*
X146437084Y-112307211D01*
X146378303Y-112344980D01*
X146343379Y-112350000D01*
X120250000Y-112350000D01*
X116750000Y-109300000D01*
X117450000Y-109300000D01*
X145000000Y-109350000D01*
X149000000Y-104950000D01*
X149000000Y-90050000D01*
X148999999Y-90049999D01*
X145000000Y-87500000D01*
X141081356Y-87500000D01*
X141078842Y-87499500D01*
X140921158Y-87499500D01*
X140918644Y-87500000D01*
X139990010Y-87500000D01*
X139979832Y-87499500D01*
X139978842Y-87499500D01*
X139821158Y-87499500D01*
X139820168Y-87499500D01*
X139809990Y-87500000D01*
X131759598Y-87500000D01*
X131692559Y-87480315D01*
X131662770Y-87453462D01*
X131151033Y-86813791D01*
X130127559Y-85534448D01*
X130101052Y-85469805D01*
X130100393Y-85455898D01*
X130148903Y-80022893D01*
X130169185Y-79956032D01*
X130222396Y-79910750D01*
X130272898Y-79900000D01*
X132526000Y-79900000D01*
X132593039Y-79919685D01*
G37*
%TD.AperFunction*%
%TD*%
%TA.AperFunction,Conductor*%
%TO.N,/3.3V*%
G36*
X96238692Y-72098637D02*
G01*
X96305276Y-72119806D01*
X96336129Y-72149549D01*
X97977083Y-74400000D01*
X99100000Y-75940000D01*
X97908842Y-78282610D01*
X97900933Y-78280312D01*
X97863288Y-78242729D01*
X95400000Y-74400000D01*
X92443779Y-74400000D01*
X92405687Y-74388814D01*
X93600000Y-72040000D01*
X96238692Y-72098637D01*
G37*
%TD.AperFunction*%
%TD*%
%TA.AperFunction,Conductor*%
%TO.N,/3.3V*%
G36*
X39884075Y-50512993D02*
G01*
X39949901Y-50627007D01*
X40042993Y-50720099D01*
X40157007Y-50785925D01*
X40220590Y-50802962D01*
X39588282Y-51435269D01*
X39588282Y-51435270D01*
X39642449Y-51474624D01*
X39831782Y-51571095D01*
X40033870Y-51636757D01*
X40243754Y-51670000D01*
X40456246Y-51670000D01*
X40666127Y-51636757D01*
X40666130Y-51636757D01*
X40868217Y-51571095D01*
X41057554Y-51474622D01*
X41111716Y-51435270D01*
X41111717Y-51435270D01*
X40479408Y-50802962D01*
X40542993Y-50785925D01*
X40657007Y-50720099D01*
X40750099Y-50627007D01*
X40815925Y-50512993D01*
X40832962Y-50449409D01*
X41465270Y-51081717D01*
X41465270Y-51081716D01*
X41504622Y-51027555D01*
X41509232Y-51018507D01*
X41557205Y-50967709D01*
X41625025Y-50950912D01*
X41691161Y-50973447D01*
X41730204Y-51018504D01*
X41734949Y-51027817D01*
X41859890Y-51199786D01*
X42010213Y-51350109D01*
X42182179Y-51475048D01*
X42182181Y-51475049D01*
X42182184Y-51475051D01*
X42371588Y-51571557D01*
X42573757Y-51637246D01*
X42783713Y-51670500D01*
X42783714Y-51670500D01*
X42832792Y-51670500D01*
X42899831Y-51690185D01*
X42945586Y-51742989D01*
X42956790Y-51794015D01*
X42971181Y-55498299D01*
X42999998Y-62916164D01*
X37800001Y-62900000D01*
X37800004Y-62899495D01*
X37888255Y-51779862D01*
X37908471Y-51712981D01*
X37961636Y-51667646D01*
X37992853Y-51658373D01*
X38126243Y-51637246D01*
X38328412Y-51571557D01*
X38517816Y-51475051D01*
X38572572Y-51435269D01*
X38689786Y-51350109D01*
X38689788Y-51350106D01*
X38689792Y-51350104D01*
X38840104Y-51199792D01*
X38840106Y-51199788D01*
X38840109Y-51199786D01*
X38925890Y-51081717D01*
X38965051Y-51027816D01*
X38969793Y-51018508D01*
X39017763Y-50967711D01*
X39085583Y-50950911D01*
X39151719Y-50973445D01*
X39190763Y-51018500D01*
X39195373Y-51027547D01*
X39234728Y-51081716D01*
X39867036Y-50449406D01*
X39884075Y-50512993D01*
G37*
%TD.AperFunction*%
%TD*%
%TA.AperFunction,Conductor*%
%TO.N,/3.3V*%
G36*
X101658112Y-75959685D02*
G01*
X101675744Y-75973408D01*
X104660778Y-78763342D01*
X104696314Y-78823499D01*
X104700107Y-78853685D01*
X104709752Y-83685752D01*
X104690201Y-83752831D01*
X104637489Y-83798691D01*
X104585752Y-83810000D01*
X102424000Y-83810000D01*
X102356961Y-83790315D01*
X102311206Y-83737511D01*
X102300000Y-83686000D01*
X102300000Y-79600000D01*
X100999999Y-78299999D01*
X99095939Y-78296668D01*
X99095914Y-78296668D01*
X99095876Y-78296668D01*
X99100000Y-75940000D01*
X101591073Y-75940000D01*
X101658112Y-75959685D01*
G37*
%TD.AperFunction*%
%TD*%
%TA.AperFunction,Conductor*%
%TO.N,/3.3V*%
G36*
X85899998Y-75400311D02*
G01*
X85799999Y-94899998D01*
X85800000Y-94900000D01*
X87100000Y-96200000D01*
X88877220Y-96200917D01*
X88944246Y-96220635D01*
X88989974Y-96273463D01*
X89001153Y-96324980D01*
X89000064Y-98436064D01*
X88980345Y-98503093D01*
X88927517Y-98548821D01*
X88876064Y-98560000D01*
X86508927Y-98560000D01*
X86441888Y-98540315D01*
X86424256Y-98526592D01*
X83439609Y-95737020D01*
X83404073Y-95676862D01*
X83400282Y-95645782D01*
X83404167Y-94900000D01*
X83490000Y-78420000D01*
X85900000Y-75400000D01*
X85899998Y-75400311D01*
G37*
%TD.AperFunction*%
%TD*%
M02*
