%TF.GenerationSoftware,KiCad,Pcbnew,10.0.0*%
%TF.CreationDate,2026-05-11T18:02:45-04:00*%
%TF.ProjectId,dds,6464732e-6b69-4636-9164-5f7063625858,rev?*%
%TF.SameCoordinates,Original*%
%TF.FileFunction,Soldermask,Bot*%
%TF.FilePolarity,Negative*%
%FSLAX46Y46*%
G04 Gerber Fmt 4.6, Leading zero omitted, Abs format (unit mm)*
G04 Created by KiCad (PCBNEW 10.0.0) date 2026-05-11 18:02:45*
%MOMM*%
%LPD*%
G01*
G04 APERTURE LIST*
G04 Aperture macros list*
%AMRoundRect*
0 Rectangle with rounded corners*
0 $1 Rounding radius*
0 $2 $3 $4 $5 $6 $7 $8 $9 X,Y pos of 4 corners*
0 Add a 4 corners polygon primitive as box body*
4,1,4,$2,$3,$4,$5,$6,$7,$8,$9,$2,$3,0*
0 Add four circle primitives for the rounded corners*
1,1,$1+$1,$2,$3*
1,1,$1+$1,$4,$5*
1,1,$1+$1,$6,$7*
1,1,$1+$1,$8,$9*
0 Add four rect primitives between the rounded corners*
20,1,$1+$1,$2,$3,$4,$5,0*
20,1,$1+$1,$4,$5,$6,$7,0*
20,1,$1+$1,$6,$7,$8,$9,0*
20,1,$1+$1,$8,$9,$2,$3,0*%
G04 Aperture macros list end*
%ADD10C,1.700000*%
%ADD11C,2.400000*%
%ADD12C,2.000000*%
%ADD13RoundRect,0.250000X-1.082500X1.595000X-1.082500X-1.595000X1.082500X-1.595000X1.082500X1.595000X0*%
%ADD14C,3.200000*%
%ADD15C,4.155000*%
%ADD16R,1.650000X1.650000*%
%ADD17C,1.650000*%
G04 APERTURE END LIST*
D10*
%TO.C,U2*%
X37810000Y-50320000D03*
X40350000Y-50320000D03*
X42890000Y-50320000D03*
X45430000Y-50320000D03*
X47970000Y-50320000D03*
X50510000Y-50320000D03*
X53050000Y-50320000D03*
X55590000Y-50320000D03*
X58130000Y-50320000D03*
X60670000Y-50320000D03*
X63210000Y-50320000D03*
X65750000Y-50320000D03*
X68290000Y-50320000D03*
X70830000Y-50320000D03*
X73370000Y-50320000D03*
X75910000Y-50320000D03*
X75910000Y-30000000D03*
X73370000Y-30000000D03*
X70830000Y-30000000D03*
X68290000Y-30000000D03*
X65750000Y-30000000D03*
X63210000Y-30000000D03*
X60670000Y-30000000D03*
X58130000Y-30000000D03*
X55590000Y-30000000D03*
X53050000Y-30000000D03*
X50510000Y-30000000D03*
X47970000Y-30000000D03*
%TD*%
D11*
%TO.C,REF5*%
X66640000Y-61640000D03*
%TD*%
%TO.C,REF4*%
X73500000Y-129400000D03*
%TD*%
%TO.C,AMPIOUT1*%
X73440000Y-124142000D03*
%TD*%
%TO.C,SCLK1*%
X82090000Y-61750000D03*
%TD*%
%TO.C,REF2*%
X142000000Y-63200000D03*
%TD*%
D12*
%TO.C,DDSOUT2*%
X123550000Y-85100000D03*
%TD*%
D11*
%TO.C,FSYNC1*%
X76050000Y-61750000D03*
%TD*%
%TO.C,AMPIOUT2*%
X142000000Y-74750000D03*
%TD*%
%TO.C,RESET1*%
X94170000Y-61750000D03*
%TD*%
%TO.C,FSYNC2*%
X106250000Y-61750000D03*
%TD*%
D13*
%TO.C,J1*%
X64985000Y-137600000D03*
X58000000Y-137600000D03*
%TD*%
D14*
%TO.C,REF\u002A\u002A*%
X34800000Y-94710000D03*
%TD*%
D11*
%TO.C,REF3*%
X85200000Y-102900000D03*
%TD*%
D12*
%TO.C,DDSIOUT1*%
X74775000Y-101450000D03*
%TD*%
D13*
%TO.C,J4*%
X103492500Y-137600000D03*
X96507500Y-137600000D03*
%TD*%
D14*
%TO.C,REF\u002A\u002A*%
X154860000Y-24900000D03*
%TD*%
D11*
%TO.C,SDATA1*%
X88130000Y-61750000D03*
%TD*%
D13*
%TO.C,J3*%
X123492500Y-137600000D03*
X116507500Y-137600000D03*
%TD*%
D11*
%TO.C,TP1*%
X100300000Y-61750000D03*
%TD*%
D15*
%TO.C,U1*%
X139150000Y-135350000D03*
X150850000Y-135350000D03*
D16*
X142500000Y-136600000D03*
D17*
X147500000Y-136600000D03*
X145000000Y-136600000D03*
X142500000Y-134100000D03*
X147500000Y-134100000D03*
%TD*%
D13*
%TO.C,J2*%
X45992500Y-137600000D03*
X39007500Y-137600000D03*
%TD*%
D12*
%TO.C,DDSIOUT2*%
X114400000Y-74850000D03*
%TD*%
D14*
%TO.C,REF\u002A\u002A*%
X34800000Y-24900000D03*
%TD*%
D11*
%TO.C,REF1*%
X113400000Y-69000000D03*
%TD*%
D12*
%TO.C,DDSOUT1*%
X67750000Y-101450000D03*
%TD*%
M02*
